<svg xmlns="http://www.w3.org/2000/svg" xmlns:xlink="http://www.w3.org/1999/xlink" width="1080" zoomAndPan="magnify" viewBox="0 0 810 809.999993" height="1080" preserveAspectRatio="xMidYMid meet" version="1.0"><defs><g/><clipPath id="a4da6ad86d"><path d="M 0 0 L 377.878906 0 L 377.878906 570.582031 L 0 570.582031 Z M 0 0 " clip-rule="nonzero"/></clipPath><clipPath id="1800eede2f"><path d="M 149.726562 638 L 660.476562 638 L 660.476562 681.199219 L 149.726562 681.199219 Z M 149.726562 638 " clip-rule="nonzero"/></clipPath><clipPath id="fca6795076"><path d="M 149.726562 582 L 190 582 L 190 600 L 149.726562 600 Z M 149.726562 582 " clip-rule="nonzero"/></clipPath><clipPath id="7b016db892"><path d="M 555 375.949219 L 582 375.949219 L 582 430 L 555 430 Z M 555 375.949219 " clip-rule="nonzero"/></clipPath><clipPath id="fb22f26ff6"><path d="M 679 223 L 810 223 L 810 810 L 679 810 Z M 679 223 " clip-rule="nonzero"/></clipPath><clipPath id="f8e0c66b16"><path d="M 1012.273438 158.734375 L 1473.792969 533.871094 L 1020.128906 1092 L 558.609375 716.863281 Z M 1012.273438 158.734375 " clip-rule="nonzero"/></clipPath><clipPath id="6403baac15"><path d="M 1012.273438 158.734375 L 1473.792969 533.871094 L 1020.128906 1092 L 558.609375 716.863281 Z M 1012.273438 158.734375 " clip-rule="nonzero"/></clipPath></defs><g clip-path="url(#a4da6ad86d)"><path fill="#edf1ff" d="M 376.683594 205.109375 C 370.066406 250.554688 336.21875 287.351562 298.84375 313.910156 C 261.46875 340.46875 219.203125 359.847656 183.171875 388.222656 C 150.304688 414.109375 137.507812 450.613281 121.039062 483.988281 C 101.3125 523.980469 65.285156 551.25 22.507812 562.828125 C -14.175781 572.792969 -53.078125 571.699219 -90.671875 566.136719 C -129.882812 560.320312 -171.058594 548.050781 -195.945312 517.21875 C -230.792969 474.046875 -221.976562 411.546875 -211.632812 357.046875 C -191.179688 249.464844 -233.863281 179.878906 -282.074219 86.949219 C -326.828125 0.65625 -366.367188 -94.367188 -322.066406 -189.367188 C -320.550781 -192.554688 -318.949219 -195.699219 -317.261719 -198.796875 C -315.570312 -201.898438 -313.796875 -204.949219 -311.941406 -207.949219 C -310.082031 -210.949219 -308.144531 -213.898438 -306.121094 -216.792969 C -304.101562 -219.6875 -302 -222.523438 -299.824219 -225.300781 C -297.644531 -228.078125 -295.390625 -230.792969 -293.0625 -233.445312 C -290.734375 -236.097656 -288.335938 -238.683594 -285.863281 -241.203125 C -283.390625 -243.722656 -280.851562 -246.175781 -278.246094 -248.554688 C -275.636719 -250.933594 -272.964844 -253.238281 -270.230469 -255.46875 C -267.496094 -257.703125 -264.703125 -259.855469 -261.847656 -261.933594 C -258.992188 -264.007812 -256.082031 -266.003906 -253.121094 -267.921875 C -250.15625 -269.835938 -247.140625 -271.667969 -244.074219 -273.417969 C -241.007812 -275.167969 -237.894531 -276.828125 -234.734375 -278.40625 C -231.578125 -279.980469 -228.378906 -281.46875 -225.136719 -282.867188 C -221.898438 -284.269531 -218.621094 -285.578125 -215.308594 -286.792969 C -211.996094 -288.011719 -208.648438 -289.136719 -205.273438 -290.171875 C -201.898438 -291.203125 -198.5 -292.140625 -195.070312 -292.984375 C -190.042969 -294.144531 -184.976562 -295.097656 -179.871094 -295.84375 C -174.765625 -296.59375 -169.640625 -297.136719 -164.488281 -297.472656 C -159.339844 -297.804688 -154.1875 -297.933594 -149.027344 -297.851562 C -143.867188 -297.773438 -138.722656 -297.484375 -133.585938 -296.988281 C -128.449219 -296.492188 -123.339844 -295.789062 -118.261719 -294.882812 C -113.183594 -293.976562 -108.148438 -292.863281 -103.160156 -291.550781 C -98.167969 -290.234375 -93.242188 -288.722656 -88.375 -287.011719 C -83.503906 -285.300781 -78.714844 -283.394531 -74 -281.296875 C -36.789062 -264.9375 -13.667969 -259.992188 28.070312 -258.917969 C 82.390625 -257.5 137.761719 -260.644531 190.0625 -245.921875 C 242.363281 -231.195312 292.535156 -193.730469 303.695312 -140.484375 C 317.039062 -76.859375 293.515625 -24.140625 322.167969 38.429688 C 346.164062 90.621094 385.609375 144.355469 376.683594 205.109375 Z M 376.683594 205.109375 " fill-opacity="1" fill-rule="nonzero"/></g><g clip-path="url(#1800eede2f)"><path fill="#000000" d="M 660.382812 659.734375 C 660.382812 660.085938 660.28125 660.4375 660.074219 660.789062 C 659.871094 661.140625 659.5625 661.488281 659.152344 661.839844 C 658.742188 662.1875 658.230469 662.539062 657.621094 662.886719 C 657.007812 663.234375 656.292969 663.578125 655.476562 663.921875 C 654.664062 664.265625 653.746094 664.609375 652.730469 664.949219 C 651.714844 665.292969 650.601562 665.628906 649.390625 665.964844 C 648.175781 666.300781 646.867188 666.636719 645.460938 666.964844 C 644.050781 667.296875 642.550781 667.625 640.949219 667.949219 C 639.351562 668.273438 637.660156 668.59375 635.871094 668.914062 C 634.085938 669.230469 632.207031 669.542969 630.238281 669.851562 C 628.269531 670.164062 626.210938 670.46875 624.0625 670.769531 C 621.914062 671.070312 619.679688 671.367188 617.359375 671.660156 C 615.039062 671.953125 612.632812 672.238281 610.144531 672.519531 C 607.65625 672.804688 605.085938 673.082031 602.4375 673.351562 C 599.785156 673.625 597.058594 673.890625 594.253906 674.148438 C 591.445312 674.410156 588.566406 674.664062 585.613281 674.914062 C 582.65625 675.160156 579.632812 675.402344 576.539062 675.640625 C 573.441406 675.875 570.28125 676.105469 567.050781 676.328125 C 563.820312 676.550781 560.527344 676.765625 557.171875 676.976562 C 553.816406 677.183594 550.402344 677.386719 546.929688 677.582031 C 543.453125 677.777344 539.925781 677.964844 536.34375 678.144531 C 532.757812 678.324219 529.125 678.5 525.441406 678.664062 C 521.753906 678.828125 518.023438 678.988281 514.25 679.136719 C 510.472656 679.289062 506.652344 679.429688 502.792969 679.566406 C 498.933594 679.699219 495.035156 679.824219 491.101562 679.945312 C 487.167969 680.0625 483.203125 680.171875 479.207031 680.273438 C 475.207031 680.375 471.183594 680.46875 467.128906 680.554688 C 463.078125 680.640625 459.003906 680.71875 454.90625 680.785156 C 450.808594 680.855469 446.691406 680.914062 442.558594 680.964844 C 438.425781 681.019531 434.28125 681.0625 430.125 681.09375 C 425.964844 681.128906 421.800781 681.15625 417.628906 681.171875 C 413.453125 681.191406 409.28125 681.199219 405.101562 681.199219 C 400.925781 681.199219 396.75 681.191406 392.574219 681.171875 C 388.402344 681.15625 384.238281 681.128906 380.078125 681.09375 C 375.921875 681.0625 371.777344 681.019531 367.644531 680.964844 C 363.511719 680.914062 359.398438 680.855469 355.300781 680.785156 C 351.203125 680.71875 347.125 680.640625 343.074219 680.554688 C 339.019531 680.46875 334.996094 680.375 330.996094 680.273438 C 327 680.171875 323.035156 680.0625 319.101562 679.945312 C 315.167969 679.824219 311.269531 679.699219 307.410156 679.566406 C 303.550781 679.429688 299.730469 679.289062 295.957031 679.136719 C 292.179688 678.988281 288.449219 678.828125 284.761719 678.664062 C 281.078125 678.5 277.445312 678.324219 273.863281 678.144531 C 270.277344 677.964844 266.75 677.777344 263.277344 677.582031 C 259.800781 677.386719 256.386719 677.183594 253.03125 676.976562 C 249.675781 676.765625 246.382812 676.550781 243.152344 676.328125 C 239.925781 676.105469 236.761719 675.875 233.664062 675.640625 C 230.570312 675.402344 227.546875 675.160156 224.589844 674.914062 C 221.636719 674.664062 218.757812 674.410156 215.953125 674.148438 C 213.144531 673.890625 210.417969 673.625 207.765625 673.351562 C 205.117188 673.082031 202.546875 672.804688 200.058594 672.519531 C 197.570312 672.238281 195.164062 671.953125 192.84375 671.660156 C 190.523438 671.367188 188.289062 671.070312 186.140625 670.769531 C 183.992188 670.46875 181.933594 670.164062 179.964844 669.851562 C 177.996094 669.542969 176.117188 669.230469 174.332031 668.914062 C 172.542969 668.59375 170.851562 668.273438 169.253906 667.949219 C 167.65625 667.625 166.152344 667.296875 164.742188 666.964844 C 163.335938 666.636719 162.027344 666.300781 160.8125 665.964844 C 159.601562 665.628906 158.488281 665.292969 157.472656 664.949219 C 156.457031 664.609375 155.542969 664.265625 154.726562 663.921875 C 153.910156 663.578125 153.199219 663.234375 152.585938 662.886719 C 151.972656 662.539062 151.460938 662.1875 151.050781 661.839844 C 150.640625 661.488281 150.332031 661.140625 150.128906 660.789062 C 149.921875 660.4375 149.820312 660.085938 149.820312 659.734375 C 149.820312 659.382812 149.921875 659.035156 150.128906 658.683594 C 150.332031 658.332031 150.640625 657.980469 151.050781 657.632812 C 151.460938 657.28125 151.972656 656.933594 152.585938 656.585938 C 153.199219 656.238281 153.910156 655.894531 154.726562 655.546875 C 155.542969 655.203125 156.457031 654.863281 157.472656 654.519531 C 158.488281 654.179688 159.601562 653.839844 160.8125 653.503906 C 162.027344 653.167969 163.335938 652.835938 164.742188 652.503906 C 166.152344 652.175781 167.65625 651.847656 169.253906 651.523438 C 170.851562 651.199219 172.542969 650.875 174.332031 650.558594 C 176.117188 650.242188 177.996094 649.929688 179.964844 649.617188 C 181.933594 649.308594 183.992188 649.003906 186.140625 648.703125 C 188.289062 648.402344 190.523438 648.105469 192.84375 647.8125 C 195.164062 647.519531 197.570312 647.234375 200.058594 646.949219 C 202.546875 646.667969 205.117188 646.390625 207.765625 646.121094 C 210.417969 645.847656 213.144531 645.582031 215.953125 645.320312 C 218.757812 645.0625 221.636719 644.808594 224.589844 644.558594 C 227.546875 644.3125 230.570312 644.070312 233.664062 643.832031 C 236.761719 643.597656 239.925781 643.367188 243.152344 643.144531 C 246.382812 642.921875 249.675781 642.707031 253.03125 642.496094 C 256.386719 642.289062 259.800781 642.085938 263.277344 641.890625 C 266.75 641.695312 270.277344 641.507812 273.863281 641.328125 C 277.445312 641.144531 281.078125 640.972656 284.761719 640.808594 C 288.449219 640.640625 292.179688 640.484375 295.957031 640.332031 C 299.730469 640.183594 303.550781 640.042969 307.410156 639.90625 C 311.269531 639.773438 315.167969 639.644531 319.101562 639.527344 C 323.035156 639.410156 327 639.300781 330.996094 639.195312 C 334.996094 639.09375 339.019531 639 343.074219 638.917969 C 347.125 638.832031 351.203125 638.753906 355.300781 638.683594 C 359.398438 638.617188 363.511719 638.558594 367.644531 638.503906 C 371.777344 638.453125 375.921875 638.410156 380.078125 638.375 C 384.238281 638.34375 388.402344 638.316406 392.574219 638.296875 C 396.75 638.28125 400.925781 638.273438 405.101562 638.273438 C 409.28125 638.273438 413.453125 638.28125 417.628906 638.296875 C 421.800781 638.316406 425.964844 638.34375 430.125 638.375 C 434.28125 638.410156 438.425781 638.453125 442.558594 638.503906 C 446.691406 638.558594 450.808594 638.617188 454.90625 638.683594 C 459.003906 638.753906 463.078125 638.832031 467.128906 638.917969 C 471.183594 639 475.207031 639.09375 479.207031 639.195312 C 483.203125 639.300781 487.167969 639.410156 491.101562 639.527344 C 495.035156 639.644531 498.933594 639.773438 502.792969 639.90625 C 506.652344 640.042969 510.472656 640.183594 514.25 640.332031 C 518.023438 640.484375 521.753906 640.640625 525.441406 640.808594 C 529.125 640.972656 532.757812 641.144531 536.34375 641.328125 C 539.925781 641.507812 543.453125 641.695312 546.929688 641.890625 C 550.402344 642.085938 553.816406 642.289062 557.171875 642.496094 C 560.527344 642.707031 563.820312 642.921875 567.050781 643.144531 C 570.28125 643.367188 573.441406 643.597656 576.539062 643.832031 C 579.632812 644.070312 582.65625 644.3125 585.613281 644.558594 C 588.566406 644.808594 591.445312 645.0625 594.253906 645.320312 C 597.058594 645.582031 599.785156 645.847656 602.4375 646.121094 C 605.085938 646.390625 607.65625 646.667969 610.144531 646.949219 C 612.632812 647.234375 615.039062 647.519531 617.359375 647.8125 C 619.679688 648.105469 621.914062 648.402344 624.0625 648.703125 C 626.210938 649.003906 628.269531 649.308594 630.238281 649.617188 C 632.207031 649.929688 634.085938 650.242188 635.871094 650.558594 C 637.660156 650.875 639.351562 651.199219 640.949219 651.523438 C 642.550781 651.847656 644.050781 652.175781 645.460938 652.503906 C 646.867188 652.835938 648.175781 653.167969 649.390625 653.503906 C 650.601562 653.839844 651.714844 654.179688 652.730469 654.519531 C 653.746094 654.863281 654.664062 655.203125 655.476562 655.546875 C 656.292969 655.894531 657.007812 656.238281 657.621094 656.585938 C 658.230469 656.933594 658.742188 657.28125 659.152344 657.632812 C 659.5625 657.980469 659.871094 658.332031 660.074219 658.683594 C 660.28125 659.035156 660.382812 659.382812 660.382812 659.734375 Z M 660.382812 659.734375 " fill-opacity="0.15" fill-rule="nonzero"/></g><path fill="#00bb5f" d="M 186.757812 548.246094 C 186.203125 548.308594 185.589844 548.40625 185.25 548.851562 C 184.996094 549.175781 184.960938 549.621094 184.945312 550.035156 C 184.722656 557.316406 188.769531 564.367188 194.660156 568.644531 C 200.550781 572.921875 208.054688 574.617188 215.328125 574.320312 C 220.359375 574.113281 226.539062 573.304688 231.113281 571.058594 C 236.167969 568.574219 231.113281 564.226562 228.398438 561.8125 C 224.777344 558.613281 220.808594 555.9375 216.488281 553.777344 C 212.167969 551.621094 207.644531 550.050781 202.914062 549.074219 C 197.574219 547.960938 192.1875 547.683594 186.757812 548.246094 Z M 186.757812 548.246094 " fill-opacity="1" fill-rule="nonzero"/><path fill="#00bb5f" d="M 199.800781 580.507812 C 199.273438 580.691406 198.699219 580.929688 198.457031 581.433594 C 198.28125 581.8125 198.347656 582.25 198.425781 582.660156 C 199.832031 589.808594 205.367188 595.765625 212.0625 598.613281 C 218.757812 601.460938 226.453125 601.425781 233.476562 599.511719 C 238.335938 598.179688 244.171875 596.003906 248.128906 592.785156 C 252.496094 589.230469 246.601562 586.128906 243.410156 584.382812 C 239.164062 582.082031 234.695312 580.363281 230 579.226562 C 225.304688 578.09375 220.542969 577.582031 215.71875 577.691406 C 210.265625 577.804688 204.960938 578.742188 199.800781 580.507812 Z M 199.800781 580.507812 " fill-opacity="1" fill-rule="nonzero"/><path fill="#00bb5f" d="M 232.070312 489.890625 C 232.453125 489.484375 232.90625 489.058594 233.460938 489.054688 C 233.875 489.054688 234.25 489.292969 234.582031 489.53125 C 240.511719 493.757812 243.664062 501.257812 243.496094 508.539062 C 243.332031 515.824219 240.136719 522.824219 235.496094 528.4375 C 232.285156 532.320312 227.898438 536.75 223.339844 539.03125 C 218.308594 541.554688 217.90625 534.898438 217.632812 531.269531 C 217.285156 526.449219 217.558594 521.667969 218.457031 516.917969 C 219.359375 512.171875 220.851562 507.617188 222.941406 503.261719 C 225.289062 498.328125 228.332031 493.871094 232.070312 489.890625 Z M 232.070312 489.890625 " fill-opacity="1" fill-rule="nonzero"/><path fill="#00bb5f" d="M 244.546875 518.816406 C 244.902344 518.386719 245.328125 517.917969 245.890625 517.890625 C 246.304688 517.863281 246.695312 518.078125 247.046875 518.296875 C 253.238281 522.125 256.863281 529.410156 257.167969 536.679688 C 257.472656 543.949219 254.734375 551.148438 250.464844 557.050781 C 247.496094 561.140625 243.414062 565.847656 239.011719 568.417969 C 234.148438 571.257812 233.324219 564.644531 232.816406 561.039062 C 232.15625 556.253906 232.121094 551.460938 232.710938 546.664062 C 233.300781 541.867188 234.496094 537.230469 236.296875 532.746094 C 238.324219 527.671875 241.074219 523.03125 244.546875 518.816406 Z M 244.546875 518.816406 " fill-opacity="1" fill-rule="nonzero"/><path fill="#00bb5f" d="M 260.128906 543.695312 C 260.457031 543.300781 260.84375 542.882812 261.351562 542.847656 C 261.746094 542.859375 262.097656 542.980469 262.410156 543.21875 C 268.085938 546.730469 271.410156 553.40625 271.691406 560.078125 C 271.96875 566.75 269.449219 573.339844 265.546875 578.75 C 262.839844 582.492188 259.089844 586.808594 255.054688 589.164062 C 250.597656 591.769531 249.839844 585.707031 249.371094 582.402344 C 248.769531 578.011719 248.738281 573.621094 249.28125 569.222656 C 249.824219 564.828125 250.917969 560.574219 252.570312 556.464844 C 254.429688 551.816406 256.945312 547.558594 260.128906 543.695312 Z M 260.128906 543.695312 " fill-opacity="1" fill-rule="nonzero"/><path fill="#00bb5f" d="M 171.5 521.042969 C 170.945312 521.117188 170.335938 521.234375 170.007812 521.683594 C 169.765625 522.023438 169.742188 522.464844 169.738281 522.878906 C 169.707031 530.164062 173.960938 537.097656 179.964844 541.214844 C 185.972656 545.328125 193.519531 546.820312 200.785156 546.3125 C 205.808594 545.964844 211.960938 544.988281 216.464844 542.613281 C 221.449219 539.988281 216.28125 535.78125 213.492188 533.441406 C 209.785156 530.351562 205.746094 527.785156 201.371094 525.746094 C 196.996094 523.710938 192.433594 522.265625 187.683594 521.421875 C 182.308594 520.453125 176.914062 520.324219 171.5 521.042969 Z M 171.5 521.042969 " fill-opacity="1" fill-rule="nonzero"/><path fill="#00bb5f" d="M 217.238281 499.65625 C 215.445312 491.136719 210.917969 483.410156 205.472656 476.628906 C 203.15625 473.742188 200.261719 470.800781 196.570312 470.574219 C 190.960938 483.242188 191.390625 498.441406 197.71875 510.765625 C 199.589844 514.417969 208.707031 527.6875 213.347656 523.648438 C 218.957031 518.765625 218.585938 506.070312 217.238281 499.65625 Z M 217.238281 499.65625 " fill-opacity="1" fill-rule="nonzero"/><path fill="#00663e" d="M 269.273438 603.613281 C 263.289062 599.296875 257.734375 594.480469 252.617188 589.164062 C 254.660156 586.316406 256.445312 583.308594 257.972656 580.148438 C 259.496094 576.992188 260.742188 573.722656 261.703125 570.347656 C 262.664062 566.976562 263.332031 563.542969 263.703125 560.054688 C 264.074219 556.5625 264.140625 553.070312 263.910156 549.566406 C 263.796875 547.972656 261.292969 547.863281 261.40625 549.476562 C 261.632812 552.8125 261.578125 556.144531 261.238281 559.472656 C 260.898438 562.800781 260.28125 566.078125 259.382812 569.300781 C 258.484375 572.523438 257.316406 575.644531 255.886719 578.671875 C 254.457031 581.695312 252.78125 584.574219 250.859375 587.3125 C 245.457031 581.492188 240.546875 575.285156 236.132812 568.683594 C 236.203125 568.613281 236.269531 568.539062 236.324219 568.457031 C 238.558594 565.347656 240.511719 562.066406 242.179688 558.613281 C 243.847656 555.164062 245.210938 551.597656 246.261719 547.910156 C 247.316406 544.226562 248.042969 540.476562 248.449219 536.667969 C 248.855469 532.855469 248.929688 529.035156 248.675781 525.210938 C 248.554688 523.472656 245.824219 523.355469 245.945312 525.109375 C 246.191406 528.738281 246.132812 532.363281 245.765625 535.980469 C 245.398438 539.597656 244.730469 543.160156 243.757812 546.664062 C 242.785156 550.167969 241.523438 553.5625 239.972656 556.851562 C 238.425781 560.140625 236.609375 563.277344 234.527344 566.257812 C 234.097656 565.597656 233.667969 564.9375 233.25 564.269531 C 228.269531 556.269531 223.886719 547.953125 220.105469 539.316406 C 220.324219 539.226562 220.507812 539.09375 220.65625 538.910156 C 223.089844 535.945312 225.25 532.800781 227.136719 529.464844 C 229.023438 526.128906 230.613281 522.65625 231.898438 519.046875 C 233.1875 515.4375 234.15625 511.742188 234.808594 507.964844 C 235.457031 504.1875 235.777344 500.382812 235.773438 496.550781 C 235.773438 494.804688 233.046875 494.511719 233.054688 496.273438 C 233.066406 499.917969 232.773438 503.535156 232.171875 507.128906 C 231.566406 510.722656 230.667969 514.238281 229.464844 517.675781 C 228.265625 521.117188 226.78125 524.429688 225.015625 527.617188 C 223.25 530.804688 221.230469 533.816406 218.953125 536.660156 C 215.398438 528.339844 212.304688 519.8125 209.554688 511.195312 C 206.074219 500.292969 203.113281 489.222656 200.339844 478.132812 C 199.914062 476.425781 197.285156 477.171875 197.710938 478.878906 C 202.695312 498.835938 208.316406 518.738281 216.421875 537.6875 C 212.84375 537.839844 209.273438 537.691406 205.71875 537.246094 C 202.164062 536.800781 198.667969 536.0625 195.238281 535.03125 C 191.804688 534 188.484375 532.691406 185.269531 531.101562 C 182.058594 529.511719 179 527.664062 176.097656 525.5625 C 174.671875 524.527344 173.328125 526.910156 174.734375 527.933594 C 177.820312 530.15625 181.070312 532.101562 184.484375 533.769531 C 187.902344 535.433594 191.4375 536.796875 195.085938 537.855469 C 198.734375 538.914062 202.449219 539.65625 206.226562 540.078125 C 210.003906 540.5 213.789062 540.597656 217.582031 540.367188 C 221.5 549.289062 226.042969 557.878906 231.214844 566.132812 C 227.632812 566.1875 224.066406 565.945312 220.523438 565.402344 C 216.980469 564.859375 213.507812 564.027344 210.105469 562.898438 C 206.699219 561.773438 203.414062 560.371094 200.246094 558.695312 C 197.078125 557.015625 194.070312 555.085938 191.226562 552.90625 C 189.832031 551.832031 188.417969 554.175781 189.800781 555.238281 C 192.84375 557.566406 196.066406 559.613281 199.464844 561.382812 C 202.863281 563.152344 206.386719 564.613281 210.039062 565.773438 C 213.691406 566.933594 217.414062 567.769531 221.210938 568.285156 C 225.003906 568.800781 228.816406 568.984375 232.644531 568.84375 C 232.742188 568.839844 232.839844 568.824219 232.9375 568.800781 C 236.738281 574.609375 240.90625 580.136719 245.4375 585.390625 C 246.152344 586.21875 246.882812 587.03125 247.617188 587.839844 C 244.105469 588.734375 240.539062 589.328125 236.925781 589.613281 C 233.3125 589.902344 229.699219 589.886719 226.085938 589.5625 C 222.476562 589.238281 218.917969 588.609375 215.410156 587.683594 C 211.90625 586.753906 208.503906 585.535156 205.207031 584.03125 C 203.605469 583.296875 202.753906 585.898438 204.339844 586.625 C 207.828125 588.207031 211.425781 589.480469 215.132812 590.441406 C 218.84375 591.40625 222.605469 592.042969 226.425781 592.351562 C 230.242188 592.664062 234.058594 592.644531 237.875 592.296875 C 241.6875 591.945312 245.445312 591.273438 249.144531 590.273438 C 249.335938 590.222656 249.507812 590.136719 249.660156 590.011719 C 255.242188 595.914062 261.328125 601.234375 267.921875 605.980469 C 269.34375 607.011719 270.6875 604.636719 269.273438 603.613281 Z M 269.273438 603.613281 " fill-opacity="1" fill-rule="nonzero"/><path fill="#82ff44" d="M 169.296875 602.335938 C 168.921875 602.535156 168.511719 602.785156 168.402344 603.191406 C 168.34375 603.511719 168.382812 603.824219 168.523438 604.121094 C 170.410156 609.363281 175.285156 613.234375 180.6875 614.613281 C 186.085938 615.992188 191.886719 615.074219 196.988281 612.820312 C 200.511719 611.25 204.675781 608.929688 207.292969 606.035156 C 210.1875 602.84375 205.367188 601.175781 202.75 600.226562 C 199.269531 598.976562 195.691406 598.191406 192.007812 597.878906 C 188.324219 597.5625 184.660156 597.726562 181.019531 598.371094 C 176.90625 599.082031 173 600.40625 169.296875 602.335938 Z M 169.296875 602.335938 " fill-opacity="1" fill-rule="nonzero"/><path fill="#82ff44" d="M 187.683594 621.597656 C 187.359375 621.878906 187.011719 622.207031 186.996094 622.636719 C 187.007812 622.960938 187.117188 623.253906 187.320312 623.515625 C 190.335938 628.203125 195.957031 630.875 201.523438 631.007812 C 207.09375 631.136719 212.554688 628.941406 217.007812 625.589844 C 220.085938 623.269531 223.628906 620.070312 225.53125 616.664062 C 227.636719 612.902344 222.566406 612.359375 219.804688 612.019531 C 216.132812 611.582031 212.46875 611.625 208.808594 612.144531 C 205.148438 612.664062 201.613281 613.648438 198.210938 615.089844 C 194.363281 616.710938 190.855469 618.882812 187.683594 621.597656 Z M 187.683594 621.597656 " fill-opacity="1" fill-rule="nonzero"/><path fill="#82ff44" d="M 185.0625 548.015625 C 185.21875 547.617188 185.417969 547.1875 185.816406 547.027344 C 186.128906 546.933594 186.441406 546.941406 186.753906 547.050781 C 192.164062 548.375 196.519531 552.824219 198.457031 558.046875 C 200.394531 563.273438 200.097656 569.160156 198.382812 574.464844 C 197.195312 578.136719 195.324219 582.535156 192.726562 585.4375 C 189.855469 588.65625 187.691406 584.035156 186.472656 581.53125 C 184.867188 578.199219 183.710938 574.71875 183.011719 571.085938 C 182.3125 567.457031 182.089844 563.792969 182.34375 560.105469 C 182.621094 555.933594 183.527344 551.902344 185.0625 548.015625 Z M 185.0625 548.015625 " fill-opacity="1" fill-rule="nonzero"/><path fill="#82ff44" d="M 202.101562 565.0625 C 202.234375 564.65625 202.40625 564.214844 202.789062 564.03125 C 203.097656 563.917969 203.410156 563.902344 203.726562 563.988281 C 209.210938 564.964844 213.84375 569.121094 216.117188 574.210938 C 218.386719 579.304688 218.46875 585.199219 217.097656 590.597656 C 216.148438 594.335938 214.566406 598.839844 212.171875 601.914062 C 209.515625 605.308594 207.058594 600.835938 205.671875 598.417969 C 203.855469 595.195312 202.476562 591.796875 201.542969 588.21875 C 200.613281 584.640625 200.152344 581 200.167969 577.304688 C 200.175781 573.121094 200.820312 569.042969 202.101562 565.0625 Z M 202.101562 565.0625 " fill-opacity="1" fill-rule="nonzero"/><path fill="#82ff44" d="M 220.207031 578.355469 C 220.328125 577.984375 220.484375 577.578125 220.835938 577.410156 C 221.117188 577.304688 221.402344 577.292969 221.695312 577.371094 C 226.722656 578.269531 230.972656 582.082031 233.054688 586.742188 C 235.136719 591.402344 235.210938 596.808594 233.949219 601.765625 C 233.078125 605.191406 231.628906 609.320312 229.425781 612.136719 C 226.988281 615.25 224.738281 611.148438 223.476562 608.929688 C 221.808594 605.980469 220.546875 602.863281 219.691406 599.582031 C 218.835938 596.300781 218.414062 592.964844 218.429688 589.574219 C 218.441406 585.742188 219.03125 582.003906 220.207031 578.355469 Z M 220.207031 578.355469 " fill-opacity="1" fill-rule="nonzero"/><g clip-path="url(#fca6795076)"><path fill="#82ff44" d="M 150.765625 587.296875 C 150.394531 587.507812 149.992188 587.761719 149.886719 588.175781 C 149.84375 588.5 149.894531 588.808594 150.046875 589.101562 C 152.0625 594.292969 157.046875 598.023438 162.484375 599.253906 C 167.917969 600.484375 173.703125 599.40625 178.730469 596.996094 C 182.207031 595.332031 186.304688 592.894531 188.847656 589.929688 C 191.648438 586.65625 186.785156 585.125 184.140625 584.246094 C 180.628906 583.09375 177.03125 582.414062 173.339844 582.199219 C 169.652344 581.988281 165.996094 582.253906 162.375 582.996094 C 158.285156 583.828125 154.414062 585.261719 150.765625 587.296875 Z M 150.765625 587.296875 " fill-opacity="1" fill-rule="nonzero"/></g><path fill="#82ff44" d="M 177.265625 559.15625 C 173.59375 553.601562 168.1875 549.386719 162.394531 546.101562 C 159.929688 544.703125 157.046875 543.425781 154.359375 544.308594 C 153.941406 554.90625 158.539062 565.59375 166.515625 572.574219 C 168.882812 574.644531 179.109375 581.507812 181.269531 577.320312 C 183.875 572.257812 180.035156 563.335938 177.265625 559.15625 Z M 177.265625 559.15625 " fill-opacity="1" fill-rule="nonzero"/><path fill="#00663e" d="M 243.621094 618.394531 C 238.144531 617.019531 232.835938 615.164062 227.695312 612.832031 C 228.34375 610.226562 228.765625 607.582031 228.960938 604.902344 C 229.15625 602.226562 229.117188 599.546875 228.851562 596.875 C 228.585938 594.203125 228.089844 591.570312 227.367188 588.984375 C 226.648438 586.398438 225.710938 583.890625 224.558594 581.464844 C 224.027344 580.363281 222.214844 580.992188 222.75 582.109375 C 223.855469 584.417969 224.757812 586.804688 225.453125 589.269531 C 226.152344 591.734375 226.636719 594.242188 226.90625 596.789062 C 227.179688 599.335938 227.230469 601.886719 227.066406 604.441406 C 226.902344 607 226.519531 609.523438 225.925781 612.015625 C 220.4375 609.402344 215.191406 606.371094 210.1875 602.921875 C 210.222656 602.851562 210.246094 602.777344 210.265625 602.699219 C 210.976562 599.851562 211.441406 596.964844 211.652344 594.039062 C 211.867188 591.113281 211.828125 588.191406 211.535156 585.273438 C 211.246094 582.351562 210.703125 579.480469 209.917969 576.65625 C 209.128906 573.828125 208.105469 571.089844 206.84375 568.441406 C 206.269531 567.242188 204.292969 567.929688 204.875 569.144531 C 206.078125 571.65625 207.058594 574.25 207.820312 576.929688 C 208.578125 579.609375 209.109375 582.332031 209.40625 585.101562 C 209.703125 587.867188 209.765625 590.640625 209.589844 593.421875 C 209.417969 596.199219 209.011719 598.945312 208.371094 601.652344 C 207.878906 601.300781 207.386719 600.949219 206.898438 600.589844 C 201.09375 596.308594 195.632812 591.628906 190.503906 586.554688 C 190.636719 586.429688 190.726562 586.28125 190.78125 586.109375 C 191.675781 583.3125 192.324219 580.464844 192.722656 577.558594 C 193.125 574.652344 193.277344 571.734375 193.171875 568.800781 C 193.070312 565.871094 192.71875 562.96875 192.113281 560.097656 C 191.511719 557.226562 190.667969 554.429688 189.578125 551.703125 C 189.078125 550.464844 187.0625 551.03125 187.5625 552.277344 C 188.601562 554.863281 189.414062 557.519531 190 560.246094 C 190.585938 562.972656 190.9375 565.730469 191.054688 568.515625 C 191.171875 571.304688 191.054688 574.082031 190.699219 576.847656 C 190.34375 579.613281 189.753906 582.328125 188.9375 584.996094 C 184.058594 580.082031 179.449219 574.886719 175.058594 569.527344 C 169.507812 562.753906 164.277344 555.726562 159.175781 548.613281 C 158.386719 547.519531 156.726562 548.792969 157.515625 549.886719 C 166.699219 562.683594 176.308594 575.246094 187.429688 586.433594 C 184.925781 587.554688 182.34375 588.457031 179.691406 589.148438 C 177.035156 589.835938 174.339844 590.296875 171.609375 590.535156 C 168.875 590.769531 166.140625 590.777344 163.40625 590.554688 C 160.675781 590.332031 157.976562 589.886719 155.320312 589.210938 C 154.011719 588.878906 153.726562 590.953125 155.019531 591.28125 C 157.839844 591.992188 160.699219 592.457031 163.601562 592.675781 C 166.503906 592.894531 169.402344 592.867188 172.296875 592.589844 C 175.191406 592.308594 178.042969 591.785156 180.847656 591.019531 C 183.65625 590.25 186.375 589.25 189.011719 588.015625 C 194.316406 593.257812 199.976562 598.085938 205.988281 602.5 C 203.453125 603.550781 200.847656 604.382812 198.171875 605 C 195.496094 605.613281 192.789062 606 190.046875 606.160156 C 187.308594 606.320312 184.574219 606.25 181.84375 605.949219 C 179.117188 605.652344 176.433594 605.125 173.792969 604.375 C 172.496094 604.007812 172.152344 606.074219 173.4375 606.4375 C 176.257812 607.234375 179.125 607.78125 182.042969 608.078125 C 184.957031 608.378906 187.878906 608.421875 190.804688 608.21875 C 193.726562 608.011719 196.613281 607.554688 199.457031 606.847656 C 202.300781 606.144531 205.066406 605.199219 207.75 604.015625 C 207.816406 603.984375 207.882812 603.949219 207.945312 603.902344 C 212.289062 606.957031 216.8125 609.714844 221.519531 612.167969 C 222.261719 612.558594 223.011719 612.929688 223.757812 613.300781 C 221.511719 614.929688 219.144531 616.355469 216.65625 617.582031 C 214.167969 618.808594 211.59375 619.816406 208.933594 620.605469 C 206.273438 621.394531 203.566406 621.953125 200.8125 622.285156 C 198.054688 622.613281 195.292969 622.710938 192.523438 622.570312 C 191.179688 622.503906 191.308594 624.589844 192.636719 624.660156 C 195.566406 624.804688 198.484375 624.691406 201.394531 624.332031 C 204.304688 623.96875 207.160156 623.355469 209.964844 622.5 C 212.769531 621.640625 215.480469 620.550781 218.09375 619.222656 C 220.710938 617.898438 223.195312 616.355469 225.542969 614.601562 C 225.664062 614.511719 225.761719 614.40625 225.835938 614.277344 C 231.472656 616.894531 237.304688 618.957031 243.332031 620.464844 C 244.628906 620.792969 244.917969 618.714844 243.621094 618.394531 Z M 243.621094 618.394531 " fill-opacity="1" fill-rule="nonzero"/><path fill="#00bb5f" d="M 586.960938 453.621094 C 587.511719 453.679688 588.125 453.78125 588.46875 454.222656 C 588.71875 454.550781 588.757812 454.992188 588.769531 455.410156 C 588.992188 462.691406 584.945312 469.742188 579.054688 474.019531 C 573.164062 478.296875 565.660156 479.992188 558.390625 479.695312 C 553.355469 479.492188 547.1875 478.683594 542.601562 476.433594 C 537.546875 473.953125 542.601562 469.601562 545.316406 467.1875 C 548.9375 463.988281 552.910156 461.3125 557.230469 459.152344 C 561.546875 456.992188 566.074219 455.425781 570.800781 454.449219 C 576.144531 453.332031 581.53125 453.058594 586.960938 453.621094 Z M 586.960938 453.621094 " fill-opacity="1" fill-rule="nonzero"/><path fill="#00bb5f" d="M 573.90625 485.882812 C 574.433594 486.066406 575.007812 486.300781 575.25 486.808594 C 575.425781 487.1875 575.359375 487.625 575.28125 488.035156 C 573.875 495.179688 568.339844 501.140625 561.644531 503.988281 C 554.949219 506.835938 547.253906 506.800781 540.230469 504.886719 C 535.371094 503.554688 529.535156 501.378906 525.578125 498.160156 C 521.210938 494.605469 527.105469 491.503906 530.296875 489.757812 C 534.542969 487.457031 539.015625 485.738281 543.707031 484.605469 C 548.402344 483.472656 553.164062 482.957031 557.988281 483.070312 C 563.441406 483.179688 568.746094 484.121094 573.90625 485.882812 Z M 573.90625 485.882812 " fill-opacity="1" fill-rule="nonzero"/><path fill="#00bb5f" d="M 541.648438 395.265625 C 541.265625 394.859375 540.8125 394.433594 540.257812 394.429688 C 539.839844 394.429688 539.46875 394.652344 539.136719 394.90625 C 533.207031 399.132812 530.054688 406.632812 530.222656 413.914062 C 530.386719 421.195312 533.582031 428.195312 538.222656 433.808594 C 541.433594 437.695312 545.820312 442.125 550.378906 444.40625 C 555.410156 446.925781 555.8125 440.273438 556.085938 436.644531 C 556.433594 431.824219 556.160156 427.039062 555.257812 422.292969 C 554.359375 417.542969 552.867188 412.992188 550.777344 408.632812 C 548.429688 403.703125 545.386719 399.246094 541.648438 395.265625 Z M 541.648438 395.265625 " fill-opacity="1" fill-rule="nonzero"/><path fill="#00bb5f" d="M 529.167969 424.1875 C 528.8125 423.761719 528.390625 423.304688 527.824219 423.265625 C 527.410156 423.234375 527.023438 423.449219 526.667969 423.667969 C 520.480469 427.503906 516.851562 434.78125 516.546875 442.054688 C 516.242188 449.324219 518.980469 456.523438 523.25 462.425781 C 526.203125 466.507812 530.292969 471.210938 534.695312 473.785156 C 539.558594 476.628906 540.382812 470.011719 540.890625 466.40625 C 541.550781 461.617188 541.585938 456.828125 540.992188 452.03125 C 540.402344 447.234375 539.207031 442.59375 537.402344 438.113281 C 535.378906 433.042969 532.636719 428.402344 529.167969 424.1875 Z M 529.167969 424.1875 " fill-opacity="1" fill-rule="nonzero"/><path fill="#00bb5f" d="M 513.585938 449.066406 C 513.261719 448.675781 512.871094 448.257812 512.363281 448.21875 C 511.972656 448.230469 511.617188 448.355469 511.304688 448.59375 C 505.628906 452.105469 502.304688 458.777344 502.027344 465.449219 C 501.746094 472.121094 504.265625 478.714844 508.167969 484.125 C 510.875 487.867188 514.628906 492.179688 518.660156 494.539062 C 523.117188 497.144531 523.878906 491.078125 524.34375 487.773438 C 524.945312 483.386719 524.976562 478.992188 524.4375 474.597656 C 523.894531 470.199219 522.796875 465.945312 521.144531 461.835938 C 519.289062 457.1875 516.769531 452.929688 513.585938 449.066406 Z M 513.585938 449.066406 " fill-opacity="1" fill-rule="nonzero"/><path fill="#00bb5f" d="M 602.21875 426.414062 C 602.769531 426.488281 603.378906 426.609375 603.707031 427.058594 C 603.953125 427.394531 603.972656 427.839844 603.976562 428.253906 C 604.007812 435.539062 599.753906 442.472656 593.75 446.585938 C 587.742188 450.699219 580.195312 452.191406 572.933594 451.6875 C 567.90625 451.339844 561.753906 450.359375 557.25 447.984375 C 552.269531 445.363281 557.4375 441.160156 560.222656 438.816406 C 563.933594 435.722656 567.976562 433.15625 572.355469 431.117188 C 576.734375 429.078125 581.300781 427.636719 586.054688 426.792969 C 591.421875 425.828125 596.808594 425.703125 602.21875 426.414062 Z M 602.21875 426.414062 " fill-opacity="1" fill-rule="nonzero"/><g clip-path="url(#7b016db892)"><path fill="#00bb5f" d="M 556.476562 405.03125 C 558.269531 396.511719 562.796875 388.785156 568.242188 382.003906 C 570.558594 379.117188 573.453125 376.171875 577.144531 375.949219 C 582.746094 388.617188 582.324219 403.8125 575.996094 416.140625 C 574.125 419.792969 565.019531 433.0625 560.367188 429.019531 C 554.757812 424.132812 555.132812 411.441406 556.476562 405.03125 Z M 556.476562 405.03125 " fill-opacity="1" fill-rule="nonzero"/></g><path fill="#00663e" d="M 504.441406 508.988281 C 510.425781 504.671875 515.980469 499.855469 521.097656 494.539062 C 519.054688 491.6875 517.269531 488.683594 515.746094 485.523438 C 514.21875 482.363281 512.976562 479.097656 512.011719 475.722656 C 511.050781 472.347656 510.382812 468.914062 510.011719 465.425781 C 509.644531 461.9375 509.574219 458.441406 509.804688 454.941406 C 509.917969 453.347656 512.421875 453.238281 512.3125 454.847656 C 512.082031 458.1875 512.140625 461.519531 512.480469 464.847656 C 512.820312 468.175781 513.4375 471.453125 514.335938 474.675781 C 515.234375 477.898438 516.402344 481.019531 517.832031 484.042969 C 519.261719 487.070312 520.941406 489.949219 522.863281 492.6875 C 528.261719 486.867188 533.171875 480.65625 537.585938 474.058594 C 537.515625 473.988281 537.453125 473.914062 537.398438 473.832031 C 535.160156 470.722656 533.210938 467.441406 531.539062 463.988281 C 529.871094 460.539062 528.511719 456.972656 527.457031 453.285156 C 526.40625 449.601562 525.675781 445.851562 525.269531 442.042969 C 524.867188 438.230469 524.789062 434.410156 525.042969 430.585938 C 525.164062 428.847656 527.894531 428.730469 527.773438 430.488281 C 527.527344 434.117188 527.589844 437.738281 527.957031 441.355469 C 528.324219 444.972656 528.996094 448.53125 529.96875 452.035156 C 530.941406 455.539062 532.203125 458.933594 533.753906 462.222656 C 535.304688 465.511719 537.117188 468.644531 539.199219 471.625 C 539.628906 470.964844 540.058594 470.300781 540.476562 469.636719 C 545.460938 461.636719 549.839844 453.316406 553.621094 444.683594 C 553.402344 444.59375 553.21875 444.457031 553.070312 444.273438 C 550.636719 441.3125 548.480469 438.164062 546.589844 434.828125 C 544.703125 431.496094 543.113281 428.023438 541.828125 424.414062 C 540.539062 420.804688 539.570312 417.109375 538.917969 413.332031 C 538.269531 409.554688 537.949219 405.75 537.957031 401.917969 C 537.957031 400.175781 540.683594 399.878906 540.671875 401.640625 C 540.660156 405.285156 540.957031 408.902344 541.558594 412.496094 C 542.164062 416.089844 543.066406 419.605469 544.265625 423.046875 C 545.46875 426.484375 546.953125 429.796875 548.71875 432.984375 C 550.484375 436.171875 552.507812 439.183594 554.785156 442.027344 C 558.34375 433.707031 561.433594 425.179688 564.195312 416.5625 C 567.675781 405.660156 570.636719 394.601562 573.410156 383.5 C 573.835938 381.792969 576.464844 382.539062 576.039062 384.246094 C 571.054688 404.210938 565.433594 424.101562 557.328125 443.054688 C 560.90625 443.207031 564.476562 443.058594 568.03125 442.613281 C 571.585938 442.167969 575.082031 441.429688 578.511719 440.398438 C 581.945312 439.367188 585.265625 438.054688 588.476562 436.46875 C 591.691406 434.878906 594.75 433.03125 597.652344 430.929688 C 599.078125 429.898438 600.421875 432.273438 599.015625 433.300781 C 595.929688 435.527344 592.679688 437.46875 589.265625 439.136719 C 585.847656 440.800781 582.3125 442.164062 578.664062 443.222656 C 575.011719 444.28125 571.300781 445.023438 567.523438 445.445312 C 563.746094 445.867188 559.960938 445.960938 556.167969 445.734375 C 552.25 454.65625 547.707031 463.246094 542.535156 471.5 C 546.117188 471.554688 549.683594 471.3125 553.226562 470.765625 C 556.769531 470.222656 560.242188 469.386719 563.644531 468.261719 C 567.050781 467.132812 570.335938 465.730469 573.503906 464.054688 C 576.671875 462.375 579.679688 460.445312 582.523438 458.261719 C 583.917969 457.1875 585.332031 459.53125 583.949219 460.59375 C 580.90625 462.921875 577.6875 464.96875 574.289062 466.738281 C 570.890625 468.507812 567.367188 469.972656 563.714844 471.132812 C 560.066406 472.292969 556.34375 473.132812 552.546875 473.648438 C 548.753906 474.164062 544.941406 474.351562 541.113281 474.210938 C 541.015625 474.207031 540.917969 474.191406 540.820312 474.167969 C 537.019531 479.972656 532.851562 485.503906 528.320312 490.757812 C 527.605469 491.585938 526.875 492.398438 526.140625 493.207031 C 529.652344 494.101562 533.21875 494.691406 536.832031 494.980469 C 540.449219 495.269531 544.058594 495.253906 547.671875 494.929688 C 551.285156 494.605469 554.84375 493.976562 558.347656 493.046875 C 561.851562 492.121094 565.253906 490.902344 568.554688 489.394531 C 570.152344 488.664062 571.003906 491.265625 569.421875 491.988281 C 565.933594 493.574219 562.332031 494.847656 558.625 495.808594 C 554.917969 496.773438 551.152344 497.410156 547.335938 497.71875 C 543.515625 498.03125 539.699219 498.011719 535.882812 497.664062 C 532.070312 497.3125 528.3125 496.640625 524.613281 495.640625 C 524.425781 495.589844 524.25 495.503906 524.097656 495.382812 C 518.503906 501.289062 512.40625 506.617188 505.800781 511.367188 C 504.375 512.382812 503.027344 510.003906 504.441406 508.988281 Z M 504.441406 508.988281 " fill-opacity="1" fill-rule="nonzero"/><path fill="#82ff44" d="M 604.417969 507.710938 C 604.792969 507.90625 605.203125 508.160156 605.3125 508.5625 C 605.375 508.886719 605.332031 509.199219 605.191406 509.496094 C 603.304688 514.738281 598.429688 518.605469 593.03125 519.984375 C 587.632812 521.363281 581.816406 520.449219 576.726562 518.191406 C 573.207031 516.621094 569.039062 514.300781 566.421875 511.40625 C 563.53125 508.210938 568.347656 506.546875 570.964844 505.597656 C 574.445312 504.347656 578.027344 503.5625 581.710938 503.25 C 585.394531 502.933594 589.054688 503.097656 592.695312 503.742188 C 596.808594 504.453125 600.71875 505.777344 604.417969 507.710938 Z M 604.417969 507.710938 " fill-opacity="1" fill-rule="nonzero"/><path fill="#82ff44" d="M 586.035156 526.972656 C 586.355469 527.253906 586.707031 527.582031 586.722656 528.007812 C 586.707031 528.335938 586.601562 528.628906 586.398438 528.886719 C 583.378906 533.574219 577.761719 536.25 572.191406 536.382812 C 566.621094 536.515625 561.164062 534.316406 556.707031 530.960938 C 553.628906 528.644531 550.089844 525.445312 548.195312 522.039062 C 546.089844 518.273438 551.160156 517.734375 553.925781 517.394531 C 557.59375 516.957031 561.257812 517 564.917969 517.519531 C 568.574219 518.039062 572.105469 519.019531 575.507812 520.464844 C 579.355469 522.085938 582.863281 524.257812 586.035156 526.972656 Z M 586.035156 526.972656 " fill-opacity="1" fill-rule="nonzero"/><path fill="#82ff44" d="M 588.65625 453.386719 C 588.496094 452.992188 588.296875 452.5625 587.898438 452.402344 C 587.585938 452.308594 587.273438 452.316406 586.964844 452.421875 C 581.554688 453.75 577.195312 458.195312 575.257812 463.425781 C 573.320312 468.652344 573.617188 474.53125 575.335938 479.835938 C 576.523438 483.507812 578.390625 487.910156 580.992188 490.824219 C 583.859375 494.039062 586.023438 489.417969 587.242188 486.914062 C 588.851562 483.582031 590.007812 480.101562 590.710938 476.464844 C 591.414062 472.832031 591.636719 469.167969 591.382812 465.476562 C 591.101562 461.304688 590.191406 457.277344 588.65625 453.386719 Z M 588.65625 453.386719 " fill-opacity="1" fill-rule="nonzero"/><path fill="#82ff44" d="M 571.617188 470.4375 C 571.484375 470.03125 571.3125 469.585938 570.929688 469.402344 C 570.621094 469.289062 570.308594 469.277344 569.992188 469.363281 C 564.503906 470.339844 559.871094 474.496094 557.601562 479.585938 C 555.328125 484.671875 555.246094 490.570312 556.617188 495.972656 C 557.566406 499.707031 559.148438 504.214844 561.546875 507.285156 C 564.199219 510.679688 566.65625 506.210938 568.042969 503.789062 C 569.863281 500.570312 571.242188 497.167969 572.175781 493.589844 C 573.105469 490.007812 573.566406 486.371094 573.550781 482.667969 C 573.539062 478.492188 572.894531 474.414062 571.617188 470.4375 Z M 571.617188 470.4375 " fill-opacity="1" fill-rule="nonzero"/><path fill="#82ff44" d="M 553.519531 483.730469 C 553.398438 483.359375 553.242188 482.953125 552.890625 482.78125 C 552.609375 482.679688 552.324219 482.667969 552.03125 482.746094 C 547.003906 483.640625 542.757812 487.453125 540.671875 492.117188 C 538.589844 496.78125 538.515625 502.183594 539.777344 507.140625 C 540.648438 510.566406 542.097656 514.695312 544.300781 517.511719 C 546.738281 520.625 548.988281 516.527344 550.253906 514.308594 C 551.921875 511.355469 553.183594 508.238281 554.035156 504.960938 C 554.890625 501.679688 555.3125 498.34375 555.296875 494.953125 C 555.289062 491.121094 554.695312 487.378906 553.519531 483.730469 Z M 553.519531 483.730469 " fill-opacity="1" fill-rule="nonzero"/><path fill="#82ff44" d="M 622.949219 492.671875 C 623.320312 492.878906 623.722656 493.136719 623.828125 493.550781 C 623.878906 493.875 623.828125 494.183594 623.683594 494.476562 C 621.648438 499.667969 616.667969 503.398438 611.234375 504.625 C 605.796875 505.855469 600.011719 504.777344 594.984375 502.367188 C 591.507812 500.703125 587.410156 498.265625 584.867188 495.300781 C 582.066406 492.027344 586.929688 490.496094 589.574219 489.621094 C 593.085938 488.464844 596.6875 487.785156 600.375 487.570312 C 604.066406 487.359375 607.71875 487.625 611.339844 488.367188 C 615.433594 489.199219 619.304688 490.632812 622.949219 492.671875 Z M 622.949219 492.671875 " fill-opacity="1" fill-rule="nonzero"/><path fill="#82ff44" d="M 596.449219 464.527344 C 600.125 458.976562 605.527344 454.761719 611.320312 451.472656 C 613.785156 450.078125 616.667969 448.796875 619.359375 449.679688 C 619.773438 460.277344 615.179688 470.964844 607.199219 477.945312 C 604.835938 480.011719 594.605469 486.875 592.445312 482.691406 C 589.832031 477.632812 593.683594 468.710938 596.449219 464.527344 Z M 596.449219 464.527344 " fill-opacity="1" fill-rule="nonzero"/><path fill="#00663e" d="M 530.09375 523.769531 C 535.570312 522.390625 540.878906 520.539062 546.023438 518.207031 C 545.371094 515.601562 544.949219 512.957031 544.753906 510.277344 C 544.5625 507.601562 544.597656 504.921875 544.863281 502.25 C 545.132812 499.578125 545.625 496.949219 546.347656 494.359375 C 547.066406 491.773438 548.003906 489.265625 549.160156 486.839844 C 549.6875 485.738281 551.5 486.367188 550.96875 487.480469 C 549.863281 489.792969 548.960938 492.179688 548.261719 494.644531 C 547.5625 497.109375 547.078125 499.613281 546.808594 502.160156 C 546.539062 504.707031 546.484375 507.257812 546.648438 509.816406 C 546.816406 512.371094 547.195312 514.894531 547.789062 517.386719 C 553.277344 514.773438 558.523438 511.742188 563.527344 508.296875 C 563.496094 508.226562 563.46875 508.15625 563.449219 508.082031 C 562.738281 505.238281 562.277344 502.351562 562.0625 499.425781 C 561.847656 496.5 561.890625 493.578125 562.179688 490.65625 C 562.472656 487.738281 563.011719 484.867188 563.800781 482.039062 C 564.585938 479.214844 565.609375 476.476562 566.871094 473.828125 C 567.445312 472.625 569.425781 473.3125 568.839844 474.527344 C 567.640625 477.039062 566.65625 479.636719 565.898438 482.3125 C 565.136719 484.992188 564.609375 487.714844 564.3125 490.484375 C 564.011719 493.253906 563.953125 496.027344 564.125 498.804688 C 564.296875 501.582031 564.707031 504.328125 565.34375 507.039062 C 565.835938 506.6875 566.332031 506.335938 566.820312 505.976562 C 572.621094 501.691406 578.085938 497.015625 583.210938 491.941406 C 583.082031 491.816406 582.988281 491.664062 582.9375 491.492188 C 582.042969 488.699219 581.394531 485.847656 580.992188 482.941406 C 580.589844 480.035156 580.441406 477.117188 580.542969 474.183594 C 580.644531 471.253906 580.996094 468.351562 581.601562 465.480469 C 582.203125 462.609375 583.050781 459.8125 584.136719 457.085938 C 584.636719 455.851562 586.652344 456.414062 586.152344 457.660156 C 585.113281 460.246094 584.300781 462.90625 583.714844 465.632812 C 583.128906 468.359375 582.777344 471.113281 582.660156 473.902344 C 582.542969 476.6875 582.664062 479.464844 583.019531 482.230469 C 583.375 484.996094 583.960938 487.714844 584.78125 490.378906 C 589.660156 485.464844 594.265625 480.269531 598.65625 474.910156 C 604.210938 468.140625 609.4375 461.109375 614.542969 454 C 615.328125 452.902344 616.988281 454.175781 616.203125 455.273438 C 607.015625 468.066406 597.40625 480.632812 586.289062 491.816406 C 588.792969 492.9375 591.371094 493.839844 594.027344 494.527344 C 596.679688 495.214844 599.375 495.675781 602.109375 495.910156 C 604.839844 496.148438 607.574219 496.152344 610.308594 495.929688 C 613.039062 495.707031 615.738281 495.257812 618.394531 494.582031 C 619.699219 494.25 619.984375 496.324219 618.695312 496.652344 C 615.875 497.363281 613.011719 497.828125 610.113281 498.046875 C 607.210938 498.265625 604.3125 498.238281 601.417969 497.960938 C 598.523438 497.683594 595.671875 497.160156 592.863281 496.390625 C 590.058594 495.625 587.335938 494.625 584.703125 493.386719 C 579.398438 498.628906 573.738281 503.457031 567.726562 507.871094 C 570.261719 508.921875 572.867188 509.753906 575.542969 510.367188 C 578.214844 510.980469 580.921875 511.371094 583.664062 511.53125 C 586.402344 511.6875 589.136719 511.621094 591.863281 511.320312 C 594.59375 511.023438 597.277344 510.496094 599.917969 509.75 C 601.214844 509.378906 601.558594 511.445312 600.273438 511.8125 C 597.453125 512.605469 594.582031 513.152344 591.667969 513.449219 C 588.75 513.75 585.832031 513.792969 582.90625 513.589844 C 579.980469 513.382812 577.097656 512.925781 574.253906 512.21875 C 571.40625 511.515625 568.644531 510.570312 565.960938 509.386719 C 565.890625 509.355469 565.824219 509.316406 565.765625 509.273438 C 561.421875 512.328125 556.898438 515.085938 552.191406 517.539062 C 551.441406 517.929688 550.695312 518.304688 549.949219 518.671875 C 552.195312 520.300781 554.566406 521.730469 557.054688 522.957031 C 559.542969 524.1875 562.117188 525.195312 564.777344 525.984375 C 567.4375 526.777344 570.148438 527.335938 572.902344 527.667969 C 575.65625 528 578.421875 528.097656 581.191406 527.957031 C 582.535156 527.890625 582.410156 529.976562 581.078125 530.046875 C 578.148438 530.1875 575.230469 530.078125 572.324219 529.714844 C 569.414062 529.347656 566.558594 528.738281 563.753906 527.878906 C 560.953125 527.023438 558.242188 525.929688 555.628906 524.605469 C 553.011719 523.277344 550.53125 521.738281 548.183594 519.980469 C 548.0625 519.894531 547.964844 519.785156 547.890625 519.65625 C 542.253906 522.273438 536.421875 524.335938 530.394531 525.847656 C 529.085938 526.164062 528.800781 524.089844 530.09375 523.769531 Z M 530.09375 523.769531 " fill-opacity="1" fill-rule="nonzero"/><path fill="#3c415e" d="M 519.605469 406.1875 L 242.601562 406.1875 C 228.746094 406.1875 217.476562 417.441406 217.476562 431.273438 L 217.476562 629.992188 C 217.476562 630.351562 217.511719 630.707031 217.582031 631.058594 C 217.652344 631.410156 217.753906 631.75 217.890625 632.082031 C 218.027344 632.414062 218.195312 632.726562 218.394531 633.027344 C 218.59375 633.324219 218.820312 633.601562 219.074219 633.855469 C 219.328125 634.109375 219.601562 634.332031 219.898438 634.53125 C 220.199219 634.730469 220.511719 634.898438 220.84375 635.039062 C 221.175781 635.175781 221.515625 635.277344 221.867188 635.347656 C 222.21875 635.417969 222.574219 635.453125 222.929688 635.453125 L 539.289062 635.453125 C 539.644531 635.453125 540 635.417969 540.351562 635.347656 C 540.703125 635.277344 541.042969 635.175781 541.375 635.039062 C 541.707031 634.898438 542.019531 634.730469 542.320312 634.53125 C 542.617188 634.332031 542.890625 634.109375 543.144531 633.855469 C 543.398438 633.601562 543.625 633.324219 543.824219 633.027344 C 544.023438 632.726562 544.191406 632.414062 544.328125 632.082031 C 544.464844 631.75 544.566406 631.410156 544.636719 631.058594 C 544.707031 630.707031 544.742188 630.351562 544.742188 629.992188 L 544.742188 431.273438 C 544.742188 417.441406 533.464844 406.1875 519.605469 406.1875 Z M 239.292969 597.238281 L 239.292969 433.480469 C 239.292969 433.121094 239.328125 432.765625 239.398438 432.414062 C 239.46875 432.0625 239.570312 431.722656 239.707031 431.390625 C 239.847656 431.058594 240.015625 430.746094 240.210938 430.449219 C 240.410156 430.148438 240.636719 429.875 240.890625 429.621094 C 241.144531 429.367188 241.417969 429.140625 241.71875 428.941406 C 242.015625 428.742188 242.328125 428.574219 242.660156 428.4375 C 242.992188 428.300781 243.332031 428.195312 243.683594 428.128906 C 244.035156 428.058594 244.386719 428.023438 244.746094 428.023438 L 517.46875 428.023438 C 517.828125 428.023438 518.183594 428.058594 518.535156 428.128906 C 518.886719 428.195312 519.226562 428.300781 519.558594 428.4375 C 519.886719 428.574219 520.203125 428.742188 520.5 428.941406 C 520.796875 429.140625 521.074219 429.367188 521.328125 429.621094 C 521.578125 429.875 521.804688 430.148438 522.003906 430.449219 C 522.203125 430.746094 522.371094 431.058594 522.507812 431.390625 C 522.644531 431.722656 522.75 432.0625 522.820312 432.414062 C 522.890625 432.765625 522.925781 433.121094 522.925781 433.480469 L 522.925781 597.238281 C 522.925781 597.59375 522.890625 597.949219 522.820312 598.300781 C 522.75 598.652344 522.644531 598.996094 522.507812 599.324219 C 522.371094 599.65625 522.203125 599.972656 522.003906 600.269531 C 521.804688 600.566406 521.578125 600.84375 521.328125 601.097656 C 521.074219 601.347656 520.796875 601.574219 520.5 601.773438 C 520.203125 601.972656 519.886719 602.140625 519.558594 602.277344 C 519.226562 602.414062 518.886719 602.519531 518.535156 602.589844 C 518.183594 602.660156 517.828125 602.695312 517.46875 602.695312 L 244.746094 602.695312 C 244.386719 602.695312 244.035156 602.660156 243.683594 602.589844 C 243.332031 602.519531 242.992188 602.414062 242.660156 602.277344 C 242.328125 602.140625 242.015625 601.972656 241.71875 601.773438 C 241.417969 601.574219 241.144531 601.347656 240.890625 601.097656 C 240.636719 600.84375 240.410156 600.566406 240.210938 600.269531 C 240.015625 599.972656 239.847656 599.65625 239.707031 599.324219 C 239.570312 598.996094 239.46875 598.652344 239.398438 598.300781 C 239.328125 597.949219 239.292969 597.59375 239.292969 597.238281 Z M 239.292969 597.238281 " fill-opacity="1" fill-rule="nonzero"/><path fill="#738598" d="M 550.195312 624.535156 L 212.019531 624.535156 C 211.664062 624.535156 211.308594 624.566406 210.957031 624.636719 C 210.605469 624.707031 210.261719 624.8125 209.933594 624.949219 C 209.601562 625.085938 209.285156 625.253906 208.988281 625.453125 C 208.691406 625.652344 208.414062 625.878906 208.160156 626.132812 C 207.910156 626.386719 207.683594 626.660156 207.484375 626.960938 C 207.285156 627.257812 207.117188 627.570312 206.980469 627.902344 C 206.84375 628.234375 206.738281 628.574219 206.667969 628.929688 C 206.601562 629.28125 206.566406 629.632812 206.566406 629.992188 C 206.566406 630.707031 206.601562 631.421875 206.671875 632.132812 C 206.742188 632.847656 206.847656 633.554688 206.988281 634.253906 C 207.128906 634.957031 207.304688 635.648438 207.511719 636.335938 C 207.71875 637.019531 207.960938 637.691406 208.234375 638.351562 C 208.507812 639.015625 208.8125 639.660156 209.152344 640.292969 C 209.488281 640.921875 209.855469 641.535156 210.253906 642.128906 C 210.652344 642.726562 211.078125 643.300781 211.53125 643.851562 C 211.984375 644.40625 212.464844 644.933594 212.96875 645.441406 C 213.476562 645.945312 214.003906 646.425781 214.558594 646.878906 C 215.109375 647.335938 215.683594 647.761719 216.277344 648.160156 C 216.871094 648.554688 217.484375 648.921875 218.117188 649.261719 C 218.746094 649.597656 219.390625 649.90625 220.050781 650.179688 C 220.710938 650.453125 221.382812 650.695312 222.070312 650.902344 C 222.753906 651.109375 223.445312 651.285156 224.148438 651.425781 C 224.847656 651.566406 225.554688 651.671875 226.265625 651.742188 C 226.976562 651.8125 227.691406 651.847656 228.40625 651.847656 L 533.804688 651.847656 C 534.519531 651.847656 535.234375 651.8125 535.945312 651.742188 C 536.65625 651.671875 537.363281 651.566406 538.066406 651.425781 C 538.765625 651.285156 539.457031 651.109375 540.144531 650.902344 C 540.828125 650.695312 541.5 650.453125 542.160156 650.179688 C 542.820312 649.90625 543.464844 649.597656 544.097656 649.261719 C 544.726562 648.921875 545.339844 648.554688 545.933594 648.160156 C 546.527344 647.761719 547.101562 647.335938 547.652344 646.878906 C 548.207031 646.425781 548.734375 645.945312 549.242188 645.441406 C 549.746094 644.933594 550.226562 644.40625 550.679688 643.851562 C 551.132812 643.300781 551.558594 642.726562 551.957031 642.128906 C 552.355469 641.535156 552.722656 640.921875 553.058594 640.292969 C 553.398438 639.660156 553.703125 639.015625 553.976562 638.351562 C 554.25 637.691406 554.492188 637.019531 554.699219 636.335938 C 554.90625 635.648438 555.082031 634.957031 555.222656 634.253906 C 555.359375 633.554688 555.464844 632.847656 555.539062 632.132812 C 555.609375 631.421875 555.644531 630.707031 555.644531 629.992188 C 555.644531 629.636719 555.609375 629.28125 555.539062 628.929688 C 555.472656 628.578125 555.367188 628.234375 555.230469 627.90625 C 555.09375 627.574219 554.925781 627.257812 554.730469 626.960938 C 554.53125 626.664062 554.304688 626.386719 554.050781 626.132812 C 553.796875 625.878906 553.523438 625.652344 553.226562 625.453125 C 552.925781 625.253906 552.613281 625.085938 552.28125 624.949219 C 551.953125 624.8125 551.609375 624.707031 551.261719 624.640625 C 550.910156 624.570312 550.554688 624.535156 550.195312 624.535156 Z M 550.195312 624.535156 " fill-opacity="1" fill-rule="nonzero"/><path fill="#dfe2e2" d="M 359.289062 635.453125 L 402.925781 635.453125 C 403.640625 635.453125 404.351562 635.382812 405.050781 635.242188 C 405.753906 635.101562 406.4375 634.894531 407.097656 634.621094 C 407.761719 634.347656 408.390625 634.011719 408.984375 633.613281 C 409.578125 633.214844 410.132812 632.761719 410.636719 632.253906 C 411.144531 631.746094 411.597656 631.195312 411.992188 630.597656 C 412.390625 630.003906 412.726562 629.375 413.003906 628.710938 C 413.277344 628.050781 413.484375 627.367188 413.621094 626.664062 C 413.761719 625.960938 413.832031 625.25 413.832031 624.535156 L 348.382812 624.535156 C 348.382812 625.25 348.453125 625.960938 348.589844 626.664062 C 348.730469 627.367188 348.9375 628.050781 349.210938 628.710938 C 349.484375 629.375 349.820312 630.003906 350.21875 630.597656 C 350.617188 631.195312 351.070312 631.746094 351.574219 632.253906 C 352.082031 632.761719 352.632812 633.214844 353.226562 633.613281 C 353.824219 634.011719 354.453125 634.347656 355.113281 634.621094 C 355.777344 634.894531 356.457031 635.101562 357.160156 635.242188 C 357.863281 635.382812 358.570312 635.453125 359.289062 635.453125 Z M 359.289062 635.453125 " fill-opacity="1" fill-rule="nonzero"/><path fill="#ffda32" d="M 235.882812 421.207031 L 528.378906 421.207031 L 528.378906 606.804688 L 235.882812 606.804688 Z M 235.882812 421.207031 " fill-opacity="1" fill-rule="nonzero"/><path fill="#faf9f9" d="M 326.949219 493.398438 L 339.617188 493.398438 L 339.617188 556.160156 L 326.949219 556.160156 Z M 326.949219 493.398438 " fill-opacity="1" fill-rule="nonzero"/><path fill="#faf9f9" d="M 422.597656 493.398438 L 435.265625 493.398438 L 435.265625 556.160156 L 422.597656 556.160156 Z M 422.597656 493.398438 " fill-opacity="1" fill-rule="nonzero"/><path fill="#faf9f9" d="M 391.136719 493.398438 L 403.808594 493.398438 L 403.808594 556.160156 L 391.136719 556.160156 Z M 391.136719 493.398438 " fill-opacity="1" fill-rule="nonzero"/><path fill="#faf9f9" d="M 358.410156 493.398438 L 371.078125 493.398438 L 371.078125 556.160156 L 358.410156 556.160156 Z M 358.410156 493.398438 " fill-opacity="1" fill-rule="nonzero"/><path fill="#738598" d="M 320.617188 551.40625 L 441.601562 551.40625 L 441.601562 570.421875 L 320.617188 570.421875 Z M 320.617188 551.40625 " fill-opacity="1" fill-rule="nonzero"/><path fill="#738598" d="M 441.601562 484.210938 L 320.617188 484.210938 L 381.109375 446.171875 Z M 441.601562 484.210938 " fill-opacity="1" fill-rule="nonzero"/><path fill="#3c415e" d="M 320.617188 484.210938 L 441.601562 484.210938 L 441.601562 496.886719 L 320.617188 496.886719 Z M 320.617188 484.210938 " fill-opacity="1" fill-rule="nonzero"/><path fill="#3c415e" d="M 314.28125 564.085938 L 447.933594 564.085938 L 447.933594 579.933594 L 314.28125 579.933594 Z M 314.28125 564.085938 " fill-opacity="1" fill-rule="nonzero"/><path fill="#e59d00" d="M 600.195312 626.855469 C 600.195312 659.742188 567.875 657.855469 527.738281 657.855469 C 487.605469 657.855469 455.28125 659.472656 455.28125 626.855469 C 455.28125 593.96875 487.605469 539.246094 527.738281 539.246094 C 567.875 539.515625 600.195312 594.238281 600.195312 626.855469 Z M 600.195312 626.855469 " fill-opacity="1" fill-rule="nonzero"/><path fill="#e59d00" d="M 492.453125 505.539062 C 492.453125 489.636719 508.34375 490.441406 527.738281 490.441406 C 547.132812 490.441406 563.027344 489.636719 563.027344 505.539062 C 563.027344 521.441406 547.132812 547.402344 527.738281 547.402344 C 508.34375 547.402344 492.453125 521.457031 492.453125 505.539062 Z M 492.453125 505.539062 " fill-opacity="1" fill-rule="nonzero"/><path fill="#aa7d00" d="M 558.714844 542.480469 C 558.71875 542.800781 558.6875 543.113281 558.625 543.429688 C 558.566406 543.742188 558.472656 544.046875 558.351562 544.339844 C 558.230469 544.636719 558.082031 544.914062 557.90625 545.179688 C 557.726562 545.445312 557.527344 545.691406 557.300781 545.917969 C 557.078125 546.140625 556.832031 546.34375 556.566406 546.519531 C 556.300781 546.699219 556.019531 546.847656 555.726562 546.96875 C 555.433594 547.089844 555.128906 547.179688 554.816406 547.242188 C 554.503906 547.304688 554.1875 547.332031 553.867188 547.332031 L 501.609375 547.332031 C 501.292969 547.332031 500.976562 547.304688 500.664062 547.242188 C 500.351562 547.179688 500.046875 547.089844 499.753906 546.96875 C 499.457031 546.847656 499.179688 546.699219 498.914062 546.519531 C 498.648438 546.34375 498.402344 546.140625 498.175781 545.917969 C 497.953125 545.691406 497.75 545.445312 497.574219 545.179688 C 497.398438 544.914062 497.25 544.636719 497.125 544.339844 C 497.003906 544.046875 496.914062 543.742188 496.851562 543.429688 C 496.792969 543.113281 496.761719 542.800781 496.761719 542.480469 L 496.761719 541.136719 C 496.761719 540.816406 496.792969 540.5 496.851562 540.1875 C 496.914062 539.875 497.003906 539.570312 497.125 539.273438 C 497.25 538.980469 497.398438 538.699219 497.574219 538.433594 C 497.75 538.167969 497.953125 537.921875 498.175781 537.699219 C 498.402344 537.472656 498.648438 537.269531 498.914062 537.09375 C 499.179688 536.917969 499.457031 536.769531 499.753906 536.648438 C 500.046875 536.527344 500.351562 536.433594 500.664062 536.371094 C 500.976562 536.3125 501.292969 536.28125 501.609375 536.28125 L 554.136719 536.28125 C 554.457031 536.28125 554.769531 536.3125 555.085938 536.371094 C 555.398438 536.433594 555.699219 536.527344 555.996094 536.648438 C 556.289062 536.769531 556.570312 536.917969 556.835938 537.09375 C 557.101562 537.269531 557.34375 537.472656 557.570312 537.699219 C 557.796875 537.921875 557.996094 538.167969 558.175781 538.433594 C 558.351562 538.699219 558.5 538.980469 558.621094 539.273438 C 558.742188 539.570312 558.832031 539.875 558.894531 540.1875 C 558.957031 540.5 558.984375 540.816406 558.984375 541.136719 L 558.984375 542.480469 Z M 558.714844 542.480469 " fill-opacity="1" fill-rule="nonzero"/><path fill="#aa7d00" d="M 550.59375 581.875 C 551.34375 582.625 552.054688 583.410156 552.726562 584.226562 C 553.398438 585.046875 554.027344 585.898438 554.617188 586.777344 C 555.203125 587.660156 555.746094 588.566406 556.246094 589.5 C 556.746094 590.433594 557.195312 591.390625 557.601562 592.371094 C 558.007812 593.347656 558.363281 594.34375 558.671875 595.359375 C 558.976562 596.375 559.234375 597.398438 559.441406 598.4375 C 559.648438 599.476562 559.804688 600.523438 559.90625 601.578125 C 560.011719 602.632812 560.0625 603.691406 560.0625 604.75 C 560.0625 605.808594 560.011719 606.867188 559.90625 607.921875 C 559.804688 608.972656 559.648438 610.019531 559.441406 611.058594 C 559.234375 612.097656 558.976562 613.125 558.671875 614.140625 C 558.363281 615.152344 558.007812 616.148438 557.601562 617.128906 C 557.195312 618.105469 556.746094 619.0625 556.246094 620 C 555.746094 620.933594 555.203125 621.839844 554.617188 622.722656 C 554.027344 623.601562 553.398438 624.453125 552.726562 625.269531 C 552.054688 626.089844 551.34375 626.875 550.59375 627.621094 C 549.847656 628.371094 549.0625 629.082031 548.246094 629.753906 C 547.425781 630.425781 546.578125 631.058594 545.699219 631.644531 C 544.816406 632.234375 543.910156 632.777344 542.976562 633.277344 C 542.042969 633.777344 541.085938 634.230469 540.109375 634.636719 C 539.132812 635.039062 538.136719 635.398438 537.121094 635.703125 C 536.109375 636.011719 535.085938 636.269531 534.046875 636.476562 C 533.007812 636.683594 531.960938 636.835938 530.90625 636.941406 C 529.855469 637.046875 528.796875 637.097656 527.738281 637.097656 C 526.679688 637.097656 525.625 637.046875 524.570312 636.941406 C 523.519531 636.835938 522.472656 636.683594 521.433594 636.476562 C 520.394531 636.269531 519.371094 636.011719 518.355469 635.703125 C 517.34375 635.398438 516.347656 635.039062 515.371094 634.636719 C 514.390625 634.230469 513.4375 633.777344 512.503906 633.277344 C 511.570312 632.777344 510.664062 632.234375 509.78125 631.644531 C 508.902344 631.058594 508.054688 630.425781 507.234375 629.753906 C 506.417969 629.082031 505.632812 628.371094 504.882812 627.621094 C 504.136719 626.875 503.425781 626.089844 502.753906 625.269531 C 502.082031 624.453125 501.453125 623.601562 500.863281 622.722656 C 500.277344 621.839844 499.734375 620.933594 499.234375 620 C 498.734375 619.0625 498.28125 618.105469 497.878906 617.128906 C 497.472656 616.148438 497.117188 615.152344 496.808594 614.140625 C 496.5 613.125 496.246094 612.097656 496.039062 611.058594 C 495.832031 610.019531 495.675781 608.972656 495.574219 607.921875 C 495.46875 606.867188 495.417969 605.808594 495.417969 604.75 C 495.417969 603.691406 495.46875 602.632812 495.574219 601.578125 C 495.675781 600.523438 495.832031 599.476562 496.039062 598.4375 C 496.246094 597.398438 496.5 596.375 496.808594 595.359375 C 497.117188 594.34375 497.472656 593.347656 497.878906 592.371094 C 498.28125 591.390625 498.734375 590.433594 499.234375 589.5 C 499.734375 588.566406 500.277344 587.660156 500.863281 586.777344 C 501.453125 585.898438 502.082031 585.046875 502.753906 584.226562 C 503.425781 583.410156 504.136719 582.625 504.882812 581.875 C 505.632812 581.125 506.417969 580.417969 507.234375 579.742188 C 508.054688 579.070312 508.902344 578.441406 509.78125 577.851562 C 510.664062 577.265625 511.570312 576.71875 512.503906 576.222656 C 513.4375 575.722656 514.390625 575.269531 515.371094 574.863281 C 516.347656 574.457031 517.34375 574.101562 518.355469 573.792969 C 519.371094 573.488281 520.394531 573.230469 521.433594 573.023438 C 522.472656 572.816406 523.519531 572.660156 524.570312 572.558594 C 525.625 572.453125 526.679688 572.402344 527.738281 572.402344 C 528.796875 572.402344 529.855469 572.453125 530.90625 572.558594 C 531.960938 572.660156 533.007812 572.816406 534.046875 573.023438 C 535.085938 573.230469 536.109375 573.488281 537.121094 573.792969 C 538.136719 574.101562 539.132812 574.457031 540.109375 574.863281 C 541.085938 575.269531 542.042969 575.722656 542.976562 576.222656 C 543.910156 576.71875 544.816406 577.265625 545.699219 577.851562 C 546.578125 578.441406 547.425781 579.070312 548.246094 579.742188 C 549.0625 580.417969 549.847656 581.125 550.59375 581.875 Z M 550.59375 581.875 " fill-opacity="1" fill-rule="nonzero"/><path fill="#6e5a00" d="M 525.042969 630.898438 L 525.042969 624.160156 C 519.667969 623.890625 516.695312 622.8125 514.269531 621.46875 L 515.886719 614.191406 C 518.574219 615.535156 522.082031 616.882812 526.121094 616.882812 C 529.625 616.882812 532.050781 615.535156 532.050781 613.109375 C 532.050781 610.679688 530.164062 609.335938 525.316406 607.726562 C 518.582031 605.574219 514.269531 602.347656 514.269531 596.40625 C 514.269531 591.027344 516.695312 586.703125 524.777344 585.355469 L 524.777344 579.679688 L 530.152344 579.679688 L 530.152344 585.0625 C 535.527344 585.328125 537.425781 586.140625 539.3125 587.21875 L 537.691406 594.226562 C 536.078125 593.417969 533.386719 592.070312 528.804688 592.070312 C 524.773438 592.070312 523.429688 593.6875 523.429688 595.574219 C 523.429688 597.730469 525.585938 598.808594 530.972656 600.953125 C 538.246094 603.644531 541.207031 606.882812 541.207031 612.546875 C 541.207031 618.207031 538.246094 622.789062 530.164062 624.136719 L 530.164062 630.875 Z M 525.042969 630.898438 " fill-opacity="1" fill-rule="nonzero"/><path fill="#00bb41" d="M 546.046875 638.46875 L 624.773438 638.46875 L 624.773438 657.910156 L 546.046875 657.910156 Z M 546.046875 638.46875 " fill-opacity="1" fill-rule="nonzero"/><path fill="#00a127" d="M 546.046875 640.601562 L 624.773438 640.601562 L 624.773438 641.113281 L 546.046875 641.113281 Z M 546.046875 640.601562 " fill-opacity="1" fill-rule="nonzero"/><path fill="#00a127" d="M 546.046875 643.585938 L 624.773438 643.585938 L 624.773438 644.097656 L 546.046875 644.097656 Z M 546.046875 643.585938 " fill-opacity="1" fill-rule="nonzero"/><path fill="#00a127" d="M 546.046875 646.570312 L 624.773438 646.570312 L 624.773438 647.082031 L 546.046875 647.082031 Z M 546.046875 646.570312 " fill-opacity="1" fill-rule="nonzero"/><path fill="#00a127" d="M 546.046875 649.554688 L 624.773438 649.554688 L 624.773438 650.066406 L 546.046875 650.066406 Z M 546.046875 649.554688 " fill-opacity="1" fill-rule="nonzero"/><path fill="#00a127" d="M 546.046875 652.539062 L 624.773438 652.539062 L 624.773438 653.050781 L 546.046875 653.050781 Z M 546.046875 652.539062 " fill-opacity="1" fill-rule="nonzero"/><path fill="#00a127" d="M 546.046875 655.523438 L 624.773438 655.523438 L 624.773438 656.035156 L 546.046875 656.035156 Z M 546.046875 655.523438 " fill-opacity="1" fill-rule="nonzero"/><path fill="#ffea5d" d="M 570.074219 638.46875 L 589.5 638.46875 L 589.5 657.910156 L 570.074219 657.910156 Z M 570.074219 638.46875 " fill-opacity="1" fill-rule="nonzero"/><path fill="#ffffff" d="M 572.972656 638.46875 L 573.992188 638.46875 L 573.992188 657.910156 L 572.972656 657.910156 Z M 572.972656 638.46875 " fill-opacity="1" fill-rule="nonzero"/><path fill="#ffffff" d="M 585.410156 638.46875 L 586.433594 638.46875 L 586.433594 657.910156 L 585.410156 657.910156 Z M 585.410156 638.46875 " fill-opacity="1" fill-rule="nonzero"/><path fill="#00bb41" d="M 554.757812 619.753906 L 633.484375 619.753906 L 633.484375 639.195312 L 554.757812 639.195312 Z M 554.757812 619.753906 " fill-opacity="1" fill-rule="nonzero"/><path fill="#00a127" d="M 554.757812 621.886719 L 633.484375 621.886719 L 633.484375 622.398438 L 554.757812 622.398438 Z M 554.757812 621.886719 " fill-opacity="1" fill-rule="nonzero"/><path fill="#00a127" d="M 554.757812 624.871094 L 633.484375 624.871094 L 633.484375 625.382812 L 554.757812 625.382812 Z M 554.757812 624.871094 " fill-opacity="1" fill-rule="nonzero"/><path fill="#00a127" d="M 554.757812 627.855469 L 633.484375 627.855469 L 633.484375 628.367188 L 554.757812 628.367188 Z M 554.757812 627.855469 " fill-opacity="1" fill-rule="nonzero"/><path fill="#00a127" d="M 554.757812 630.839844 L 633.484375 630.839844 L 633.484375 631.347656 L 554.757812 631.347656 Z M 554.757812 630.839844 " fill-opacity="1" fill-rule="nonzero"/><path fill="#00a127" d="M 554.757812 633.824219 L 633.484375 633.824219 L 633.484375 634.332031 L 554.757812 634.332031 Z M 554.757812 633.824219 " fill-opacity="1" fill-rule="nonzero"/><path fill="#00a127" d="M 554.757812 636.808594 L 633.484375 636.808594 L 633.484375 637.320312 L 554.757812 637.320312 Z M 554.757812 636.808594 " fill-opacity="1" fill-rule="nonzero"/><path fill="#ffea5d" d="M 578.785156 619.753906 L 598.210938 619.753906 L 598.210938 639.195312 L 578.785156 639.195312 Z M 578.785156 619.753906 " fill-opacity="1" fill-rule="nonzero"/><path fill="#ffffff" d="M 581.679688 619.753906 L 582.703125 619.753906 L 582.703125 639.195312 L 581.679688 639.195312 Z M 581.679688 619.753906 " fill-opacity="1" fill-rule="nonzero"/><path fill="#ffffff" d="M 594.121094 619.753906 L 595.144531 619.753906 L 595.144531 639.195312 L 594.121094 639.195312 Z M 594.121094 619.753906 " fill-opacity="1" fill-rule="nonzero"/><path fill="#00bb41" d="M 537.851562 601.039062 L 616.578125 601.039062 L 616.578125 620.480469 L 537.851562 620.480469 Z M 537.851562 601.039062 " fill-opacity="1" fill-rule="nonzero"/><path fill="#00a127" d="M 537.851562 603.167969 L 616.578125 603.167969 L 616.578125 603.679688 L 537.851562 603.679688 Z M 537.851562 603.167969 " fill-opacity="1" fill-rule="nonzero"/><path fill="#00a127" d="M 537.851562 606.152344 L 616.578125 606.152344 L 616.578125 606.664062 L 537.851562 606.664062 Z M 537.851562 606.152344 " fill-opacity="1" fill-rule="nonzero"/><path fill="#00a127" d="M 537.851562 609.140625 L 616.578125 609.140625 L 616.578125 609.652344 L 537.851562 609.652344 Z M 537.851562 609.140625 " fill-opacity="1" fill-rule="nonzero"/><path fill="#00a127" d="M 537.851562 612.125 L 616.578125 612.125 L 616.578125 612.636719 L 537.851562 612.636719 Z M 537.851562 612.125 " fill-opacity="1" fill-rule="nonzero"/><path fill="#00a127" d="M 537.851562 615.109375 L 616.578125 615.109375 L 616.578125 615.621094 L 537.851562 615.621094 Z M 537.851562 615.109375 " fill-opacity="1" fill-rule="nonzero"/><path fill="#00a127" d="M 537.851562 618.09375 L 616.578125 618.09375 L 616.578125 618.605469 L 537.851562 618.605469 Z M 537.851562 618.09375 " fill-opacity="1" fill-rule="nonzero"/><path fill="#ffea5d" d="M 561.878906 601.039062 L 581.300781 601.039062 L 581.300781 620.480469 L 561.878906 620.480469 Z M 561.878906 601.039062 " fill-opacity="1" fill-rule="nonzero"/><path fill="#ffffff" d="M 564.773438 601.039062 L 565.796875 601.039062 L 565.796875 620.480469 L 564.773438 620.480469 Z M 564.773438 601.039062 " fill-opacity="1" fill-rule="nonzero"/><path fill="#ffffff" d="M 577.214844 601.039062 L 578.234375 601.039062 L 578.234375 620.480469 L 577.214844 620.480469 Z M 577.214844 601.039062 " fill-opacity="1" fill-rule="nonzero"/><path fill="#f7c4a3" d="M 282.222656 493.671875 C 281.230469 490.84375 279.597656 486.808594 274.320312 486.566406 C 269.042969 486.324219 264.113281 488.960938 263.609375 492.871094 C 263.105469 496.78125 265.0625 501.863281 265.6875 504.710938 C 266.3125 507.558594 265.300781 511.507812 265.300781 511.507812 L 276.417969 512.785156 C 276.417969 512.785156 277.09375 509.195312 278 507.96875 C 278.503906 507.28125 280.242188 506.109375 282.257812 504.917969 C 283.132812 504.398438 283.957031 503.171875 283.789062 501.042969 C 283.535156 497.863281 283.480469 496.472656 283.160156 495.503906 C 282.921875 494.808594 282.445312 494.289062 282.222656 493.671875 Z M 282.222656 493.671875 " fill-opacity="1" fill-rule="nonzero"/><path fill="#f7c4a3" d="M 258.25 531.503906 L 257.59375 543.246094 C 257.53125 544.390625 257.710938 545.5 258.140625 546.566406 L 262.683594 557.933594 L 265.644531 554.960938 L 262.683594 543.664062 L 263.320312 532.398438 Z M 258.25 531.503906 " fill-opacity="1" fill-rule="nonzero"/><path fill="#f7c4a3" d="M 276.171875 561.792969 L 262.621094 550.890625 C 262.621094 550.890625 259.441406 558.558594 261.960938 566.601562 C 263.203125 570.558594 261.882812 573.367188 262.550781 575.242188 C 263.175781 576.992188 267.773438 601.878906 267.519531 603.714844 C 267.265625 605.546875 265.238281 610.710938 264.546875 616.105469 C 263.785156 622.035156 264.28125 640.132812 263.890625 647.480469 L 263.875 647.480469 C 263.875 647.480469 263.554688 652.953125 262.9375 654.164062 C 262.320312 655.371094 261.449219 656.722656 261.328125 658.339844 C 261.257812 659.277344 261.800781 660.257812 262.894531 660.78125 C 263.988281 661.308594 264.6875 660.714844 265.078125 660.753906 C 267.332031 660.976562 267.765625 662.675781 271.652344 663.21875 C 272.847656 663.386719 274.660156 662.941406 275.683594 662.097656 C 275.863281 661.949219 275.960938 661.757812 275.988281 661.527344 C 276.015625 661.292969 275.957031 661.085938 275.820312 660.898438 C 275.59375 660.546875 272.710938 659.636719 271.40625 658.84375 C 270.160156 658.089844 268.914062 655.945312 268.5625 655.210938 C 268.472656 655.015625 268.476562 654.480469 268.535156 653.789062 C 268.683594 652.636719 268.84375 651.4375 269.027344 650.203125 C 269.179688 649.269531 269.308594 648.585938 269.308594 648.585938 L 269.269531 648.585938 C 271.703125 632.613281 276.4375 611.457031 277.070312 604.195312 C 277.765625 596.070312 277.046875 581.296875 276.171875 561.792969 Z M 276.171875 561.792969 " fill-opacity="1" fill-rule="nonzero"/><path fill="#1a1a1a" d="M 275.980469 662.367188 C 276.25 661.878906 276.304688 661.144531 276.039062 660.972656 C 275.253906 660.460938 274.441406 659.996094 273.597656 659.582031 C 272.84375 659.257812 271.648438 658.980469 272.070312 659.195312 C 272.496094 659.410156 271.746094 660.277344 271.042969 660.25 C 268.617188 660.160156 266.785156 658.59375 265.40625 658.277344 C 263.40625 657.832031 262.515625 655.5 262.417969 655.121094 C 262.046875 655.367188 261.21875 657.28125 261.054688 657.878906 C 260.90625 658.421875 260.644531 659.414062 260.808594 659.972656 C 261.039062 660.613281 261.128906 661.273438 261.078125 661.949219 C 261.078125 661.949219 261.476562 662.242188 262.519531 662.433594 C 263.035156 662.5 263.550781 662.496094 264.0625 662.417969 L 264.203125 661.164062 C 264.617188 661.148438 265.03125 661.179688 265.4375 661.257812 C 266.117188 661.433594 266.75 661.710938 267.339844 662.089844 C 267.625 662.414062 267.859375 663.007812 268.234375 663.183594 C 269.25 663.65625 270.3125 663.894531 271.429688 663.902344 C 274.023438 663.992188 275.519531 663.199219 275.980469 662.367188 Z M 275.980469 662.367188 " fill-opacity="1" fill-rule="nonzero"/><path fill="#f7c4a3" d="M 295.664062 661.121094 C 295.378906 660.804688 292.292969 660.335938 290.84375 659.746094 C 289.460938 659.183594 287.777344 657.351562 287.445312 656.570312 C 287.113281 655.789062 287.144531 651.8125 287.171875 650.140625 C 287.34375 638.636719 289.1875 610.511719 289.410156 603.78125 C 289.828125 592.074219 288.1875 580.015625 283.5 561.285156 L 266.625 548.585938 C 266.625 548.585938 262.023438 557.359375 263.675781 565.683594 C 264.636719 570.515625 268.65625 571.21875 269.355469 573.09375 C 270.050781 574.96875 280.492188 605.199219 280.492188 605.199219 C 280.492188 605.199219 278.582031 611.773438 278.542969 618.960938 C 278.507812 625.09375 281.472656 643.5625 282.0625 650.605469 C 282.132812 651.980469 282.40625 655.277344 282.007812 656.332031 C 281.527344 657.621094 280.273438 659.144531 280.355469 660.765625 C 280.402344 661.703125 281.089844 662.597656 282.28125 662.953125 C 283.472656 663.308594 284.125 662.613281 284.519531 662.59375 C 286.882812 662.472656 287.550781 664.09375 291.628906 664.050781 C 292.886719 664.035156 294.699219 663.320312 295.660156 662.324219 C 295.824219 662.15625 295.90625 661.957031 295.90625 661.722656 C 295.910156 661.488281 295.828125 661.285156 295.664062 661.121094 Z M 295.664062 661.121094 " fill-opacity="1" fill-rule="nonzero"/><path fill="#1a1a1a" d="M 296.023438 662.554688 C 296.246094 662.03125 296.203125 661.296875 295.90625 661.167969 C 295.03125 660.773438 294.132812 660.4375 293.21875 660.15625 C 292.394531 659.945312 291.121094 659.851562 291.589844 660.003906 C 292.054688 660.15625 291.386719 661.125 290.660156 661.203125 C 288.144531 661.476562 286.058594 660.199219 284.585938 660.097656 C 282.460938 659.949219 281.65625 657.769531 281.507812 657.40625 C 281.15625 657.710938 280.128906 659.734375 280.039062 660.355469 C 279.953125 660.914062 279.8125 661.925781 280.039062 662.460938 C 280.355469 663.0625 280.53125 663.703125 280.566406 664.382812 C 280.566406 664.382812 281.015625 664.609375 282.117188 664.644531 C 282.660156 664.632812 283.191406 664.550781 283.710938 664.398438 L 283.695312 663.132812 C 284.121094 663.054688 284.550781 663.023438 284.984375 663.039062 C 285.742188 663.089844 286.4375 663.328125 287.066406 663.753906 C 287.417969 664.007812 287.785156 664.445312 288.1875 664.546875 C 289.277344 664.835938 290.378906 664.910156 291.5 664.769531 C 294.203125 664.460938 295.652344 663.449219 296.023438 662.554688 Z M 296.023438 662.554688 " fill-opacity="1" fill-rule="nonzero"/><path fill="#f7c4a3" d="M 313.808594 546.746094 C 314.234375 547.601562 316.835938 548.3125 318.308594 548.019531 C 320.632812 547.542969 324.152344 548.628906 326.011719 543.65625 C 326.226562 543.089844 325.035156 541.910156 323.882812 542.453125 C 322.28125 543.207031 320.78125 543.054688 319.339844 542.246094 C 319.46875 541.898438 319.789062 542.074219 320.40625 541.699219 C 321.09375 541.28125 321.28125 540.703125 321.15625 540.394531 C 321.0625 540.167969 320.175781 540.53125 319.949219 540.550781 L 317.394531 540.789062 C 316.507812 540.820312 315.71875 541.109375 315.019531 541.65625 C 314.875 541.761719 313.558594 542.972656 314.15625 543.226562 " fill-opacity="1" fill-rule="nonzero"/><path fill="#f7c4a3" d="M 274.277344 530.472656 C 278.898438 534.984375 287.898438 542.113281 289.25 542.933594 C 294.585938 546.175781 313.953125 546.773438 313.953125 546.773438 C 313.953125 546.773438 316.046875 544.476562 314.851562 542.050781 C 309.5625 542.398438 296.21875 536.175781 293.984375 535.957031 C 292.539062 535.816406 278.769531 520.574219 278.769531 520.574219 " fill-opacity="1" fill-rule="nonzero"/><path fill="#f9b253" d="M 261.019531 518.476562 C 261.019531 518.476562 258.351562 525.679688 257.476562 531.382812 L 263.9375 532.398438 L 263.9375 523.238281 " fill-opacity="1" fill-rule="nonzero"/><path fill="#333333" d="M 282.863281 547.84375 C 282.976562 548.871094 288.484375 560.398438 289.167969 572.75 C 289.613281 580.941406 289.738281 585.640625 289.101562 591.550781 C 283.351562 594.933594 270.65625 595.332031 264.402344 590.796875 C 264.484375 585.90625 263.113281 579.585938 262.445312 575.304688 C 262.152344 573.421875 260.25 568.242188 260 566.355469 C 259.0625 559.234375 260.851562 552.554688 265.507812 548.535156 Z M 282.863281 547.84375 " fill-opacity="1" fill-rule="nonzero"/><path fill="#00a99d" d="M 282.691406 536.738281 C 282.457031 538.941406 282.691406 542.34375 283 546.105469 C 283.054688 546.746094 283.363281 547.933594 283.304688 548.570312 C 283.277344 548.960938 283.113281 549.28125 282.816406 549.535156 C 282.144531 550.191406 280.851562 550.597656 279.429688 550.847656 C 274.796875 551.683594 267.472656 551.125 265.410156 551.519531 C 263.472656 551.910156 261.476562 551.253906 261.476562 550.066406 C 261.476562 549.246094 262.230469 548.78125 262.300781 547.164062 C 262.453125 543.617188 262.34375 535.550781 261.683594 531.945312 C 261.070312 528.535156 260.652344 525.753906 260.472656 522.949219 C 260.421875 522.203125 260.445312 521.460938 260.546875 520.722656 C 260.648438 519.984375 260.820312 519.261719 261.066406 518.558594 C 261.3125 517.855469 261.628906 517.183594 262.007812 516.542969 C 262.390625 515.902344 262.832031 515.308594 263.335938 514.757812 C 263.839844 514.207031 264.390625 513.710938 264.992188 513.273438 C 265.59375 512.835938 266.234375 512.460938 266.914062 512.152344 C 267.589844 511.84375 268.292969 511.605469 269.019531 511.4375 C 269.746094 511.269531 270.480469 511.175781 271.222656 511.160156 C 273.988281 511.09375 276.324219 511.066406 276.734375 511.132812 C 277.53125 511.257812 282.007812 515.515625 283.277344 520.546875 C 283.925781 521.589844 284.46875 522.679688 284.910156 523.824219 C 285.539062 525.511719 285.46875 526.757812 284.898438 528.289062 C 283.808594 531.265625 283.042969 533.398438 282.691406 536.738281 Z M 282.691406 536.738281 " fill-opacity="1" fill-rule="nonzero"/><path fill="#00a99d" d="M 281.261719 516.347656 C 281.261719 516.347656 284.488281 519.105469 285.070312 521.8125 C 285.84375 525.425781 289.269531 530.535156 289.269531 530.535156 C 289.269531 530.535156 284.6875 537.410156 282.285156 539.414062 C 282.285156 539.414062 281.136719 537.734375 276.601562 534.257812 C 271.914062 530.671875 263.386719 528.890625 263.386719 528.890625 Z M 281.261719 516.347656 " fill-opacity="1" fill-rule="nonzero"/><path fill="#333333" d="M 279.574219 492.164062 C 281.410156 491.285156 279.976562 486.628906 277.515625 485.3125 C 272.6875 482.714844 259.496094 483.132812 260.066406 499.34375 C 260.632812 515.554688 247.5 523.332031 246.207031 524.253906 C 243.648438 526.09375 245.179688 526.914062 250.328125 528.484375 C 253.984375 529.605469 253.570312 532.085938 255.554688 532.800781 C 257.539062 533.515625 259.136719 533.398438 262.113281 531.527344 C 265.089844 529.65625 265.140625 532.917969 267.207031 533.355469 C 271.40625 534.25 272.328125 529.675781 271.425781 527 C 270.519531 524.328125 265.945312 503.324219 271.617188 499.6875 C 274.199219 498.035156 275.789062 501.597656 275.789062 501.597656 C 275.789062 501.597656 275.90625 493.914062 279.574219 492.164062 Z M 279.574219 492.164062 " fill-opacity="1" fill-rule="nonzero"/><path stroke-linecap="butt" transform="matrix(0.75, 0, 0, 0.75, 80.999999, 188.700011)" fill="none" stroke-linejoin="miter" d="M 0.000000766667 4.998945 L 468.916691 4.998945 " stroke="#5c6b8b" stroke-width="10" stroke-opacity="1" stroke-miterlimit="4"/><g fill="#5c6b8b" fill-opacity="1"><g transform="translate(80.999999, 164.100012)"><g><path d="M 41.40625 -61.921875 C 45.238281 -61.921875 48.65625 -61.035156 51.65625 -59.265625 C 54.65625 -57.492188 56.992188 -55.0625 58.671875 -51.96875 C 60.359375 -48.882812 61.203125 -45.421875 61.203125 -41.578125 L 61.203125 -40.40625 C 61.203125 -36.570312 60.359375 -33.09375 58.671875 -29.96875 C 56.992188 -26.851562 54.65625 -24.410156 51.65625 -22.640625 C 48.65625 -20.867188 45.238281 -19.984375 41.40625 -19.984375 L 26.546875 -19.984375 L 26.546875 0 L 6.65625 0 L 6.65625 -61.921875 Z M 26.546875 -34.46875 L 34.734375 -34.46875 C 36.835938 -34.46875 38.414062 -35.003906 39.46875 -36.078125 C 40.519531 -37.160156 41.046875 -38.632812 41.046875 -40.5 L 41.046875 -41.21875 C 41.046875 -43.132812 40.519531 -44.617188 39.46875 -45.671875 C 38.414062 -46.722656 36.835938 -47.25 34.734375 -47.25 L 26.546875 -47.25 Z M 26.546875 -34.46875 "/></g></g></g><g fill="#5c6b8b" fill-opacity="1"><g transform="translate(145.979938, 164.100012)"><g><path d="M 65.4375 -42.9375 C 65.4375 -39.15625 64.414062 -35.734375 62.375 -32.671875 C 60.332031 -29.609375 57.359375 -27.359375 53.453125 -25.921875 L 67.234375 0 L 44.90625 0 L 33.9375 -22.59375 L 26.546875 -22.59375 L 26.546875 0 L 6.65625 0 L 6.65625 -61.921875 L 44.546875 -61.921875 C 48.984375 -61.921875 52.773438 -61.066406 55.921875 -59.359375 C 59.078125 -57.648438 61.453125 -55.335938 63.046875 -52.421875 C 64.640625 -49.515625 65.4375 -46.351562 65.4375 -42.9375 Z M 45.1875 -42.125 C 45.1875 -43.738281 44.644531 -45.085938 43.5625 -46.171875 C 42.476562 -47.253906 41.15625 -47.796875 39.59375 -47.796875 L 26.546875 -47.796875 L 26.546875 -36.359375 L 39.59375 -36.359375 C 41.15625 -36.359375 42.476562 -36.910156 43.5625 -38.015625 C 44.644531 -39.128906 45.1875 -40.5 45.1875 -42.125 Z M 45.1875 -42.125 "/></g></g></g><g fill="#5c6b8b" fill-opacity="1"><g transform="translate(215.999867, 164.100012)"><g><path d="M 6.65625 -61.921875 L 60.203125 -61.921875 L 60.203125 -47.0625 L 26.546875 -47.0625 L 26.546875 -38.515625 L 55.34375 -38.515625 L 55.34375 -24.296875 L 26.546875 -24.296875 L 26.546875 -14.84375 L 60.84375 -14.84375 L 60.84375 0 L 6.65625 0 Z M 6.65625 -61.921875 "/></g></g></g><g fill="#5c6b8b" fill-opacity="1"><g transform="translate(280.979817, 164.100012)"><g><path d="M 3.515625 -17.640625 L 3.515625 -31.859375 L 26.453125 -31.859375 L 26.453125 -17.640625 Z M 3.515625 -17.640625 "/></g></g></g><g fill="#5c6b8b" fill-opacity="1"><g transform="translate(310.949786, 164.100012)"><g><path d="M 41.40625 -61.921875 C 45.238281 -61.921875 48.65625 -61.035156 51.65625 -59.265625 C 54.65625 -57.492188 56.992188 -55.0625 58.671875 -51.96875 C 60.359375 -48.882812 61.203125 -45.421875 61.203125 -41.578125 L 61.203125 -40.40625 C 61.203125 -36.570312 60.359375 -33.09375 58.671875 -29.96875 C 56.992188 -26.851562 54.65625 -24.410156 51.65625 -22.640625 C 48.65625 -20.867188 45.238281 -19.984375 41.40625 -19.984375 L 26.546875 -19.984375 L 26.546875 0 L 6.65625 0 L 6.65625 -61.921875 Z M 26.546875 -34.46875 L 34.734375 -34.46875 C 36.835938 -34.46875 38.414062 -35.003906 39.46875 -36.078125 C 40.519531 -37.160156 41.046875 -38.632812 41.046875 -40.5 L 41.046875 -41.21875 C 41.046875 -43.132812 40.519531 -44.617188 39.46875 -45.671875 C 38.414062 -46.722656 36.835938 -47.25 34.734375 -47.25 L 26.546875 -47.25 Z M 26.546875 -34.46875 "/></g></g></g><g fill="#5c6b8b" fill-opacity="1"><g transform="translate(375.929725, 164.100012)"><g><path d="M 48.15625 0 L 45.546875 -8.734375 L 23.84375 -8.734375 L 21.234375 0 L 0.90625 0 L 23.484375 -61.921875 L 46.625 -61.921875 L 69.203125 0 Z M 27.984375 -22.59375 L 41.40625 -22.59375 L 34.921875 -44.640625 L 34.5625 -44.640625 Z M 27.984375 -22.59375 "/></g></g></g><g fill="#5c6b8b" fill-opacity="1"><g transform="translate(445.949642, 164.100012)"><g><path d="M 45.09375 0 L 25.203125 0 L 25.203125 -24.03125 L 0.625 -61.921875 L 23.484375 -61.921875 L 35.375 -41.3125 L 35.734375 -41.3125 L 47.609375 -61.921875 L 69.296875 -61.921875 L 45.09375 -24.03125 Z M 45.09375 0 "/></g></g></g><g clip-path="url(#fb22f26ff6)"><g clip-path="url(#f8e0c66b16)"><g clip-path="url(#6403baac15)"><path fill="#edf1ff" d="M 1210.34375 856.742188 C 1182.386719 882.460938 1141.460938 888.417969 1103.613281 885.964844 C 1065.765625 883.511719 1028.527344 873.898438 990.59375 873.3125 C 955.992188 872.78125 928.730469 889.535156 900.746094 902.367188 C 867.21875 917.746094 829.867188 916.449219 796.367188 901.566406 C 767.621094 888.820312 743.222656 867.824219 721.992188 844.636719 C 699.859375 820.445312 679.832031 791.085938 679.941406 758.3125 C 680.101562 712.417969 718.367188 676.902344 753.441406 647.316406 C 822.699219 588.929688 831.609375 521.992188 849.148438 437.191406 C 865.445312 358.449219 889.640625 276.828125 967.644531 238.960938 C 972.917969 236.449219 978.316406 234.234375 983.839844 232.316406 C 989.359375 230.402344 994.96875 228.796875 1000.667969 227.503906 C 1006.367188 226.207031 1012.121094 225.234375 1017.929688 224.578125 C 1023.734375 223.921875 1029.5625 223.585938 1035.40625 223.578125 C 1041.25 223.566406 1047.074219 223.878906 1052.886719 224.511719 C 1058.695312 225.148438 1064.453125 226.101562 1070.15625 227.375 C 1075.859375 228.648438 1081.476562 230.230469 1087.003906 232.125 C 1092.53125 234.019531 1097.9375 236.214844 1103.222656 238.710938 C 1110.898438 242.476562 1118.222656 246.835938 1125.191406 251.785156 C 1132.164062 256.738281 1138.691406 262.214844 1144.777344 268.21875 C 1150.863281 274.226562 1156.429688 280.679688 1161.472656 287.585938 C 1166.511719 294.492188 1170.96875 301.757812 1174.835938 309.378906 C 1190.1875 339.296875 1202.449219 354.535156 1228.679688 377 C 1262.808594 406.25 1299.992188 433.121094 1325.878906 469.863281 C 1351.765625 506.601562 1364.425781 556.828125 1343.808594 596.828125 C 1319.175781 644.628906 1276.570312 666.195312 1262.316406 721.304688 C 1250.488281 767.328125 1247.773438 822.402344 1210.34375 856.742188 Z M 1210.34375 856.742188 " fill-opacity="1" fill-rule="nonzero"/></g></g></g></svg>