<svg xmlns="http://www.w3.org/2000/svg" xmlns:xlink="http://www.w3.org/1999/xlink" width="1080" zoomAndPan="magnify" viewBox="0 0 810 809.999993" height="1080" preserveAspectRatio="xMidYMid meet" version="1.0"><defs><filter x="0%" y="0%" width="100%" height="100%" id="a4e0d108e2"><feColorMatrix values="0 0 0 0 1 0 0 0 0 1 0 0 0 0 1 0 0 0 1 0" color-interpolation-filters="sRGB"/></filter><g/><mask id="85efa702fa"><g filter="url(#a4e0d108e2)"><rect x="-81" width="972" fill="#000000" y="-80.999999" height="971.999992" fill-opacity="0.87"/></g></mask><clipPath id="e94eb210a9"><path d="M 0 107 L 790 107 L 790 810 L 0 810 Z M 0 107 " clip-rule="nonzero"/></clipPath><clipPath id="c1258ad7e0"><path d="M -6.730469 -86.382812 L 966.65625 395.191406 L 495.394531 1347.738281 L -477.992188 866.167969 Z M -6.730469 -86.382812 " clip-rule="nonzero"/></clipPath><clipPath id="726bf95dcd"><path d="M -6.730469 -86.382812 L 966.65625 395.191406 L 495.394531 1347.738281 L -477.992188 866.167969 Z M -6.730469 -86.382812 " clip-rule="nonzero"/></clipPath><clipPath id="74c7396a68"><rect x="0" width="810" y="0" height="810"/></clipPath><mask id="65623aee49"><g filter="url(#a4e0d108e2)"><rect x="-81" width="972" fill="#000000" y="-80.999999" height="971.999992" fill-opacity="0.72"/></g></mask><clipPath id="d8fbf7d439"><path d="M 0 177 L 584 177 L 584 637 L 0 637 Z M 0 177 " clip-rule="nonzero"/></clipPath><clipPath id="b355701b20"><path d="M -212.152344 -16.277344 L 761.238281 465.296875 L 289.972656 1417.84375 L -683.414062 936.273438 Z M -212.152344 -16.277344 " clip-rule="nonzero"/></clipPath><clipPath id="5169877578"><path d="M -212.152344 -16.277344 L 761.238281 465.296875 L 289.972656 1417.84375 L -683.414062 936.273438 Z M -212.152344 -16.277344 " clip-rule="nonzero"/></clipPath><clipPath id="796cbed221"><rect x="0" width="746" y="0" height="637"/></clipPath><clipPath id="faa9b8c79b"><path d="M 385 266.027344 L 664.402344 266.027344 L 664.402344 531 L 385 531 Z M 385 266.027344 " clip-rule="nonzero"/></clipPath><clipPath id="8b14d1b00c"><path d="M 145.550781 268 L 656 268 L 656 750.289062 L 145.550781 750.289062 Z M 145.550781 268 " clip-rule="nonzero"/></clipPath><mask id="69c62e34a3"><g filter="url(#a4e0d108e2)"><rect x="-81" width="972" fill="#000000" y="-80.999999" height="971.999992" fill-opacity="0.72"/></g></mask><clipPath id="63ce9ea11a"><path d="M 45 0 L 271 0 L 271 162 L 45 162 Z M 45 0 " clip-rule="nonzero"/></clipPath><clipPath id="54d2d1ee1d"><path d="M 169.011719 -277.339844 L 564.28125 -81.78125 L 373.046875 304.75 L -22.222656 109.191406 Z M 169.011719 -277.339844 " clip-rule="nonzero"/></clipPath><clipPath id="fae85d212d"><path d="M 169.011719 -277.339844 L 564.28125 -81.78125 L 373.046875 304.75 L -22.222656 109.191406 Z M 169.011719 -277.339844 " clip-rule="nonzero"/></clipPath><clipPath id="3450e7c43a"><rect x="0" width="271" y="0" height="276"/></clipPath></defs><g mask="url(#85efa702fa)"><g transform="matrix(1, 0, 0, 1, 0, 0.000000000000039746)"><g clip-path="url(#74c7396a68)"><g clip-path="url(#e94eb210a9)"><g clip-path="url(#c1258ad7e0)"><g clip-path="url(#726bf95dcd)"><path fill="#f3f3f3" d="M 610.96875 403.519531 C 761.644531 478.0625 809.867188 611.382812 781.109375 725.136719 C 757.816406 817.261719 684.027344 896.558594 573.261719 921.378906 C 527.855469 931.558594 481.570312 928.976562 433.417969 924.527344 C 276.105469 909.984375 287.089844 904.589844 146.226562 968.738281 C -70.652344 1067.507812 -326.167969 868.839844 -311.21875 644.964844 C -302.300781 511.429688 -213.925781 367.796875 24.507812 305.707031 C 173.65625 266.871094 191.957031 76.519531 365.566406 111.785156 C 413.484375 121.515625 457.664062 148.964844 478.886719 190.261719 C 513.5 257.632812 497.664062 347.460938 610.96875 403.519531 " fill-opacity="1" fill-rule="evenodd"/></g></g></g></g></g></g><g mask="url(#65623aee49)"><g transform="matrix(1, 0, 0, 1, 0, 173)"><g clip-path="url(#796cbed221)"><g clip-path="url(#d8fbf7d439)"><g clip-path="url(#b355701b20)"><g clip-path="url(#5169877578)"><path fill="#d9d9d9" d="M 405.550781 473.625 C 556.226562 548.167969 604.445312 681.488281 575.691406 795.242188 C 552.394531 887.371094 478.605469 966.664062 367.839844 991.484375 C 322.4375 1001.664062 276.148438 999.082031 227.996094 994.632812 C 70.683594 980.089844 81.667969 974.695312 -59.191406 1038.84375 C -276.070312 1137.613281 -531.585938 938.945312 -516.640625 715.074219 C -507.722656 581.535156 -419.347656 437.902344 -180.914062 375.8125 C -31.765625 336.976562 -13.464844 146.628906 160.144531 181.894531 C 208.0625 191.621094 252.246094 219.070312 273.464844 260.367188 C 308.078125 327.738281 292.242188 417.566406 405.550781 473.625 " fill-opacity="1" fill-rule="evenodd"/></g></g></g></g></g></g><path fill="#ffffff" d="M 416.136719 496.027344 C 415.75 498.738281 415.75 501.0625 415.941406 502.707031 C 416.234375 505.90625 416.425781 508.519531 418.363281 510.265625 C 419.527344 511.328125 420.882812 511.71875 421.753906 511.8125 L 421.753906 515.203125 C 421.5625 518.789062 423.59375 521.695312 425.921875 522.371094 C 428.921875 523.148438 433.28125 520.242188 433.667969 515.203125 C 433.28125 513.65625 432.894531 511.621094 432.796875 509.296875 C 432.699219 506.390625 433.183594 503.871094 433.667969 502.128906 C 435.316406 501.449219 435.992188 499.804688 435.507812 498.738281 C 435.121094 497.769531 433.863281 497.476562 433.667969 497.476562 C 432.410156 497.089844 430.570312 496.414062 428.632812 494.960938 C 427.179688 493.796875 426.113281 492.636719 425.53125 491.667969 C 425.046875 492.441406 423.691406 494.183594 421.269531 495.25 C 419.042969 496.316406 417.007812 496.21875 416.136719 496.027344 Z M 276.074219 524.988281 L 253.503906 650.035156 C 255.925781 650.714844 259.121094 651.394531 262.804688 651.683594 C 266.871094 651.972656 270.261719 651.585938 272.878906 651.101562 C 276.75 635.703125 280.53125 619.621094 284.015625 602.769531 C 287.890625 583.878906 291.183594 565.667969 293.894531 548.234375 C 295.542969 581.941406 297.09375 615.554688 298.738281 649.261719 C 301.0625 649.84375 303.777344 650.230469 306.777344 650.519531 C 311.332031 650.8125 315.398438 650.425781 318.5 649.941406 C 319.371094 632.601562 319.757812 614.488281 319.757812 595.601562 C 319.660156 570.222656 318.691406 546.101562 317.046875 523.4375 C 310.75 524.40625 303.582031 525.179688 295.738281 525.472656 C 288.570312 525.664062 281.980469 525.472656 276.074219 524.988281 Z M 306.683594 442.074219 C 305.519531 443.527344 305.328125 444.980469 305.230469 445.65625 C 304.066406 445.171875 302.710938 445.753906 302.226562 447.011719 C 301.742188 448.175781 302.324219 449.53125 303.582031 450.015625 C 303.679688 450.984375 303.777344 453.308594 302.128906 455.050781 C 300.871094 456.410156 299.222656 456.796875 296.898438 457.183594 C 294.671875 457.570312 292.734375 457.472656 291.570312 457.378906 L 291.570312 462.996094 C 292.734375 463.578125 294.960938 464.351562 297.867188 464.351562 C 300.578125 464.351562 302.710938 463.578125 303.96875 462.996094 L 303.96875 458.539062 C 306.683594 458.832031 308.039062 458.054688 308.621094 457.570312 C 310.558594 455.925781 310.363281 452.921875 310.074219 447.304688 C 309.878906 444.300781 309.589844 441.878906 309.296875 440.234375 C 308.523438 440.328125 307.554688 440.910156 306.683594 442.074219 Z M 451.683594 532.253906 L 440.0625 534.578125 L 388.433594 546.585938 L 383.011719 554.238281 L 383.980469 559.179688 L 458.078125 559.664062 L 459.335938 552.691406 Z M 436.382812 568.382812 L 409.742188 570.027344 C 393.179688 568.1875 388.917969 574.097656 386.691406 576.613281 C 384.464844 579.132812 383.105469 588.625 383.105469 588.625 L 383.6875 620.300781 L 383.011719 649.359375 L 400.058594 650.132812 L 402.578125 589.496094 L 408.195312 590.949219 L 410.035156 650.132812 L 427.277344 650.132812 L 427.277344 590.949219 L 437.738281 590.273438 L 447.617188 582.8125 L 451.199219 570.898438 Z M 343.003906 559.761719 L 343.003906 656.140625 L 346.300781 656.140625 L 346.300781 565.667969 L 477.546875 565.667969 L 477.546875 656.140625 L 511.160156 656.140625 L 511.160156 559.761719 Z M 425.628906 464.738281 L 333.902344 464.738281 L 333.902344 400.808594 L 425.628906 400.808594 Z M 334.578125 482.175781 C 332.835938 482.175781 331.382812 483.628906 331.382812 485.371094 L 331.382812 506.003906 C 331.382812 507.746094 332.835938 509.199219 334.578125 509.199219 L 393.179688 509.199219 C 393.472656 509.199219 393.664062 509.296875 393.859375 509.488281 L 398.703125 515.589844 L 398.507812 510.070312 C 398.507812 509.875 398.605469 509.585938 398.703125 509.488281 C 398.894531 509.296875 399.089844 509.199219 399.28125 509.199219 C 401.027344 509.199219 402.480469 507.746094 402.480469 506.003906 L 402.480469 485.371094 C 402.480469 483.628906 401.027344 482.175781 399.28125 482.175781 L 334.578125 482.175781 " fill-opacity="1" fill-rule="nonzero"/><path fill="#504543" d="M 334.289062 463.867188 L 424.371094 463.867188 L 424.371094 401.585938 L 334.289062 401.585938 Z M 425.242188 465.609375 L 333.511719 465.609375 C 333.027344 465.609375 332.640625 465.222656 332.640625 464.738281 L 332.640625 400.808594 C 332.640625 400.324219 333.027344 399.9375 333.511719 399.9375 L 425.242188 399.9375 C 425.726562 399.9375 426.113281 400.324219 426.113281 400.808594 L 426.113281 464.738281 C 426.015625 465.222656 425.628906 465.609375 425.242188 465.609375 Z M 403.738281 619.136719 L 408.773438 594.535156 L 408.773438 594.242188 L 439.382812 594.242188 L 439.382812 594.535156 L 445.097656 619.136719 Z M 456.433594 655.847656 L 442.097656 594.339844 L 449.75 594.339844 C 450.8125 593.953125 451.589844 593.082031 451.683594 592.113281 C 451.878906 590.660156 450.523438 589.011719 448.390625 588.820312 C 446.066406 588.433594 443.742188 588.140625 441.515625 587.753906 L 405.289062 587.753906 L 401.21875 589.691406 L 402.480469 594.339844 L 406.257812 594.339844 L 399.960938 625.046875 C 399.863281 625.722656 400.25 626.402344 400.929688 626.5 L 401.21875 626.5 C 401.800781 626.5 402.285156 626.113281 402.480469 625.53125 L 403.253906 621.753906 L 445.875 621.753906 L 454.011719 656.527344 C 454.105469 657.109375 454.6875 657.496094 455.269531 657.496094 L 455.558594 657.496094 C 456.140625 657.203125 456.527344 656.527344 456.429688 655.847656 " fill-opacity="1" fill-rule="nonzero"/><g clip-path="url(#faa9b8c79b)"><path fill="#fac65a" d="M 505.152344 307.917969 C 480.550781 294.066406 457.789062 288.253906 442.484375 285.640625 C 443.550781 281.574219 444.519531 277.503906 445.582031 273.433594 C 438.707031 270.726562 428.824219 267.621094 416.71875 266.460938 C 403.835938 265.300781 393.082031 266.652344 385.722656 268.203125 C 386.691406 298.332031 387.5625 328.453125 388.53125 358.578125 C 394.148438 358.671875 400.445312 359.15625 407.226562 360.125 C 413.039062 361 418.363281 362.0625 423.207031 363.226562 C 434.152344 365.9375 448.683594 370.78125 464.375 379.789062 C 477.644531 387.441406 487.816406 395.871094 495.175781 402.941406 C 514.550781 383.957031 533.921875 364.96875 553.292969 346.082031 C 543.21875 335.140625 527.433594 320.511719 505.152344 307.917969 Z M 664.105469 530.992188 L 543.898438 523.535156 C 544.382812 509.390625 543.414062 483.628906 531.015625 454.957031 C 520.070312 429.578125 504.960938 412.433594 495.078125 403.039062 C 523.558594 375.140625 551.9375 347.339844 580.414062 319.441406 C 597.65625 336.007812 626.8125 368.457031 645.992188 418.050781 C 664.394531 465.511719 665.265625 507.355469 664.105469 530.992188 " fill-opacity="1" fill-rule="nonzero"/></g><path fill="#fac65a" d="M 448.875 470.839844 L 448.875 488.859375 L 452.945312 484.402344 L 474.835938 484.402344 L 474.835938 470.839844 Z M 334.386719 505.035156 L 400.734375 505.035156 C 399.089844 501.257812 396.378906 496.703125 392.988281 496.605469 C 389.113281 496.511719 387.949219 502.128906 383.882812 502.515625 C 377.199219 503.191406 373.710938 487.890625 366.929688 488.375 C 361.214844 488.761719 357.824219 496.027344 354.917969 500.09375 C 354.4375 500.773438 353.953125 501.449219 353.273438 501.835938 C 348.238281 505.226562 343.101562 494.765625 337.679688 497.382812 C 335.355469 498.640625 334.578125 502.226562 334.386719 505.035156 Z M 378.167969 440.621094 L 369.835938 440.621094 L 369.835938 452.824219 L 378.167969 452.824219 Z M 389.886719 437.230469 L 381.558594 437.230469 L 381.558594 452.824219 L 389.886719 452.824219 Z M 401.316406 430.160156 L 392.988281 430.160156 L 392.988281 452.824219 L 401.316406 452.824219 Z M 413.230469 416.597656 L 404.902344 416.597656 L 404.902344 452.726562 L 413.230469 452.726562 Z M 365.769531 452.148438 L 357.4375 452.148438 L 357.4375 431.128906 L 365.769531 431.128906 L 365.769531 452.148438 " fill-opacity="1" fill-rule="nonzero"/><path fill="#ffffff" d="M 355.113281 431.707031 C 359.570312 425.507812 361.992188 422.507812 362.476562 422.796875 C 362.863281 422.992188 361.796875 425.703125 359.183594 430.738281 C 359.667969 430.835938 364.414062 431.707031 364.605469 433.742188 C 364.703125 434.324219 364.316406 434.90625 362.28125 437.035156 C 360.828125 438.585938 359.570312 439.84375 358.601562 440.71875 C 357.921875 440.136719 357.148438 439.554688 356.082031 438.972656 C 355.308594 438.390625 354.4375 438.101562 353.660156 437.8125 C 353.5625 436.84375 353.46875 435.488281 353.273438 433.742188 C 352.789062 429.382812 352.304688 427.351562 352.691406 427.253906 C 352.886719 427.15625 353.46875 427.929688 355.113281 431.707031 " fill-opacity="1" fill-rule="nonzero"/><g clip-path="url(#8b14d1b00c)"><path fill="#504543" d="M 453.71875 481.109375 L 471.15625 481.109375 L 471.15625 480.238281 L 453.71875 480.238281 Z M 453.71875 478.492188 L 471.15625 478.492188 L 471.15625 477.621094 L 453.71875 477.621094 Z M 471.15625 475.007812 L 453.71875 475.007812 L 453.71875 475.878906 L 471.15625 475.878906 Z M 336.320312 493.894531 C 339.90625 492.636719 343.488281 492.246094 347.074219 492.539062 C 352.207031 493.023438 355.113281 495.058594 357.921875 496.992188 C 360.632812 498.835938 363.152344 500.675781 367.316406 500.675781 L 367.414062 500.675781 C 371.484375 500.675781 374 498.929688 376.714844 497.089844 C 379.621094 495.152344 382.527344 493.121094 387.851562 492.636719 C 391.242188 492.34375 394.632812 492.730469 398.121094 493.796875 C 398.605469 493.894531 398.992188 493.699219 399.1875 493.214844 C 399.28125 492.730469 399.089844 492.34375 398.605469 492.152344 C 394.925781 490.988281 391.242188 490.601562 387.660156 490.890625 C 381.945312 491.375 378.652344 493.699219 375.746094 495.636719 C 373.128906 497.382812 370.902344 499.027344 367.316406 498.929688 C 363.734375 498.929688 361.507812 497.382812 358.890625 495.542969 C 356.082031 493.605469 352.789062 491.277344 347.171875 490.792969 C 343.394531 490.40625 339.617188 490.890625 335.742188 492.246094 C 335.257812 492.441406 335.0625 492.828125 335.257812 493.3125 C 335.449219 493.796875 335.933594 494.089844 336.320312 493.894531 Z M 399.378906 482.175781 L 334.578125 482.175781 C 332.835938 482.175781 331.382812 483.628906 331.382812 485.371094 L 331.382812 506.003906 C 331.382812 507.746094 332.835938 509.199219 334.578125 509.199219 L 393.179688 509.199219 C 393.472656 509.199219 393.664062 509.296875 393.859375 509.488281 L 398.703125 515.589844 L 398.507812 510.070312 C 398.507812 509.875 398.605469 509.585938 398.703125 509.488281 C 398.894531 509.296875 399.089844 509.199219 399.28125 509.199219 C 401.027344 509.199219 402.480469 507.746094 402.480469 506.003906 L 402.480469 485.371094 C 402.578125 483.53125 401.125 482.175781 399.378906 482.175781 Z M 334.578125 480.429688 L 399.378906 480.429688 C 402.09375 480.429688 404.320312 482.660156 404.320312 485.371094 L 404.320312 506.003906 C 404.320312 508.425781 402.578125 510.457031 400.25 510.84375 L 400.445312 518.109375 C 400.445312 518.496094 400.25 518.789062 399.863281 518.886719 C 399.765625 518.886719 399.671875 518.980469 399.574219 518.980469 C 399.28125 518.980469 399.089844 518.886719 398.894531 518.691406 L 392.695312 510.941406 L 334.480469 510.941406 C 331.769531 510.941406 329.542969 508.714844 329.542969 506.003906 L 329.542969 485.371094 C 329.640625 482.660156 331.867188 480.429688 334.578125 480.429688 Z M 426.308594 649.457031 L 426.308594 647.519531 L 410.617188 647.519531 C 410.617188 648.195312 410.710938 648.777344 410.710938 649.457031 Z M 421.269531 645.773438 L 426.210938 645.773438 L 426.113281 587.367188 C 426.113281 586.882812 426.5 586.496094 426.984375 586.496094 C 427.46875 586.496094 427.855469 586.882812 427.855469 587.367188 L 427.855469 590.273438 C 431.34375 590.660156 434.832031 590.175781 437.835938 588.820312 C 441.417969 587.269531 444.035156 584.65625 445.875 581.941406 L 427.761719 582.136719 C 426.984375 582.136719 424.273438 582.136719 422.335938 584.171875 C 421.367188 585.140625 420.882812 586.300781 420.6875 587.078125 Z M 407.515625 590.078125 C 407.417969 588.238281 407.324219 586.398438 407.03125 584.558594 L 407.03125 584.460938 C 407.03125 584.074219 406.933594 583.6875 406.839844 583.203125 C 405.09375 582.425781 402.867188 581.84375 401.125 582.71875 C 398.992188 583.878906 398.3125 586.980469 398.121094 589.496094 C 397.25 597.730469 396.570312 619.234375 396.28125 645.871094 L 399.378906 645.871094 L 401.800781 586.882812 C 401.800781 586.398438 402.285156 586.011719 402.671875 586.109375 C 403.15625 586.109375 403.542969 586.496094 403.449219 586.980469 L 403.351562 589.109375 Z M 399.1875 649.457031 L 399.28125 647.519531 L 383.882812 647.519531 C 383.882812 648.195312 383.882812 648.777344 383.785156 649.457031 Z M 427.855469 592.015625 L 427.953125 646.648438 L 427.953125 650.328125 C 427.953125 650.519531 427.855469 650.8125 427.664062 650.910156 C 427.46875 651.101562 427.277344 651.199219 427.082031 651.199219 L 426.210938 651.199219 L 426.210938 656.234375 L 403.738281 656.234375 C 404.027344 655.558594 404.417969 654.589844 405.289062 653.910156 C 406.355469 653.039062 407.417969 652.75 408.582031 652.457031 C 409.453125 652.167969 410.617188 651.78125 411.875 651.296875 L 409.742188 651.296875 C 409.257812 651.296875 408.96875 650.910156 408.871094 650.519531 C 408.386719 640.542969 407.808594 630.664062 407.128906 621.171875 C 406.742188 615.746094 406.933594 610.226562 407.128906 604.800781 C 407.324219 600.636719 407.417969 596.277344 407.324219 592.015625 L 403.058594 590.949219 L 400.640625 650.519531 C 400.640625 651.003906 400.25 651.296875 399.765625 651.296875 L 398.21875 651.296875 L 398.21875 656.332031 L 375.746094 656.332031 C 376.035156 655.65625 376.421875 654.6875 377.296875 654.007812 C 378.359375 653.136719 379.425781 652.847656 380.589844 652.554688 C 381.460938 652.265625 382.621094 651.878906 383.882812 651.394531 L 382.621094 651.394531 C 382.429688 651.394531 382.136719 651.296875 382.042969 651.101562 C 381.847656 650.910156 381.75 650.714844 381.847656 650.519531 C 382.621094 632.988281 382.71875 615.941406 382.332031 599.863281 L 382.332031 598.699219 C 382.042969 588.335938 381.75 579.425781 388.144531 573.804688 C 392.503906 569.835938 399.378906 568.382812 407.808594 569.640625 C 408.292969 569.738281 408.582031 570.125 408.484375 570.609375 C 408.386719 571.09375 408 571.382812 407.515625 571.289062 C 401.996094 570.511719 394.246094 570.414062 389.210938 575.066406 C 383.496094 580.199219 383.6875 588.820312 383.980469 598.699219 L 383.980469 599.863281 C 384.367188 614.585938 384.269531 630.179688 383.6875 646.164062 L 394.34375 646.164062 C 394.632812 619.523438 395.3125 597.925781 396.183594 589.59375 C 396.378906 587.65625 396.859375 583.203125 400.15625 581.554688 C 401.898438 580.683594 404.027344 580.683594 406.546875 581.652344 C 406.449219 579.230469 406.839844 576.226562 408.871094 573.710938 C 410.90625 571.09375 414.394531 569.542969 418.945312 569.15625 C 419.429688 569.15625 419.816406 569.445312 419.816406 569.929688 C 419.816406 570.414062 419.527344 570.804688 419.042969 570.804688 C 414.972656 571.09375 411.875 572.449219 410.132812 574.679688 C 408.292969 577.097656 408.097656 580.101562 408.292969 582.328125 C 408.582031 582.621094 408.582031 582.910156 408.484375 583.296875 C 408.484375 583.296875 408.484375 583.394531 408.386719 583.394531 C 408.386719 583.78125 408.484375 584.074219 408.484375 584.363281 L 408.484375 584.558594 C 409.355469 591.339844 409.066406 598.214844 408.871094 604.898438 C 408.679688 610.226562 408.484375 615.746094 408.871094 621.074219 C 409.453125 629.210938 409.9375 637.542969 410.324219 646.066406 L 419.429688 646.066406 L 418.753906 587.269531 L 418.753906 587.074219 C 419.140625 585.625 419.914062 584.363281 420.882812 583.296875 C 423.402344 580.78125 426.597656 580.78125 427.566406 580.78125 L 446.746094 580.585938 C 449.359375 576.035156 449.941406 571.480469 450.039062 571.191406 C 450.136719 570.707031 450.523438 570.414062 451.007812 570.414062 C 451.492188 570.511719 451.78125 570.898438 451.78125 571.382812 C 451.78125 571.773438 451.105469 576.613281 448.199219 581.652344 C 448.199219 581.75 448.101562 581.84375 448.003906 581.941406 C 445.96875 585.332031 442.96875 588.625 438.511719 590.5625 C 435.898438 591.726562 433.085938 592.308594 430.183594 592.308594 C 429.40625 592.113281 428.632812 592.015625 427.855469 592.015625 Z M 510.382812 560.632812 L 343.878906 560.632812 L 343.878906 655.265625 L 345.523438 655.265625 L 345.523438 565.667969 C 345.523438 565.183594 345.910156 564.796875 346.394531 564.796875 L 477.644531 564.796875 C 478.128906 564.796875 478.515625 565.183594 478.515625 565.667969 L 478.515625 655.265625 L 510.480469 655.265625 Z M 384.753906 558.984375 L 392.890625 558.984375 L 388.917969 548.136719 C 387.851562 549.300781 386.882812 550.558594 385.914062 551.816406 C 384.171875 554.046875 383.980469 554.628906 383.882812 555.207031 C 383.589844 556.566406 384.171875 557.921875 384.753906 558.984375 Z M 452.847656 532.929688 C 454.105469 536.125 455.171875 538.546875 455.65625 539.710938 L 456.140625 540.777344 C 459.433594 548.621094 460.5 551.332031 460.113281 555.113281 C 460.015625 556.371094 459.726562 557.628906 459.242188 558.890625 L 511.257812 558.890625 C 511.738281 558.890625 512.128906 559.277344 512.128906 559.761719 L 512.128906 656.140625 C 512.128906 656.625 511.738281 657.011719 511.257812 657.011719 L 477.644531 657.011719 C 477.160156 657.011719 476.773438 656.625 476.773438 656.140625 L 476.773438 566.542969 L 347.171875 566.542969 L 347.171875 656.140625 C 347.171875 656.625 346.785156 657.011719 346.300781 657.011719 L 343.003906 657.011719 C 342.519531 657.011719 342.132812 656.625 342.132812 656.140625 L 342.132812 559.761719 C 342.132812 559.277344 342.519531 558.890625 343.003906 558.890625 L 382.816406 558.890625 C 382.136719 557.4375 381.945312 556.082031 382.234375 554.722656 C 382.429688 553.851562 382.816406 553.078125 384.558594 550.65625 C 385.625 549.203125 386.789062 547.847656 387.949219 546.492188 C 388.046875 546.394531 388.144531 546.296875 388.335938 546.296875 L 381.265625 526.632812 C 393.277344 526.539062 405.191406 526.539062 417.203125 526.441406 C 420.496094 536.902344 423.789062 547.460938 427.082031 557.921875 L 448.296875 558.113281 L 448.296875 558.792969 L 457.59375 558.792969 C 458.078125 557.53125 458.367188 556.175781 458.5625 554.820312 C 458.851562 551.429688 457.789062 548.914062 454.6875 541.355469 L 454.203125 540.292969 C 453.71875 539.03125 452.652344 536.609375 451.394531 533.511719 C 451.199219 533.125 451.394531 532.542969 451.878906 532.445312 C 452.167969 532.347656 452.652344 532.542969 452.847656 532.929688 Z M 441.417969 498.445312 C 440.738281 497.089844 439.09375 495.25 434.929688 494.28125 C 433.667969 489.535156 430.183594 485.953125 426.015625 485.371094 C 422.433594 484.789062 419.625 486.628906 418.847656 487.113281 C 414.296875 490.214844 414.007812 495.636719 414.007812 496.21875 C 414.296875 497.382812 414.683594 498.445312 414.972656 499.609375 C 414.972656 500.675781 414.972656 501.742188 415.070312 502.804688 C 415.363281 506.097656 415.554688 508.90625 417.785156 510.941406 C 418.65625 511.71875 419.722656 512.296875 420.882812 512.589844 L 420.882812 515.300781 C 420.882812 515.785156 421.269531 516.171875 421.753906 516.171875 C 422.238281 516.171875 422.625 515.785156 422.625 515.300781 L 422.625 511.910156 C 422.625 511.523438 422.335938 511.136719 421.949219 511.039062 C 420.785156 510.84375 419.722656 510.359375 418.945312 509.683594 C 417.203125 508.132812 417.105469 505.808594 416.816406 502.613281 C 416.621094 500.773438 416.71875 498.835938 416.910156 496.898438 C 418.171875 496.992188 419.914062 496.800781 421.65625 496.027344 C 423.402344 495.25 424.757812 494.089844 425.53125 493.121094 C 426.308594 494.089844 427.179688 494.863281 428.148438 495.636719 C 429.699219 496.898438 431.539062 497.769531 433.476562 498.253906 C 433.476562 498.253906 434.445312 498.445312 434.636719 499.027344 C 434.929688 499.707031 434.445312 500.867188 433.28125 501.351562 C 433.085938 501.449219 432.894531 501.644531 432.796875 501.933594 C 432.121094 504.355469 431.828125 506.875 431.925781 509.390625 C 432.023438 511.425781 432.3125 513.460938 432.796875 515.496094 C 432.894531 515.882812 433.28125 516.074219 433.570312 516.074219 L 433.765625 516.074219 C 434.152344 515.980469 434.347656 515.6875 434.347656 515.398438 C 436.671875 515.6875 441.03125 516.65625 445.195312 520.046875 C 447.035156 521.597656 448.488281 523.242188 449.554688 524.890625 C 451.976562 524.117188 452.558594 523.339844 452.652344 522.757812 C 452.847656 521.5 450.523438 521.015625 449.265625 518.59375 C 447.8125 515.882812 449.652344 514.234375 448.296875 512.007812 C 446.746094 509.390625 443.9375 510.652344 442.191406 508.132812 C 440.253906 505.226562 443.257812 501.933594 441.417969 498.445312 Z M 416.621094 408.945312 C 411.195312 407.492188 405.964844 407.394531 401.21875 408.753906 C 394.828125 410.496094 391.535156 414.078125 388.53125 417.277344 C 385.820312 420.183594 383.496094 422.699219 379.328125 423.183594 C 374.96875 423.765625 371.96875 421.730469 368.382812 419.40625 C 364.605469 416.890625 360.34375 414.078125 353.855469 414.371094 C 349.300781 414.5625 344.847656 416.308594 340.488281 419.40625 C 340.101562 419.699219 340.003906 420.183594 340.292969 420.570312 C 340.585938 420.957031 341.070312 421.054688 341.457031 420.761719 C 345.523438 417.859375 349.6875 416.308594 353.953125 416.113281 C 359.859375 415.824219 363.734375 418.4375 367.511719 420.859375 C 370.804688 422.992188 373.90625 425.023438 377.972656 425.023438 C 378.457031 425.023438 379.039062 425.023438 379.621094 424.929688 C 384.367188 424.347656 386.980469 421.539062 389.789062 418.4375 C 392.695312 415.242188 395.796875 412.046875 401.703125 410.398438 C 406.160156 409.140625 411.101562 409.238281 416.234375 410.59375 C 416.71875 410.691406 417.105469 410.398438 417.300781 410.011719 C 417.300781 409.527344 417.007812 409.042969 416.621094 408.945312 Z M 376.328125 452.339844 L 367.996094 452.339844 C 367.511719 452.339844 367.125 452.726562 367.125 453.210938 C 367.125 453.695312 367.511719 454.082031 367.996094 454.082031 L 376.328125 454.082031 C 376.8125 454.082031 377.199219 453.695312 377.199219 453.210938 C 377.199219 452.726562 376.8125 452.339844 376.328125 452.339844 Z M 387.949219 452.339844 L 379.621094 452.339844 C 379.136719 452.339844 378.746094 452.726562 378.746094 453.210938 C 378.746094 453.695312 379.136719 454.082031 379.621094 454.082031 L 387.949219 454.082031 C 388.433594 454.082031 388.820312 453.695312 388.820312 453.210938 C 388.820312 452.726562 388.433594 452.339844 387.949219 452.339844 Z M 399.476562 452.339844 L 391.144531 452.339844 C 390.660156 452.339844 390.273438 452.726562 390.273438 453.210938 C 390.273438 453.695312 390.660156 454.082031 391.144531 454.082031 L 399.476562 454.082031 C 399.960938 454.082031 400.347656 453.695312 400.347656 453.210938 C 400.347656 452.726562 399.863281 452.339844 399.476562 452.339844 Z M 403.058594 453.988281 L 411.390625 453.988281 C 411.875 453.988281 412.261719 453.601562 412.261719 453.117188 C 412.261719 452.632812 411.875 452.242188 411.390625 452.242188 L 403.058594 452.242188 C 402.574219 452.242188 402.1875 452.632812 402.1875 453.117188 C 402.1875 453.601562 402.574219 453.988281 403.058594 453.988281 Z M 375.453125 439.070312 L 368.867188 439.070312 L 368.867188 449.628906 L 375.453125 449.628906 Z M 377.199219 450.402344 C 377.199219 450.886719 376.8125 451.273438 376.328125 451.273438 L 367.996094 451.273438 C 367.511719 451.273438 367.125 450.886719 367.125 450.402344 L 367.125 438.199219 C 367.125 437.714844 367.511719 437.328125 367.996094 437.328125 L 376.328125 437.328125 C 376.8125 437.328125 377.199219 437.714844 377.199219 438.199219 Z M 387.175781 435.679688 L 380.589844 435.679688 L 380.589844 449.53125 L 387.175781 449.53125 Z M 388.820312 450.402344 C 388.820312 450.886719 388.433594 451.273438 387.949219 451.273438 L 379.621094 451.273438 C 379.136719 451.273438 378.746094 450.886719 378.746094 450.402344 L 378.746094 434.808594 C 378.746094 434.324219 379.136719 433.9375 379.621094 433.9375 L 387.949219 433.9375 C 388.433594 433.9375 388.820312 434.324219 388.820312 434.808594 Z M 398.605469 428.609375 L 392.019531 428.609375 L 392.019531 449.53125 L 398.605469 449.53125 Z M 400.25 450.402344 C 400.25 450.886719 399.863281 451.273438 399.378906 451.273438 L 391.050781 451.273438 C 390.566406 451.273438 390.179688 450.886719 390.179688 450.402344 L 390.179688 427.738281 C 390.179688 427.253906 390.566406 426.867188 391.050781 426.867188 L 399.378906 426.867188 C 399.863281 426.867188 400.25 427.253906 400.25 427.738281 Z M 403.933594 449.53125 L 410.519531 449.53125 L 410.519531 415.046875 L 403.933594 415.046875 Z M 402.1875 450.402344 L 402.1875 414.273438 C 402.1875 413.789062 402.574219 413.402344 403.058594 413.402344 L 411.390625 413.402344 C 411.875 413.402344 412.261719 413.789062 412.261719 414.273438 L 412.261719 450.402344 C 412.261719 450.886719 411.875 451.273438 411.390625 451.273438 L 403.058594 451.273438 C 402.574219 451.273438 402.1875 450.886719 402.1875 450.402344 Z M 276.171875 524.117188 C 275.6875 524.019531 275.300781 524.308594 275.203125 524.792969 L 252.632812 649.84375 C 252.535156 650.230469 252.828125 650.714844 253.214844 650.8125 L 256.703125 651.683594 C 256.703125 652.554688 256.703125 653.425781 256.605469 654.296875 C 257.765625 654.78125 259.316406 655.363281 261.058594 655.65625 C 263.675781 656.140625 266 656.140625 267.648438 656.042969 C 267.9375 654.878906 268.324219 653.621094 268.617188 652.457031 C 270.066406 652.363281 271.519531 652.167969 272.972656 651.878906 C 273.265625 651.78125 273.554688 651.585938 273.652344 651.296875 C 277.71875 635.3125 281.402344 619.039062 284.792969 602.960938 C 287.988281 587.558594 290.894531 571.964844 293.414062 556.371094 L 297.867188 649.261719 C 297.867188 649.648438 298.160156 649.941406 298.546875 650.035156 C 299.707031 650.328125 300.96875 650.519531 302.226562 650.714844 L 302.226562 656.042969 C 310.652344 656.042969 319.175781 655.945312 327.605469 655.945312 C 327.410156 655.074219 327.121094 653.8125 326.054688 653.039062 C 324.890625 652.070312 323.441406 652.265625 322.082031 652.265625 C 320.628906 652.265625 318.691406 651.972656 316.273438 650.910156 C 317.046875 650.8125 317.917969 650.714844 318.691406 650.519531 C 319.082031 650.425781 319.371094 650.132812 319.371094 649.746094 C 320.242188 631.730469 320.628906 613.421875 320.628906 595.308594 C 320.535156 571.289062 319.660156 546.976562 317.917969 523.050781 C 317.917969 522.566406 317.53125 522.273438 317.046875 522.273438 C 316.5625 522.273438 316.273438 522.664062 316.273438 523.148438 C 318.015625 547.070312 318.886719 571.289062 318.984375 595.210938 C 319.082031 613.035156 318.691406 631.050781 317.820312 648.875 C 314.238281 649.457031 310.558594 649.648438 306.972656 649.359375 C 304.550781 649.164062 302.03125 648.875 299.609375 648.292969 L 294.769531 547.945312 C 294.769531 547.554688 294.378906 547.167969 293.992188 547.167969 C 293.507812 547.167969 293.21875 547.460938 293.121094 547.847656 C 290.3125 566.058594 286.921875 584.363281 283.242188 602.378906 C 279.949219 618.265625 276.265625 634.34375 272.296875 650.132812 C 269.195312 650.617188 266.097656 650.8125 262.902344 650.617188 C 260.089844 650.425781 257.28125 649.941406 254.472656 649.261719 L 276.847656 524.890625 C 276.945312 524.695312 276.65625 524.210938 276.171875 524.117188 Z M 311.042969 430.253906 C 309.878906 429.773438 309.007812 430.933594 306.199219 431.320312 C 304.261719 431.613281 303.582031 431.222656 301.355469 431.128906 C 299.902344 431.03125 295.445312 430.835938 291.765625 433.257812 C 290.699219 433.9375 288.859375 435.390625 287.503906 438.199219 C 286.824219 438.585938 285.855469 439.167969 285.277344 440.328125 C 284.210938 442.652344 286.050781 445.171875 288.179688 450.210938 C 288.859375 451.757812 289.730469 454.085938 290.601562 457.085938 L 290.601562 462.898438 C 290.601562 463.382812 290.992188 463.769531 291.476562 463.769531 C 291.960938 463.769531 292.347656 463.382812 292.347656 462.898438 L 292.347656 458.152344 C 293.894531 458.25 295.445312 458.152344 296.996094 457.863281 C 299.417969 457.472656 301.257812 457.085938 302.710938 455.441406 C 304.359375 453.601562 304.453125 451.082031 304.359375 449.726562 C 304.359375 449.433594 304.164062 449.144531 303.875 449.046875 C 303.097656 448.757812 302.710938 447.886719 303 447.109375 C 303.097656 446.722656 303.390625 446.433594 303.777344 446.335938 C 304.164062 446.140625 304.550781 446.140625 304.9375 446.335938 C 305.230469 446.433594 305.421875 446.433594 305.714844 446.238281 C 305.90625 446.140625 306.101562 445.851562 306.101562 445.558594 C 306.199219 444.785156 306.488281 443.621094 307.359375 442.460938 C 307.652344 442.074219 308.039062 441.6875 308.523438 441.394531 C 308.8125 443.332031 309.007812 445.269531 309.105469 447.207031 C 309.492188 452.726562 309.589844 455.535156 307.941406 456.796875 C 307.070312 457.570312 305.714844 457.863281 303.96875 457.570312 C 303.777344 457.570312 303.484375 457.570312 303.292969 457.765625 C 303.097656 457.957031 303 458.152344 303 458.347656 L 303 462.800781 C 303 463.285156 303.390625 463.671875 303.875 463.671875 C 304.359375 463.671875 304.746094 463.285156 304.746094 462.800781 L 304.746094 459.21875 C 306.585938 459.316406 308.039062 458.832031 309.105469 457.957031 C 311.332031 456.019531 311.136719 452.632812 310.847656 446.917969 C 310.75 444.6875 310.460938 442.460938 310.074219 440.328125 C 311.042969 439.265625 312.203125 437.617188 312.492188 435.390625 C 312.6875 434.035156 312.589844 430.933594 311.042969 430.253906 Z M 634.949219 421.828125 C 620.808594 385.214844 598.433594 351.507812 570.148438 324.09375 L 531.304688 362.160156 L 485.976562 406.523438 L 486.75 407.300781 C 487.234375 407.785156 487.71875 408.269531 488.203125 408.65625 C 488.589844 409.042969 488.878906 409.429688 489.269531 409.722656 C 489.847656 410.300781 490.429688 410.980469 491.011719 411.5625 C 491.300781 411.851562 491.496094 412.140625 491.785156 412.433594 C 492.464844 413.109375 493.140625 413.886719 493.722656 414.660156 L 494.304688 415.242188 C 495.078125 416.113281 495.757812 416.890625 496.53125 417.761719 C 496.628906 417.859375 496.726562 417.953125 496.824219 418.148438 C 498.46875 420.085938 500.117188 422.121094 501.667969 424.152344 C 501.761719 424.25 501.761719 424.347656 501.859375 424.445312 C 502.539062 425.316406 503.214844 426.285156 503.894531 427.15625 C 504.089844 427.351562 504.28125 427.640625 504.378906 427.835938 C 504.960938 428.609375 505.539062 429.480469 506.121094 430.253906 C 506.316406 430.546875 506.414062 430.738281 506.605469 431.03125 C 507.1875 431.902344 507.769531 432.675781 508.253906 433.550781 C 508.351562 433.742188 508.542969 433.9375 508.640625 434.128906 C 509.222656 435.097656 509.898438 436.066406 510.480469 437.035156 C 510.480469 437.132812 510.578125 437.230469 510.578125 437.230469 C 526.851562 463.578125 535.375 494.378906 534.40625 526.246094 L 652.964844 533.609375 C 654.804688 495.832031 648.605469 457.183594 634.949219 421.828125 Z M 541.769531 349.667969 C 528.011719 334.847656 512.128906 322.253906 494.5 312.277344 C 475.320312 301.523438 454.589844 294.066406 432.894531 290.191406 L 428.4375 307.726562 L 413.910156 366.230469 C 415.457031 366.617188 417.007812 367.101562 418.558594 367.488281 C 419.140625 367.683594 419.625 367.78125 420.207031 367.972656 C 421.078125 368.265625 422.046875 368.554688 422.917969 368.84375 C 423.691406 369.039062 424.46875 369.328125 425.242188 369.621094 C 425.628906 369.714844 425.921875 369.8125 426.308594 370.007812 C 428.148438 370.683594 429.988281 371.265625 431.828125 372.042969 C 432.3125 372.234375 432.699219 372.429688 433.183594 372.527344 C 434.152344 372.914062 435.023438 373.300781 435.992188 373.6875 C 436.382812 373.785156 436.671875 373.980469 437.058594 374.171875 C 438.707031 374.851562 440.351562 375.625 442 376.304688 C 442.484375 376.59375 443.066406 376.789062 443.550781 377.078125 C 444.324219 377.464844 445.195312 377.851562 445.96875 378.242188 C 446.648438 378.628906 447.328125 378.917969 448.003906 379.304688 C 449.070312 379.886719 450.136719 380.371094 451.199219 380.953125 C 451.976562 381.4375 452.847656 381.824219 453.621094 382.308594 C 453.914062 382.503906 454.300781 382.695312 454.589844 382.792969 C 454.882812 382.988281 455.269531 383.179688 455.558594 383.375 C 456.140625 383.761719 456.722656 384.050781 457.304688 384.441406 C 457.882812 384.828125 458.464844 385.117188 459.046875 385.503906 C 460.210938 386.183594 461.273438 386.957031 462.4375 387.636719 C 462.824219 387.828125 463.113281 388.121094 463.503906 388.3125 L 466.117188 390.058594 C 466.503906 390.347656 466.894531 390.640625 467.28125 390.832031 C 468.152344 391.414062 469.023438 392.09375 469.796875 392.671875 C 470.089844 392.867188 470.476562 393.15625 470.765625 393.351562 L 474.253906 395.964844 L 474.351562 396.0625 L 477.546875 398.679688 C 477.933594 398.96875 478.226562 399.261719 478.613281 399.550781 C 479.386719 400.226562 480.066406 400.808594 480.839844 401.488281 C 481.230469 401.875 481.617188 402.164062 482.003906 402.554688 C 482.777344 403.230469 483.457031 403.910156 484.230469 404.585938 C 484.523438 404.878906 484.8125 405.070312 485.007812 405.363281 Z M 431.441406 289.03125 L 434.347656 277.503906 C 425.339844 274.015625 415.941406 271.789062 406.355469 270.917969 C 396.28125 269.949219 386.207031 270.527344 376.230469 272.5625 L 378.941406 361.386719 C 389.984375 361.675781 401.125 363.226562 411.972656 365.84375 L 412.164062 365.84375 Z M 654.710938 534.671875 C 654.710938 534.867188 654.613281 535.0625 654.417969 535.253906 C 654.226562 535.351562 654.03125 535.449219 653.835938 535.449219 L 653.742188 535.449219 L 603.179688 532.347656 C 602.113281 555.113281 597.558594 577.582031 589.714844 599.183594 C 568.890625 656.625 526.949219 702.632812 471.640625 728.59375 C 440.738281 743.023438 407.808594 750.289062 374.679688 750.289062 C 348.429688 750.289062 322.082031 745.738281 296.707031 736.535156 C 239.269531 715.710938 193.257812 673.769531 167.296875 618.460938 C 141.339844 563.152344 138.527344 500.964844 159.359375 443.527344 C 175.628906 398.386719 204.980469 360.324219 244.207031 333.199219 C 282.5625 306.660156 327.410156 292.519531 373.90625 292.421875 C 374.390625 292.421875 374.777344 292.804688 374.777344 293.289062 C 374.777344 293.773438 374.390625 294.164062 373.90625 294.164062 C 278.882812 294.359375 193.351562 354.605469 161 444.011719 C 118.382812 561.796875 179.503906 692.269531 297.285156 734.890625 C 354.339844 755.519531 416.039062 752.710938 470.960938 726.945312 C 525.882812 701.179688 567.53125 655.558594 588.164062 598.507812 C 595.914062 577.003906 600.464844 554.726562 601.53125 532.058594 L 534.40625 527.894531 C 534.019531 537.582031 532.664062 547.460938 530.433594 557.242188 C 530.335938 557.726562 529.855469 558.019531 529.464844 557.824219 C 528.980469 557.726562 528.691406 557.242188 528.886719 556.855469 C 531.210938 546.878906 532.46875 537 532.855469 527.121094 L 532.855469 527.023438 C 533.632812 503.679688 529.273438 480.140625 520.070312 458.734375 C 516.972656 451.46875 513.289062 444.496094 509.222656 437.8125 C 509.222656 437.714844 509.125 437.714844 509.125 437.617188 C 508.542969 436.648438 507.867188 435.585938 507.1875 434.617188 C 507.089844 434.519531 506.992188 434.324219 506.898438 434.226562 C 506.316406 433.257812 505.636719 432.386719 504.960938 431.417969 C 504.863281 431.320312 504.765625 431.128906 504.667969 431.03125 C 503.214844 428.902344 501.667969 426.867188 500.117188 424.734375 C 500.117188 424.640625 500.019531 424.640625 500.019531 424.542969 C 499.246094 423.574219 498.566406 422.703125 497.792969 421.734375 C 497.597656 421.539062 497.40625 421.34375 497.308594 421.152344 C 496.628906 420.375 496.046875 419.601562 495.371094 418.828125 C 495.175781 418.535156 494.984375 418.34375 494.691406 418.050781 C 494.109375 417.375 493.433594 416.597656 492.851562 415.921875 C 492.660156 415.628906 492.367188 415.4375 492.175781 415.144531 C 491.59375 414.46875 490.914062 413.789062 490.332031 413.113281 L 489.460938 412.242188 L 487.71875 410.496094 C 487.332031 410.109375 487.039062 409.722656 486.652344 409.429688 L 485.394531 408.171875 C 484.910156 407.6875 484.425781 407.203125 483.84375 406.71875 C 482.875 405.847656 481.90625 404.878906 480.9375 404.007812 C 480.648438 403.714844 480.261719 403.425781 479.96875 403.136719 L 477.644531 401.101562 C 477.257812 400.808594 476.964844 400.519531 476.578125 400.230469 C 475.707031 399.453125 474.835938 398.777344 473.964844 398.097656 C 473.769531 397.90625 473.480469 397.710938 473.285156 397.515625 C 472.125 396.644531 471.058594 395.773438 469.894531 394.902344 C 469.605469 394.707031 469.410156 394.515625 469.121094 394.320312 C 468.25 393.644531 467.28125 392.964844 466.410156 392.285156 C 466.019531 391.996094 465.632812 391.707031 465.246094 391.511719 C 464.375 390.929688 463.597656 390.347656 462.726562 389.769531 C 462.339844 389.476562 461.953125 389.285156 461.566406 388.992188 C 460.5 388.21875 459.335938 387.539062 458.175781 386.863281 C 457.59375 386.476562 457.011719 386.183594 456.527344 385.894531 C 455.949219 385.507812 455.269531 385.117188 454.6875 384.730469 C 454.105469 384.34375 453.429688 384.054688 452.847656 383.664062 C 451.976562 383.179688 451.105469 382.695312 450.328125 382.214844 C 449.359375 381.730469 448.390625 381.148438 447.328125 380.664062 C 446.648438 380.277344 445.875 379.886719 445.195312 379.597656 L 442.871094 378.433594 C 442.289062 378.144531 441.707031 377.949219 441.222656 377.660156 C 439.769531 376.980469 438.222656 376.304688 436.769531 375.722656 C 436.285156 375.53125 435.800781 375.335938 435.414062 375.140625 C 434.539062 374.753906 433.570312 374.367188 432.699219 374.078125 L 431.246094 373.496094 C 430.472656 373.203125 429.601562 372.914062 428.824219 372.625 C 428.050781 372.332031 427.277344 372.140625 426.597656 371.847656 C 426.015625 371.65625 425.339844 371.460938 424.757812 371.171875 C 423.984375 370.878906 423.207031 370.6875 422.53125 370.394531 C 421.5625 370.105469 420.496094 369.816406 419.527344 369.425781 C 419.042969 369.332031 418.65625 369.136719 418.171875 369.039062 C 416.523438 368.554688 414.878906 368.167969 413.132812 367.683594 C 407.902344 366.425781 402.578125 365.359375 397.25 364.582031 C 391.144531 363.710938 384.851562 363.226562 378.652344 363.035156 L 378.457031 363.035156 C 354.339844 362.453125 330.316406 367.488281 307.84375 378.046875 C 269.101562 395.96875 240.140625 427.738281 225.707031 467.453125 C 206.238281 521.308594 217.472656 581.75 254.957031 625.046875 C 255.25 625.433594 255.25 625.917969 254.859375 626.210938 C 254.667969 626.304688 254.472656 626.402344 254.28125 626.402344 C 254.085938 626.402344 253.796875 626.304688 253.601562 626.113281 C 215.632812 582.332031 204.300781 521.308594 224.058594 466.871094 C 238.589844 426.671875 267.9375 394.613281 306.585938 376.5 C 329.058594 365.941406 353.078125 360.902344 377.199219 361.292969 L 374.390625 271.789062 C 374.390625 271.402344 374.679688 271.011719 375.066406 270.917969 C 385.335938 268.789062 395.894531 268.207031 406.355469 269.175781 C 416.332031 270.144531 426.113281 272.464844 435.507812 276.148438 C 435.898438 276.339844 436.089844 276.730469 435.992188 277.117188 L 433.28125 288.546875 C 455.171875 292.421875 475.996094 299.878906 495.273438 310.824219 C 513 320.804688 529.078125 333.488281 542.929688 348.503906 L 569.566406 322.449219 C 569.859375 322.15625 570.4375 322.15625 570.730469 322.449219 C 599.402344 350.054688 622.164062 384.246094 636.5 421.34375 C 650.351562 457.085938 656.648438 496.21875 654.710938 534.675781 Z M 344.363281 441.78125 C 343.878906 441.78125 343.488281 442.171875 343.488281 442.652344 L 343.488281 447.109375 C 343.488281 447.59375 343.878906 447.980469 344.363281 447.980469 C 344.847656 447.980469 345.234375 447.59375 345.234375 447.109375 L 345.234375 443.429688 L 347.558594 443.429688 C 348.042969 443.429688 348.429688 443.042969 348.429688 442.558594 C 348.429688 442.074219 348.042969 441.6875 347.558594 441.6875 Z M 360.441406 430.0625 C 361.214844 430.253906 362.183594 430.546875 362.960938 430.933594 L 362.960938 428.609375 L 361.117188 428.609375 C 360.925781 429.09375 360.730469 429.578125 360.441406 430.0625 Z M 364.703125 450.402344 C 364.703125 450.886719 364.316406 451.273438 363.832031 451.273438 L 356.855469 451.273438 C 356.371094 451.273438 355.984375 450.886719 355.984375 450.402344 C 355.984375 449.917969 356.371094 449.53125 356.855469 449.53125 L 363.054688 449.53125 L 363.054688 437.421875 C 361.894531 438.683594 360.632812 439.941406 359.375 441.203125 C 359.183594 441.394531 358.988281 441.394531 358.792969 441.394531 C 358.601562 441.394531 358.308594 441.296875 358.214844 441.105469 C 357.921875 440.8125 357.921875 440.234375 358.214844 439.941406 C 359.472656 438.78125 360.632812 437.519531 361.796875 436.261719 C 362.863281 435.097656 363.929688 433.9375 363.832031 433.644531 C 363.734375 432.773438 361.3125 431.804688 359.085938 431.417969 C 358.792969 431.417969 358.601562 431.222656 358.503906 430.933594 C 358.40625 430.738281 358.40625 430.449219 358.503906 430.160156 C 359.570312 428.027344 360.34375 426.476562 360.828125 425.414062 C 359.761719 426.671875 358.214844 428.707031 355.886719 432 C 355.695312 432.289062 355.402344 432.386719 355.113281 432.386719 C 354.824219 432.386719 354.53125 432.191406 354.433594 431.902344 C 354.242188 431.417969 354.046875 431.03125 353.855469 430.644531 C 353.953125 431.417969 354.046875 432.386719 354.242188 433.550781 C 354.433594 434.90625 354.53125 436.359375 354.628906 437.714844 C 354.628906 438.199219 354.339844 438.585938 353.855469 438.585938 C 353.371094 438.585938 352.984375 438.296875 352.984375 437.8125 C 352.886719 436.453125 352.789062 435.097656 352.59375 433.742188 C 352.402344 432.191406 352.304688 430.933594 352.109375 429.867188 C 351.722656 427.253906 351.625 426.574219 352.59375 426.285156 C 353.273438 426.089844 353.757812 426.382812 354.824219 428.511719 L 354.824219 427.738281 C 354.824219 427.253906 355.210938 426.867188 355.695312 426.867188 L 357.632812 426.867188 C 361.894531 421.246094 362.378906 421.441406 363.054688 421.925781 C 363.734375 422.3125 364.023438 422.796875 362.085938 426.867188 L 363.929688 426.867188 C 364.414062 426.867188 364.800781 427.253906 364.800781 427.738281 L 364.800781 432 C 365.285156 432.386719 365.574219 432.96875 365.574219 433.550781 C 365.671875 434.128906 365.476562 434.710938 364.800781 435.582031 Z M 364.703125 453.117188 C 364.703125 453.601562 364.316406 453.988281 363.832031 453.988281 L 355.5 453.988281 C 355.015625 453.988281 354.628906 453.601562 354.628906 453.117188 C 354.628906 452.632812 355.015625 452.242188 355.5 452.242188 L 363.832031 452.242188 C 364.316406 452.339844 364.703125 452.726562 364.703125 453.117188 " fill-opacity="1" fill-rule="nonzero"/></g><path fill="#fac65a" d="M 291.476562 462.898438 C 287.40625 463.09375 278.785156 464.253906 272.683594 470.746094 C 270.941406 472.679688 268.808594 475.492188 265.804688 485.660156 C 263.964844 491.667969 261.835938 500.191406 260.574219 510.941406 C 262.125 512.203125 264.351562 513.75 267.257812 515.011719 C 270.746094 516.464844 273.847656 517.042969 276.074219 517.238281 L 276.074219 524.890625 C 281.980469 525.375 288.570312 525.570312 295.738281 525.277344 C 303.582031 524.988281 310.75 524.210938 317.046875 523.242188 C 316.273438 509.683594 315.496094 496.21875 314.722656 482.660156 C 321.210938 481.011719 326.539062 479.363281 330.414062 478.105469 C 340.390625 474.8125 342.519531 473.164062 343.878906 472.101562 C 346.007812 470.355469 347.753906 468.226562 351.917969 460.1875 C 354.242188 455.730469 357.246094 449.628906 360.441406 442.167969 C 359.570312 441.203125 358.019531 439.75 355.792969 438.488281 C 353.855469 437.519531 352.207031 437.035156 350.949219 436.84375 C 345.71875 444.882812 340.488281 452.921875 335.160156 460.863281 C 330.125 461.929688 324.019531 462.800781 317.144531 463.09375 C 312.203125 463.285156 307.746094 463.09375 303.777344 462.703125 C 302.613281 463.1875 300.484375 463.964844 297.675781 464.0625 C 294.863281 464.253906 292.734375 463.480469 291.476562 462.898438 Z M 410.519531 565.667969 C 410.519531 566.152344 410.324219 567.121094 409.742188 568.1875 C 409.164062 569.253906 408.386719 569.835938 407.902344 570.125 C 414.296875 569.738281 421.171875 569.445312 428.535156 569.640625 C 436.671875 569.738281 444.128906 570.320312 451.105469 571.09375 L 449.359375 565.765625 C 436.382812 565.667969 423.5 565.667969 410.519531 565.667969 Z M 426.984375 521.886719 C 430.277344 522.273438 433.765625 519.371094 433.667969 515.300781 C 435.605469 515.496094 440.644531 516.269531 445.292969 520.046875 C 450.71875 524.503906 452.265625 530.21875 452.75 532.058594 L 439.964844 534.671875 L 445.097656 551.238281 L 425.046875 552.207031 L 417.105469 526.730469 L 401.21875 526.828125 C 403.253906 524.792969 406.355469 521.984375 410.617188 519.660156 C 414.972656 517.238281 418.945312 516.074219 421.753906 515.496094 C 421.65625 518.691406 424.078125 521.597656 426.984375 521.886719 " fill-opacity="1" fill-rule="nonzero"/><g mask="url(#69c62e34a3)"><g transform="matrix(1, 0, 0, 1, 539, 0.000000000000039746)"><g clip-path="url(#3450e7c43a)"><g clip-path="url(#63ce9ea11a)"><g clip-path="url(#54d2d1ee1d)"><g clip-path="url(#fae85d212d)"><path fill="#e6e6e6" d="M 419.847656 -78.398438 C 481.035156 -48.128906 500.617188 6.011719 488.9375 52.207031 C 479.480469 89.617188 449.515625 121.816406 404.535156 131.898438 C 386.097656 136.03125 367.300781 134.984375 347.746094 133.175781 C 283.863281 127.269531 288.324219 125.078125 231.121094 151.128906 C 143.050781 191.238281 39.289062 110.5625 45.359375 19.648438 C 48.980469 -34.578125 84.867188 -92.90625 181.691406 -118.117188 C 242.261719 -133.890625 249.691406 -211.1875 320.191406 -196.867188 C 339.652344 -192.917969 357.59375 -181.769531 366.210938 -165 C 380.265625 -137.640625 373.835938 -101.164062 419.847656 -78.398438 " fill-opacity="1" fill-rule="evenodd"/></g></g></g></g></g></g><g fill="#5c6b8b" fill-opacity="1"><g transform="translate(80.999999, 164.100012)"><g><path d="M 41.40625 -61.921875 C 45.238281 -61.921875 48.65625 -61.035156 51.65625 -59.265625 C 54.65625 -57.492188 56.992188 -55.0625 58.671875 -51.96875 C 60.359375 -48.882812 61.203125 -45.421875 61.203125 -41.578125 L 61.203125 -40.40625 C 61.203125 -36.570312 60.359375 -33.09375 58.671875 -29.96875 C 56.992188 -26.851562 54.65625 -24.410156 51.65625 -22.640625 C 48.65625 -20.867188 45.238281 -19.984375 41.40625 -19.984375 L 26.546875 -19.984375 L 26.546875 0 L 6.65625 0 L 6.65625 -61.921875 Z M 26.546875 -34.46875 L 34.734375 -34.46875 C 36.835938 -34.46875 38.414062 -35.003906 39.46875 -36.078125 C 40.519531 -37.160156 41.046875 -38.632812 41.046875 -40.5 L 41.046875 -41.21875 C 41.046875 -43.132812 40.519531 -44.617188 39.46875 -45.671875 C 38.414062 -46.722656 36.835938 -47.25 34.734375 -47.25 L 26.546875 -47.25 Z M 26.546875 -34.46875 "/></g></g></g><g fill="#5c6b8b" fill-opacity="1"><g transform="translate(145.979938, 164.100012)"><g><path d="M 65.4375 -42.9375 C 65.4375 -39.15625 64.414062 -35.734375 62.375 -32.671875 C 60.332031 -29.609375 57.359375 -27.359375 53.453125 -25.921875 L 67.234375 0 L 44.90625 0 L 33.9375 -22.59375 L 26.546875 -22.59375 L 26.546875 0 L 6.65625 0 L 6.65625 -61.921875 L 44.546875 -61.921875 C 48.984375 -61.921875 52.773438 -61.066406 55.921875 -59.359375 C 59.078125 -57.648438 61.453125 -55.335938 63.046875 -52.421875 C 64.640625 -49.515625 65.4375 -46.351562 65.4375 -42.9375 Z M 45.1875 -42.125 C 45.1875 -43.738281 44.644531 -45.085938 43.5625 -46.171875 C 42.476562 -47.253906 41.15625 -47.796875 39.59375 -47.796875 L 26.546875 -47.796875 L 26.546875 -36.359375 L 39.59375 -36.359375 C 41.15625 -36.359375 42.476562 -36.910156 43.5625 -38.015625 C 44.644531 -39.128906 45.1875 -40.5 45.1875 -42.125 Z M 45.1875 -42.125 "/></g></g></g><g fill="#5c6b8b" fill-opacity="1"><g transform="translate(215.999867, 164.100012)"><g><path d="M 6.65625 -61.921875 L 60.203125 -61.921875 L 60.203125 -47.0625 L 26.546875 -47.0625 L 26.546875 -38.515625 L 55.34375 -38.515625 L 55.34375 -24.296875 L 26.546875 -24.296875 L 26.546875 -14.84375 L 60.84375 -14.84375 L 60.84375 0 L 6.65625 0 Z M 6.65625 -61.921875 "/></g></g></g><g fill="#5c6b8b" fill-opacity="1"><g transform="translate(280.979817, 164.100012)"><g><path d="M 3.515625 -17.640625 L 3.515625 -31.859375 L 26.453125 -31.859375 L 26.453125 -17.640625 Z M 3.515625 -17.640625 "/></g></g></g><g fill="#5c6b8b" fill-opacity="1"><g transform="translate(310.949786, 164.100012)"><g><path d="M 41.40625 -61.921875 C 45.238281 -61.921875 48.65625 -61.035156 51.65625 -59.265625 C 54.65625 -57.492188 56.992188 -55.0625 58.671875 -51.96875 C 60.359375 -48.882812 61.203125 -45.421875 61.203125 -41.578125 L 61.203125 -40.40625 C 61.203125 -36.570312 60.359375 -33.09375 58.671875 -29.96875 C 56.992188 -26.851562 54.65625 -24.410156 51.65625 -22.640625 C 48.65625 -20.867188 45.238281 -19.984375 41.40625 -19.984375 L 26.546875 -19.984375 L 26.546875 0 L 6.65625 0 L 6.65625 -61.921875 Z M 26.546875 -34.46875 L 34.734375 -34.46875 C 36.835938 -34.46875 38.414062 -35.003906 39.46875 -36.078125 C 40.519531 -37.160156 41.046875 -38.632812 41.046875 -40.5 L 41.046875 -41.21875 C 41.046875 -43.132812 40.519531 -44.617188 39.46875 -45.671875 C 38.414062 -46.722656 36.835938 -47.25 34.734375 -47.25 L 26.546875 -47.25 Z M 26.546875 -34.46875 "/></g></g></g><g fill="#5c6b8b" fill-opacity="1"><g transform="translate(375.929725, 164.100012)"><g><path d="M 6.65625 -61.921875 L 26.546875 -61.921875 L 26.546875 -15.84375 L 58.3125 -15.84375 L 58.3125 0 L 6.65625 0 Z M 6.65625 -61.921875 "/></g></g></g><g fill="#5c6b8b" fill-opacity="1"><g transform="translate(435.95966, 164.100012)"><g><path d="M 48.15625 0 L 45.546875 -8.734375 L 23.84375 -8.734375 L 21.234375 0 L 0.90625 0 L 23.484375 -61.921875 L 46.625 -61.921875 L 69.203125 0 Z M 27.984375 -22.59375 L 41.40625 -22.59375 L 34.921875 -44.640625 L 34.5625 -44.640625 Z M 27.984375 -22.59375 "/></g></g></g><g fill="#5c6b8b" fill-opacity="1"><g transform="translate(505.979577, 164.100012)"><g><path d="M 50.9375 0 L 24.9375 -30.0625 L 24.9375 0 L 6.65625 0 L 6.65625 -61.921875 L 24.03125 -61.921875 L 50.046875 -31.40625 L 50.046875 -61.921875 L 68.3125 -61.921875 L 68.3125 0 Z M 50.9375 0 "/></g></g></g><path stroke-linecap="butt" transform="matrix(0.75, 0, 0, 0.75, 80.999999, 188.700011)" fill="none" stroke-linejoin="miter" d="M 0.000000766667 4.998945 L 468.916691 4.998945 " stroke="#5c6b8b" stroke-width="10" stroke-opacity="1" stroke-miterlimit="4"/></svg>