<svg xmlns="http://www.w3.org/2000/svg" xmlns:xlink="http://www.w3.org/1999/xlink" width="500" zoomAndPan="magnify" viewBox="0 0 375 374.999991" height="500" preserveAspectRatio="xMidYMid meet" version="1.0"><defs><g/><clipPath id="ca42ea8c57"><path d="M 109.605469 158 L 111 158 L 111 170 L 109.605469 170 Z M 109.605469 158 " clip-rule="nonzero"/></clipPath><clipPath id="57cebf276f"><path d="M 188 259 L 195 259 L 195 260.777344 L 188 260.777344 Z M 188 259 " clip-rule="nonzero"/></clipPath><clipPath id="470d08f260"><path d="M 194 259 L 200 259 L 200 260.777344 L 194 260.777344 Z M 194 259 " clip-rule="nonzero"/></clipPath><clipPath id="e8e50797a3"><path d="M 204 260 L 208 260 L 208 260.777344 L 204 260.777344 Z M 204 260 " clip-rule="nonzero"/></clipPath><clipPath id="a1531397b4"><path d="M 157 89.027344 L 163 89.027344 L 163 93 L 157 93 Z M 157 89.027344 " clip-rule="nonzero"/></clipPath><clipPath id="c0b6ff8e53"><path d="M 157 89.027344 L 162 89.027344 L 162 92 L 157 92 Z M 157 89.027344 " clip-rule="nonzero"/></clipPath><clipPath id="342692dfd4"><path d="M 245 211 L 246.855469 211 L 246.855469 214 L 245 214 Z M 245 211 " clip-rule="nonzero"/></clipPath></defs><path fill="#312f30" d="M 139.726562 236.050781 C 138.140625 234.417969 135.371094 231.730469 134.230469 231.007812 C 134.167969 230.976562 134.074219 230.949219 134.007812 230.949219 C 134.027344 231.722656 141.226562 238.714844 142.03125 238.742188 C 142.011719 238.460938 140.765625 237.125 139.726562 236.050781 " fill-opacity="1" fill-rule="nonzero"/><path fill="#312f30" d="M 149.078125 242.824219 C 147.414062 241.398438 144.394531 239.070312 142.90625 238.492188 C 142.796875 238.460938 142.628906 238.417969 142.574219 238.46875 C 142.285156 238.726562 144.175781 240.515625 146.125 242.019531 C 148.621094 243.949219 150.898438 245.351562 151.304688 245.210938 C 151.441406 244.910156 149.96875 243.585938 149.078125 242.824219 " fill-opacity="1" fill-rule="nonzero"/><path fill="#312f30" d="M 117.953125 206.382812 C 117.914062 206.34375 117.851562 206.308594 117.796875 206.304688 C 117.785156 207.316406 122.59375 216.542969 123.160156 216.585938 C 123.167969 216.175781 122.207031 214.15625 121.632812 212.992188 C 120.628906 210.953125 118.746094 207.355469 117.953125 206.382812 " fill-opacity="1" fill-rule="nonzero"/><path fill="#312f30" d="M 123.9375 216.277344 C 123.839844 216.230469 123.714844 216.171875 123.652344 216.234375 C 123.027344 216.875 128.675781 225.242188 130.011719 225.660156 C 130.53125 225.824219 129.96875 224.433594 128.640625 222.28125 C 127.40625 220.273438 125.128906 217.078125 123.9375 216.277344 " fill-opacity="1" fill-rule="nonzero"/><path fill="#312f30" d="M 137.085938 230.578125 C 135.71875 228.746094 133.085938 225.878906 131.503906 225.226562 C 131.371094 225.195312 131.191406 225.148438 131.089844 225.21875 C 130 225.976562 136.367188 233.445312 138.335938 233.722656 C 139.058594 233.824219 138.546875 232.53125 137.085938 230.578125 " fill-opacity="1" fill-rule="nonzero"/><path fill="#312f30" d="M 113.710938 195.625 C 113.773438 195.824219 113.867188 196.117188 113.992188 196.472656 C 113.894531 196.183594 113.796875 195.894531 113.707031 195.617188 L 113.710938 195.625 " fill-opacity="1" fill-rule="nonzero"/><path fill="#312f30" d="M 120.714844 209.789062 C 121.472656 210.21875 121.339844 208.511719 120.40625 205.820312 C 119.601562 203.5 117.929688 199.84375 116.730469 198.988281 C 116.660156 198.957031 116.558594 198.90625 116.480469 198.921875 C 115.230469 199.160156 118.988281 208.808594 120.714844 209.789062 " fill-opacity="1" fill-rule="nonzero"/><path fill="#312f30" d="M 127.742188 219.257812 C 128.777344 219.601562 128.703125 217.96875 127.570312 215.464844 C 126.59375 213.296875 124.46875 209.925781 122.816406 209.207031 C 122.675781 209.175781 122.480469 209.132812 122.335938 209.222656 C 120.890625 210.132812 125.386719 218.480469 127.742188 219.257812 " fill-opacity="1" fill-rule="nonzero"/><path fill="#312f30" d="M 136 227.683594 C 137.507812 228.179688 137.625 226.59375 136.261719 224.144531 C 134.972656 221.828125 132.429688 219.019531 130.570312 218.515625 C 130.386719 218.496094 130.140625 218.46875 129.953125 218.570312 C 128.171875 219.511719 132.921875 226.667969 136 227.683594 " fill-opacity="1" fill-rule="nonzero"/><path fill="#312f30" d="M 112.496094 188.019531 C 112.457031 187.984375 112.398438 187.941406 112.347656 187.925781 C 111.589844 188.398438 114.550781 199.21875 115.515625 199.503906 C 115.894531 199.265625 115.195312 196.21875 114.972656 195.292969 C 114.421875 193.019531 113.265625 189.03125 112.496094 188.019531 " fill-opacity="1" fill-rule="nonzero"/><path fill="#312f30" d="M 120.070312 202.171875 C 121.289062 202.847656 121.730469 200.898438 121.058594 197.828125 C 120.523438 195.386719 119.035156 191.613281 117.40625 190.871094 C 117.296875 190.847656 117.144531 190.816406 117.035156 190.839844 C 114.941406 191.300781 117.464844 200.726562 120.070312 202.171875 " fill-opacity="1" fill-rule="nonzero"/><path fill="#312f30" d="M 126.925781 211.875 C 128.667969 212.757812 129.351562 210.84375 128.390625 207.773438 C 127.664062 205.449219 125.691406 201.902344 123.574219 201.300781 C 123.433594 201.285156 123.238281 201.265625 123.101562 201.300781 C 120.621094 201.890625 123.621094 210.191406 126.925781 211.875 " fill-opacity="1" fill-rule="nonzero"/><path fill="#312f30" d="M 135.226562 220.625 C 137.519531 221.683594 138.476562 219.847656 137.242188 216.777344 C 136.363281 214.601562 134.011719 211.34375 131.523438 210.917969 C 131.292969 210.910156 130.984375 210.902344 130.707031 211.03125 C 128.382812 212.136719 131.59375 218.949219 135.226562 220.625 " fill-opacity="1" fill-rule="nonzero"/><path fill="#312f30" d="M 114.730469 191.519531 C 115.589844 192.289062 115.984375 190.371094 115.605469 187.238281 C 115.308594 184.792969 114.378906 180.960938 113.238281 180.109375 C 113.160156 180.078125 113.050781 180.035156 112.96875 180.046875 C 111.417969 180.328125 112.882812 189.867188 114.730469 191.519531 " fill-opacity="1" fill-rule="nonzero"/><path fill="#312f30" d="M 123.601562 189.191406 C 123.335938 186.730469 122.039062 182.992188 119.988281 182.390625 C 119.84375 182.375 119.644531 182.359375 119.5 182.394531 C 116.972656 182.988281 118.035156 191.328125 120.925781 193.550781 C 122.695312 194.910156 123.996094 192.792969 123.601562 189.191406 " fill-opacity="1" fill-rule="nonzero"/><path fill="#312f30" d="M 130.964844 199.171875 C 130.476562 196.714844 128.671875 193.046875 126.191406 192.597656 C 126.015625 192.59375 125.773438 192.589844 125.601562 192.636719 C 122.722656 193.378906 124.238281 201.058594 127.734375 203.449219 C 130.121094 205.078125 131.71875 202.960938 130.964844 199.171875 " fill-opacity="1" fill-rule="nonzero"/><path fill="#312f30" d="M 139.792969 208.449219 C 139.140625 206.105469 136.949219 202.671875 134.128906 202.378906 C 133.929688 202.386719 133.660156 202.402344 133.46875 202.457031 C 130.3125 203.359375 132.378906 210.640625 136.378906 212.707031 C 139.09375 214.105469 140.785156 212 139.792969 208.449219 " fill-opacity="1" fill-rule="nonzero"/><path fill="#312f30" d="M 115.925781 183.199219 C 117.148438 184.253906 118.179688 182.226562 118.128906 178.863281 C 118.09375 176.414062 117.355469 172.644531 115.820312 171.921875 C 115.710938 171.902344 115.554688 171.875 115.445312 171.894531 C 113.257812 172.351562 113.640625 181.222656 115.925781 183.199219 " fill-opacity="1" fill-rule="nonzero"/><path fill="#312f30" d="M 127.828125 180.179688 C 127.78125 177.707031 126.652344 174.027344 124.296875 173.585938 C 124.207031 173.582031 124.085938 173.574219 124 173.582031 C 120.871094 173.804688 120.519531 181.332031 123.5 184.320312 C 125.644531 186.472656 127.910156 184.304688 127.828125 180.179688 " fill-opacity="1" fill-rule="nonzero"/><path fill="#312f30" d="M 135.023438 189.867188 C 134.761719 187.386719 133.152344 183.757812 130.40625 183.460938 C 130.304688 183.464844 130.164062 183.460938 130.0625 183.472656 C 126.523438 183.898438 126.808594 191.484375 130.46875 194.296875 C 133.078125 196.304688 135.464844 193.984375 135.023438 189.867188 " fill-opacity="1" fill-rule="nonzero"/><path fill="#312f30" d="M 143.738281 199.191406 C 143.28125 196.714844 141.253906 193.160156 138.175781 193.011719 C 138.0625 193.023438 137.90625 193.027344 137.792969 193.042969 C 134.160156 193.621094 134.6875 200.664062 138.582031 203.511719 C 141.734375 205.820312 144.527344 203.472656 143.738281 199.191406 " fill-opacity="1" fill-rule="nonzero"/><path fill="#312f30" d="M 118.644531 174.332031 C 120.199219 176.132812 122.078125 174.050781 122.367188 170.203125 C 122.554688 167.769531 121.960938 164.078125 120.074219 163.5 C 120 163.496094 119.90625 163.480469 119.832031 163.480469 C 117.207031 163.527344 116.320312 171.640625 118.644531 174.332031 " fill-opacity="1" fill-rule="nonzero"/><path fill="#312f30" d="M 127.777344 175.152344 C 129.988281 177.660156 132.96875 175.394531 133.179688 171.042969 C 133.300781 168.582031 132.324219 164.984375 129.769531 164.691406 C 125.945312 164.855469 125.148438 172.164062 127.777344 175.152344 " fill-opacity="1" fill-rule="nonzero"/><path fill="#312f30" d="M 140.21875 180.398438 C 140.128906 177.910156 138.675781 174.335938 135.734375 174.183594 C 131.4375 174.558594 131.257812 181.960938 134.523438 184.824219 C 137.242188 187.207031 140.382812 184.765625 140.21875 180.398438 " fill-opacity="1" fill-rule="nonzero"/><path fill="#312f30" d="M 142.417969 193.835938 C 145.671875 196.648438 149.292969 194.148438 148.765625 189.457031 C 148.484375 186.957031 146.617188 183.4375 143.34375 183.425781 C 138.886719 183.976562 138.917969 190.8125 142.417969 193.835938 " fill-opacity="1" fill-rule="nonzero"/><path fill="#312f30" d="M 127.859375 161.476562 C 128.210938 159.0625 127.75 155.472656 125.621094 155.054688 C 122.234375 155.011719 120.847656 162.839844 123.03125 165.5625 C 124.738281 167.691406 127.265625 165.554688 127.859375 161.476562 " fill-opacity="1" fill-rule="nonzero"/><path fill="#312f30" d="M 155.464844 235.429688 C 158.132812 236.105469 159.191406 234.421875 157.730469 231.816406 C 156.695312 229.976562 153.917969 227.339844 150.988281 227.234375 C 150.589844 227.265625 150.179688 227.296875 149.777344 227.578125 C 147.511719 229.15625 151.285156 234.371094 155.464844 235.429688 " fill-opacity="1" fill-rule="nonzero"/><path fill="#312f30" d="M 160.335938 224.207031 C 159.507812 222.171875 156.871094 219.320312 153.613281 219.339844 C 153.308594 219.375 152.894531 219.425781 152.507812 219.609375 C 149.53125 221.019531 151.875 226.445312 156.195312 228.144531 C 159.523438 229.457031 161.652344 227.429688 160.335938 224.207031 " fill-opacity="1" fill-rule="nonzero"/><path fill="#312f30" d="M 164.277344 215.597656 C 163.625 213.382812 161.113281 210.332031 157.570312 210.476562 C 157.441406 210.496094 157.265625 210.515625 157.140625 210.542969 C 153.242188 211.371094 153.957031 217.167969 158.265625 219.667969 C 162.085938 221.882812 165.457031 219.597656 164.277344 215.597656 " fill-opacity="1" fill-rule="nonzero"/><path fill="#312f30" d="M 162.636719 200.691406 C 162.5 200.714844 162.3125 200.742188 162.175781 200.777344 C 157.964844 201.796875 158.203125 208.082031 162.550781 210.671875 C 166.375 212.945312 170.234375 210.304688 169.316406 206.039062 C 168.804688 203.65625 166.394531 200.421875 162.636719 200.691406 " fill-opacity="1" fill-rule="nonzero"/><path fill="#312f30" d="M 156.105469 241.5625 C 157.933594 241.804688 158.160156 240.417969 156.621094 238.410156 C 155.359375 236.765625 152.433594 234.351562 149.878906 234.128906 C 149.539062 234.136719 149.183594 234.148438 148.894531 234.375 C 147.085938 235.773438 152.414062 241.082031 156.105469 241.5625 " fill-opacity="1" fill-rule="nonzero"/><path fill="#312f30" d="M 158.105469 246.59375 C 159.125 246.570312 158.730469 245.519531 157.125 243.976562 C 155.722656 242.632812 152.65625 240.371094 150.402344 240.027344 C 150.121094 240.011719 149.832031 240 149.652344 240.171875 C 148.460938 241.316406 155.492188 246.660156 158.105469 246.59375 " fill-opacity="1" fill-rule="nonzero"/><path fill="#312f30" d="M 145.769531 221.027344 C 149.214844 222.722656 151.457031 220.488281 150.136719 216.679688 C 149.308594 214.292969 146.636719 210.875 143.28125 210.734375 C 143.046875 210.753906 142.726562 210.785156 142.496094 210.851562 C 138.964844 211.914062 141.167969 218.761719 145.769531 221.027344 " fill-opacity="1" fill-rule="nonzero"/><path fill="#312f30" d="M 145.152344 228.785156 C 147.859375 229.710938 148.984375 227.765625 147.507812 224.707031 C 146.449219 222.519531 143.617188 219.308594 140.621094 219.027344 C 140.347656 219.035156 139.972656 219.046875 139.640625 219.203125 C 136.792969 220.535156 140.65625 227.25 145.152344 228.785156 " fill-opacity="1" fill-rule="nonzero"/><path fill="#312f30" d="M 114.953125 168.453125 C 115.171875 165.835938 114.972656 161.757812 113.839844 160.882812 C 113.753906 160.851562 113.632812 160.808594 113.542969 160.824219 C 111.625 161.15625 111.078125 171.371094 112.886719 173.105469 C 113.738281 173.925781 114.667969 171.835938 114.953125 168.453125 " fill-opacity="1" fill-rule="nonzero"/><path fill="#312f30" d="M 111.148438 168.710938 C 111.097656 168.671875 111.023438 168.613281 110.964844 168.621094 C 109.8125 168.746094 110.332031 179.859375 111.550781 181.136719 C 112.066406 181.675781 112.40625 179.695312 112.34375 176.53125 C 112.289062 173.894531 111.882812 169.726562 111.148438 168.710938 " fill-opacity="1" fill-rule="nonzero"/><path fill="#312f30" d="M 153.707031 207.679688 C 153.128906 205.3125 150.800781 201.980469 147.445312 201.984375 C 147.199219 202.015625 146.875 202.058594 146.640625 202.136719 C 143.097656 203.308594 144.167969 209.59375 148.320312 212.03125 C 151.773438 214.050781 154.691406 211.695312 153.707031 207.679688 " fill-opacity="1" fill-rule="nonzero"/><path fill="#312f30" d="M 152.175781 202.390625 C 155.789062 204.972656 159.550781 202.347656 158.769531 197.789062 C 158.34375 195.296875 156.140625 191.84375 152.585938 191.976562 C 152.453125 192 152.277344 192.019531 152.144531 192.046875 C 148.109375 192.933594 148.128906 199.507812 152.175781 202.390625 " fill-opacity="1" fill-rule="nonzero"/><path fill="#312f30" d="M 145.667969 235.070312 C 147.402344 235.4375 147.597656 233.957031 146.109375 231.699219 C 144.902344 229.871094 142.132812 227.121094 139.75 226.738281 C 139.433594 226.726562 139.109375 226.714844 138.835938 226.9375 C 137.210938 228.28125 142.320312 234.363281 145.667969 235.070312 " fill-opacity="1" fill-rule="nonzero"/><path fill="#312f30" d="M 147.769531 240.636719 C 148.675781 240.671875 148.230469 239.480469 146.691406 237.738281 C 145.242188 236.097656 142.328125 233.5625 140.394531 233.070312 C 140.140625 233.039062 139.898438 233.007812 139.761719 233.179688 C 138.84375 234.34375 145.5 240.542969 147.769531 240.636719 " fill-opacity="1" fill-rule="nonzero"/><g clip-path="url(#ca42ea8c57)"><path fill="#312f30" d="M 110.894531 158.222656 C 110.886719 158.199219 110.871094 158.167969 110.863281 158.144531 C 110.839844 158.144531 110.808594 158.140625 110.785156 158.140625 C 110.183594 159.15625 109.601562 168.421875 110.070312 169.535156 C 110.09375 169.539062 110.125 169.539062 110.148438 169.539062 C 110.414062 169.054688 110.632812 166.746094 110.742188 165.414062 C 110.921875 163.175781 111.125 159.242188 110.894531 158.222656 " fill-opacity="1" fill-rule="nonzero"/></g><path fill="#312f30" d="M 113.328125 157.742188 C 113.773438 155.382812 114.144531 151.675781 113.578125 150.816406 C 113.53125 150.78125 113.460938 150.734375 113.402344 150.742188 C 112.160156 150.878906 110.574219 160.785156 111.613281 161.898438 C 112.054688 162.371094 112.792969 160.582031 113.328125 157.742188 " fill-opacity="1" fill-rule="nonzero"/><path fill="#312f30" d="M 117.523438 149.910156 C 118.1875 147.59375 118.722656 144.007812 117.847656 143.28125 C 117.808594 143.269531 117.757812 143.242188 117.71875 143.234375 C 116.011719 142.953125 113.480469 151.832031 114.675781 153.910156 C 115.296875 154.984375 116.601562 153.152344 117.523438 149.910156 " fill-opacity="1" fill-rule="nonzero"/><path fill="#312f30" d="M 119.292969 145.894531 C 120.027344 147.242188 121.84375 145.367188 123.105469 141.964844 C 123.941406 139.707031 124.609375 136.265625 123.476562 135.679688 C 121.351562 135.300781 117.992188 143.511719 119.292969 145.894531 " fill-opacity="1" fill-rule="nonzero"/><path fill="#312f30" d="M 118.988281 159.917969 C 119.414062 157.535156 119.394531 153.875 118.027344 153.210938 C 117.972656 153.199219 117.898438 153.175781 117.84375 153.175781 C 115.632812 153.054688 114.007812 161.5625 115.773438 164.011719 C 116.800781 165.429688 118.363281 163.441406 118.988281 159.917969 " fill-opacity="1" fill-rule="nonzero"/><path fill="#312f30" d="M 120.335938 155.5 C 121.507812 157.230469 123.675781 155.199219 124.628906 151.46875 C 125.226562 149.125 125.328125 145.589844 123.675781 145.070312 C 120.730469 144.832031 118.671875 153.046875 120.335938 155.5 " fill-opacity="1" fill-rule="nonzero"/><path fill="#312f30" d="M 139.800781 161.136719 C 140.050781 158.710938 139.191406 155.226562 136.515625 155.082031 C 132.753906 155.425781 131.289062 162.15625 133.535156 165.15625 C 135.703125 168.054688 139.335938 165.726562 139.800781 161.136719 " fill-opacity="1" fill-rule="nonzero"/><path fill="#312f30" d="M 146.683594 170.085938 C 146.71875 167.617188 145.390625 164.132812 142.320312 164.117188 C 138.015625 164.664062 137.128906 171.449219 140.046875 174.449219 C 142.773438 177.246094 146.617188 174.71875 146.683594 170.085938 " fill-opacity="1" fill-rule="nonzero"/><path fill="#312f30" d="M 148.128906 183.488281 C 151.324219 186.160156 155.34375 183.449219 155.070312 178.8125 C 154.921875 176.316406 153.179688 172.855469 149.773438 172.976562 C 145.078125 173.714844 144.667969 180.59375 148.128906 183.488281 " fill-opacity="1" fill-rule="nonzero"/><path fill="#312f30" d="M 158.644531 181.597656 C 153.96875 182.460938 153.644531 188.890625 157.09375 191.867188 C 160.664062 194.949219 165.292969 192.152344 164.710938 187.261719 C 164.414062 184.753906 162.332031 181.339844 158.644531 181.597656 " fill-opacity="1" fill-rule="nonzero"/><path fill="#312f30" d="M 132.515625 145.964844 C 129.050781 146.136719 127.085938 153.261719 128.992188 156.046875 C 130.664062 158.5 133.777344 156.292969 134.632812 152.050781 C 135.109375 149.683594 134.769531 146.230469 132.515625 145.964844 " fill-opacity="1" fill-rule="nonzero"/><path fill="#312f30" d="M 126.195312 146.832031 C 127.40625 148.847656 130.085938 146.796875 131.3125 142.90625 C 132.035156 140.621094 132.238281 137.238281 130.429688 136.867188 C 127.3125 136.855469 124.660156 144.277344 126.195312 146.832031 " fill-opacity="1" fill-rule="nonzero"/><path fill="#312f30" d="M 135.230469 193.855469 L 135.191406 193.917969 L 135.203125 193.925781 Z M 135.230469 193.855469 " fill-opacity="1" fill-rule="nonzero"/><path fill="#312f30" d="M 137.53125 203.265625 L 137.601562 203.328125 L 137.539062 203.265625 C 137.535156 203.265625 137.535156 203.265625 137.53125 203.265625 " fill-opacity="1" fill-rule="nonzero"/><path fill="#312f30" d="M 166.660156 234.058594 C 170.097656 235.410156 172.472656 233.554688 171.125 230.570312 C 170.324219 228.808594 167.773438 226.394531 164.597656 226.539062 C 164.265625 226.589844 163.851562 226.652344 163.460938 226.851562 C 160.804688 228.199219 162.71875 232.507812 166.660156 234.058594 " fill-opacity="1" fill-rule="nonzero"/><path fill="#312f30" d="M 166.148438 241.007812 C 168.761719 241.515625 169.835938 239.945312 168.398438 237.710938 C 167.472656 236.269531 164.902344 234 161.941406 234.03125 C 161.746094 234.046875 161.148438 234.085938 160.6875 234.421875 C 158.601562 235.929688 162.175781 240.238281 166.148438 241.007812 " fill-opacity="1" fill-rule="nonzero"/><path fill="#312f30" d="M 153.226562 160.082031 C 153.351562 157.769531 152.195312 154.550781 149.222656 154.636719 C 145.597656 155.019531 143.816406 160.882812 146.378906 164 C 148.820312 166.96875 152.980469 164.589844 153.226562 160.082031 " fill-opacity="1" fill-rule="nonzero"/><path fill="#312f30" d="M 143.527344 146.089844 C 139.945312 146.558594 138.28125 152.644531 140.242188 155.351562 C 142.171875 158.015625 145.789062 155.925781 146.484375 151.742188 C 146.867188 149.429688 146.203125 146.148438 143.527344 146.089844 " fill-opacity="1" fill-rule="nonzero"/><path fill="#312f30" d="M 112.425781 150.726562 C 112.832031 150.511719 113.546875 148.273438 113.9375 146.960938 C 114.09375 146.441406 115.445312 141.851562 115.242188 140.738281 C 115.226562 140.703125 115.191406 140.660156 115.15625 140.644531 C 115.136719 140.652344 115.113281 140.660156 115.09375 140.671875 C 114.167969 141.296875 111.726562 150.507812 112.425781 150.726562 " fill-opacity="1" fill-rule="nonzero"/><path fill="#312f30" d="M 174.980469 222.261719 C 174.34375 220.457031 172.128906 217.875 168.628906 218.144531 C 168.367188 218.191406 168.015625 218.257812 167.761719 218.347656 C 164.496094 219.515625 165.449219 224.25 169.332031 226.140625 C 172.679688 227.773438 176.292969 225.976562 174.980469 222.261719 " fill-opacity="1" fill-rule="nonzero"/><path fill="#312f30" d="M 160.859375 250.320312 C 161.34375 250.242188 160.257812 249.3125 159.078125 248.46875 C 157.738281 247.515625 154.742188 245.59375 152.972656 245.15625 C 152.761719 245.128906 152.578125 245.101562 152.53125 245.21875 C 152.199219 246.058594 159.515625 250.539062 160.859375 250.320312 " fill-opacity="1" fill-rule="nonzero"/><path fill="#312f30" d="M 166.542969 246.574219 C 168.378906 246.703125 168.628906 245.566406 167.136719 243.875 C 166.15625 242.765625 163.574219 240.644531 160.808594 240.558594 C 160.441406 240.585938 160.089844 240.609375 159.800781 240.828125 C 158.113281 242.09375 163.089844 246.335938 166.542969 246.574219 " fill-opacity="1" fill-rule="nonzero"/><path fill="#312f30" d="M 135.902344 146.628906 C 137.246094 148.609375 140.375 147.09375 141.414062 143.105469 C 141.792969 141.640625 142.210938 137.804688 139.625 137.621094 C 136.355469 137.929688 134.257812 144.199219 135.902344 146.628906 " fill-opacity="1" fill-rule="nonzero"/><path fill="#312f30" d="M 118.136719 139.707031 C 118.824219 138.011719 120.003906 134.585938 119.546875 133.78125 C 119.523438 133.765625 119.496094 133.738281 119.46875 133.730469 C 118.417969 133.367188 115.074219 141.753906 115.707031 143.175781 C 116.015625 143.871094 117.035156 142.414062 118.136719 139.707031 " fill-opacity="1" fill-rule="nonzero"/><path fill="#312f30" d="M 156.570312 163.195312 C 152.152344 164.011719 151.746094 169.960938 154.199219 172.523438 C 156.828125 175.269531 161.476562 173.335938 161.355469 168.453125 C 161.28125 165.25 159.132812 162.890625 156.570312 163.195312 " fill-opacity="1" fill-rule="nonzero"/><path fill="#312f30" d="M 174.804688 195.386719 C 174.425781 193.203125 172.503906 190.089844 168.757812 190.460938 C 164.324219 191.164062 164.253906 197.3125 167.6875 199.867188 C 170.972656 202.316406 175.628906 200.128906 174.804688 195.386719 " fill-opacity="1" fill-rule="nonzero"/><path fill="#312f30" d="M 173.289062 217.078125 C 176.90625 219.351562 180.910156 217 179.980469 213.148438 C 179.328125 210.441406 176.414062 208.414062 173.75 208.8125 C 173.613281 208.839844 173.433594 208.867188 173.296875 208.90625 C 169.625 209.886719 169.621094 214.777344 173.289062 217.078125 " fill-opacity="1" fill-rule="nonzero"/><path fill="#312f30" d="M 130.09375 128.410156 C 127.785156 128.265625 124.636719 135.152344 125.511719 137.171875 C 126.144531 138.636719 128.234375 137.007812 129.648438 133.945312 C 130.515625 132.070312 131.402344 128.910156 130.09375 128.410156 " fill-opacity="1" fill-rule="nonzero"/><path fill="#312f30" d="M 168.300781 251.039062 C 169.203125 250.964844 168.898438 250.125 167.5625 249.003906 C 165.746094 247.476562 162.820312 246.082031 161.300781 246.019531 C 161.019531 246.023438 160.757812 246.027344 160.585938 246.191406 C 159.445312 247.265625 165.792969 251.253906 168.300781 251.039062 " fill-opacity="1" fill-rule="nonzero"/><path fill="#312f30" d="M 137.601562 129.207031 C 135.011719 129.378906 132.097656 135.058594 133.273438 137.652344 C 134.210938 139.71875 137.039062 137.796875 138.320312 134.226562 C 139.019531 132.28125 139.253906 129.441406 137.601562 129.207031 " fill-opacity="1" fill-rule="nonzero"/><path fill="#312f30" d="M 120.558594 135.628906 C 120.898438 136.539062 122.402344 134.925781 123.777344 132.179688 C 124.695312 130.347656 125.777344 127.375 125.179688 126.820312 C 125.175781 126.816406 125.171875 126.8125 125.167969 126.8125 C 123.78125 126.273438 119.863281 133.773438 120.558594 135.628906 " fill-opacity="1" fill-rule="nonzero"/><path fill="#312f30" d="M 165.339844 171.585938 C 161.367188 172.210938 160.230469 178.027344 163.523438 180.875 C 166.753906 183.664062 171.132812 181.027344 170.734375 176.527344 C 170.535156 174.28125 168.726562 171.265625 165.339844 171.585938 " fill-opacity="1" fill-rule="nonzero"/><path fill="#312f30" d="M 181.824219 236.359375 C 180.996094 234.347656 178.046875 232.710938 175.761719 232.988281 C 175.554688 233.023438 175.273438 233.078125 175.074219 233.148438 C 172.539062 234.054688 173.171875 237.480469 177.054688 239.128906 C 180.519531 240.601562 182.820312 238.761719 181.824219 236.359375 " fill-opacity="1" fill-rule="nonzero"/><path fill="#312f30" d="M 179.035156 242.953125 C 178.171875 241.628906 175.605469 239.859375 173.035156 239.980469 C 172.570312 240.027344 172.191406 240.15625 171.90625 240.363281 C 170.089844 241.6875 172.871094 244.90625 176.484375 245.667969 C 179.261719 246.25 180.152344 244.660156 179.035156 242.953125 " fill-opacity="1" fill-rule="nonzero"/><path fill="#312f30" d="M 156.300781 145.230469 C 153.308594 145.625 151.144531 150.722656 153.519531 153.644531 C 155.714844 156.347656 159.546875 154.226562 159.925781 150.105469 C 160.121094 147.964844 158.972656 145.078125 156.300781 145.230469 " fill-opacity="1" fill-rule="nonzero"/><path fill="#312f30" d="M 153.402344 142.011719 C 153.871094 139.328125 152.59375 137.03125 150.726562 137.183594 C 147.597656 137.710938 145.625 142.941406 147.578125 145.539062 C 149.445312 148.019531 152.796875 145.488281 153.402344 142.011719 " fill-opacity="1" fill-rule="nonzero"/><path fill="#312f30" d="M 120.59375 129.980469 C 120.984375 129.257812 122.914062 125.621094 122.84375 124.710938 C 122.835938 124.695312 122.828125 124.667969 122.8125 124.65625 C 122.207031 124.210938 118.144531 131.933594 118.464844 132.921875 C 118.59375 133.3125 119.410156 132.183594 120.59375 129.980469 " fill-opacity="1" fill-rule="nonzero"/><path fill="#312f30" d="M 143.257812 137.152344 C 144.4375 139.214844 147.601562 137.644531 148.578125 133.746094 C 149.023438 131.976562 148.953125 129.332031 146.949219 129.292969 C 144.039062 129.6875 141.976562 134.917969 143.257812 137.152344 " fill-opacity="1" fill-rule="nonzero"/><path fill="#312f30" d="M 163.535156 153.324219 C 160.03125 153.875 158.625 159.332031 161.320312 161.914062 C 163.9375 164.414062 167.996094 161.929688 167.902344 157.878906 C 167.859375 155.960938 166.632812 153.03125 163.535156 153.324219 " fill-opacity="1" fill-rule="nonzero"/><path fill="#312f30" d="M 185.648438 228.324219 C 184.816406 226.164062 182.21875 224.695312 179.859375 225.042969 C 179.628906 225.089844 179.316406 225.15625 179.09375 225.234375 C 176.136719 226.300781 176.789062 230.160156 180.199219 231.789062 C 183.625 233.421875 186.832031 231.382812 185.648438 228.324219 " fill-opacity="1" fill-rule="nonzero"/><path fill="#312f30" d="M 177.675781 248.53125 C 176.21875 247.027344 173.613281 245.882812 171.863281 245.976562 C 171.574219 246.007812 171.085938 246.058594 170.8125 246.347656 C 169.644531 247.582031 173.984375 250.664062 177.003906 250.75 C 178.679688 250.796875 178.964844 249.863281 177.675781 248.53125 " fill-opacity="1" fill-rule="nonzero"/><path fill="#312f30" d="M 137.417969 121.160156 C 135.496094 120.984375 131.921875 126.710938 132.636719 128.824219 C 133.136719 130.304688 135.355469 129.097656 137.019531 125.789062 C 137.761719 124.320312 138.796875 121.464844 137.417969 121.160156 " fill-opacity="1" fill-rule="nonzero"/><path fill="#312f30" d="M 171.078125 254.417969 C 171.503906 254.332031 170.863281 253.765625 169.363281 252.902344 C 168.996094 252.6875 165.699219 250.816406 163.617188 250.519531 C 163.398438 250.507812 163.191406 250.496094 163.121094 250.601562 C 162.648438 251.308594 169.710938 254.699219 171.078125 254.417969 " fill-opacity="1" fill-rule="nonzero"/><path fill="#312f30" d="M 190.71875 219.699219 C 190.304688 218.015625 188.445312 215.671875 185.011719 216.121094 C 185.011719 216.125 185.011719 216.125 185.011719 216.125 C 185.007812 216.125 185.007812 216.125 185.007812 216.125 C 185.003906 216.125 185.003906 216.125 185.003906 216.125 C 185.003906 216.125 185 216.125 185 216.125 C 184.476562 216.246094 183.382812 216.5 182.644531 217.5 C 180.875 219.898438 183.269531 224.488281 187.886719 223.875 C 187.890625 223.875 187.890625 223.875 187.890625 223.875 C 187.890625 223.875 187.894531 223.875 187.894531 223.875 C 187.894531 223.875 187.894531 223.875 187.894531 223.871094 C 187.894531 223.871094 187.894531 223.871094 187.898438 223.871094 C 191.4375 223.054688 190.804688 220.042969 190.71875 219.699219 " fill-opacity="1" fill-rule="nonzero"/><path fill="#312f30" d="M 185.640625 203.125 C 185.304688 201.1875 183.394531 198.289062 179.703125 198.738281 C 175.40625 199.746094 175.429688 205.019531 178.78125 207.230469 C 182.21875 209.492188 186.320312 207.039062 185.640625 203.125 " fill-opacity="1" fill-rule="nonzero"/><path fill="#312f30" d="M 175.320312 179.902344 C 171.347656 180.636719 170.511719 186.355469 174 188.898438 C 177.34375 191.335938 181.546875 188.589844 180.921875 184.375 C 180.554688 181.914062 178.46875 179.507812 175.320312 179.902344 " fill-opacity="1" fill-rule="nonzero"/><path fill="#312f30" d="M 116.355469 136.667969 C 116.933594 135.273438 118.300781 131.945312 118.472656 131.113281 C 118.476562 131.09375 118.476562 131.066406 118.476562 131.042969 C 118.460938 131.042969 118.445312 131.042969 118.429688 131.042969 C 117.855469 131.753906 114.652344 139.355469 114.917969 139.824219 C 115.003906 139.707031 115.203125 139.429688 116.355469 136.667969 " fill-opacity="1" fill-rule="nonzero"/><path fill="#312f30" d="M 162.730469 251.941406 C 158.945312 249.972656 157.867188 249.5 157.308594 249.296875 C 157.308594 249.296875 157.304688 249.296875 157.304688 249.296875 C 157.304688 249.296875 157.304688 249.292969 157.304688 249.292969 C 157.25 249.277344 157.175781 249.257812 157.121094 249.25 C 157.117188 249.261719 157.113281 249.28125 157.109375 249.292969 C 157.898438 250.039062 164.503906 253.242188 165.289062 253.363281 C 165.257812 253.296875 165.234375 253.246094 162.730469 251.941406 " fill-opacity="1" fill-rule="nonzero"/><path fill="#312f30" d="M 126.746094 127.855469 C 127.023438 128.839844 128.5625 127.871094 130.332031 124.898438 C 130.433594 124.726562 132.808594 120.707031 131.78125 120.074219 C 130.015625 119.792969 126.296875 126.273438 126.746094 127.855469 " fill-opacity="1" fill-rule="nonzero"/><path fill="#312f30" d="M 178.367188 254.632812 C 178.371094 254.632812 178.371094 254.632812 178.371094 254.632812 C 178.375 254.632812 178.375 254.632812 178.375 254.632812 C 178.433594 254.628906 178.515625 254.628906 178.574219 254.621094 C 179.421875 254.523438 179.191406 253.902344 177.988281 253.042969 C 176.289062 251.824219 173.734375 250.847656 172.292969 250.863281 C 172.039062 250.878906 171.773438 250.898438 171.605469 251.035156 C 170.6875 251.796875 175.351562 254.574219 178.367188 254.632812 " fill-opacity="1" fill-rule="nonzero"/><path fill="#312f30" d="M 145.0625 121.511719 C 144.773438 121.542969 144.339844 121.589844 143.601562 122.1875 C 140.960938 124.339844 139.476562 129.445312 141.96875 129.625 C 141.96875 129.625 141.96875 129.625 141.972656 129.625 C 141.972656 129.625 141.976562 129.625 141.976562 129.625 C 144.039062 129.414062 145.386719 126.347656 145.535156 125.996094 C 146.445312 123.832031 146.472656 121.511719 145.0625 121.511719 " fill-opacity="1" fill-rule="nonzero"/><path fill="#312f30" d="M 128.484375 118.3125 C 127.828125 118.160156 122.890625 124.71875 123.550781 126.0625 C 123.550781 126.0625 123.550781 126.0625 123.554688 126.0625 C 123.554688 126.0625 123.554688 126.0625 123.554688 126.066406 C 124.125 126.394531 126.121094 123.363281 126.34375 123.015625 C 127.058594 121.917969 128.839844 118.945312 128.546875 118.351562 C 128.527344 118.339844 128.503906 118.320312 128.484375 118.3125 " fill-opacity="1" fill-rule="nonzero"/><path fill="#312f30" d="M 172.234375 161.335938 C 167.976562 162.335938 167.894531 167.679688 170.414062 169.820312 C 173.03125 172.042969 177.414062 170.035156 177.125 165.777344 C 176.929688 162.890625 174.734375 160.898438 172.234375 161.335938 " fill-opacity="1" fill-rule="nonzero"/><path fill="#312f30" d="M 182.128906 169.199219 C 178.59375 170.117188 177.570312 174.667969 180.335938 177.179688 C 183.519531 180.070312 187.636719 177.195312 187.308594 173.425781 C 187.132812 171.375 185.234375 168.765625 182.128906 169.199219 " fill-opacity="1" fill-rule="nonzero"/><path fill="#312f30" d="M 191.78125 192.199219 C 191.421875 189.511719 188.691406 187.4375 186.164062 187.933594 C 182.535156 188.894531 181.667969 193.640625 184.671875 196.125 C 188.210938 199.050781 192.304688 196.097656 191.78125 192.199219 " fill-opacity="1" fill-rule="nonzero"/><path fill="#312f30" d="M 196.507812 209.898438 C 196.066406 207.566406 193.386719 205.816406 190.988281 206.292969 C 187.421875 207.226562 186.738281 211.453125 189.804688 213.585938 C 193.3125 216.023438 197.144531 213.289062 196.507812 209.898438 " fill-opacity="1" fill-rule="nonzero"/><path fill="#312f30" d="M 133.964844 120.285156 C 134.140625 121.546875 136.179688 119.894531 137.726562 117.660156 C 138.835938 116.054688 139.964844 113.667969 139.199219 113.359375 C 137.570312 113.304688 133.707031 118.414062 133.964844 120.285156 " fill-opacity="1" fill-rule="nonzero"/><path fill="#312f30" d="M 192.039062 241.179688 C 191.382812 239.558594 188.777344 238.257812 186.777344 238.550781 C 186.59375 238.589844 186.34375 238.644531 186.164062 238.707031 C 184.042969 239.484375 184.328125 242.117188 187.394531 243.457031 C 190.535156 244.828125 192.878906 243.246094 192.039062 241.179688 " fill-opacity="1" fill-rule="nonzero"/><path fill="#312f30" d="M 167.601562 253.953125 C 167.546875 253.945312 167.472656 253.933594 167.414062 253.933594 C 167.40625 253.949219 167.398438 253.96875 167.390625 253.984375 C 168.0625 254.644531 173.894531 256.6875 175.21875 256.890625 C 175.234375 256.882812 175.25 256.863281 175.261719 256.855469 C 175.042969 256.710938 174.265625 256.378906 172.957031 255.855469 C 172.546875 255.691406 168.910156 254.25 167.601562 253.953125 " fill-opacity="1" fill-rule="nonzero"/><path fill="#312f30" d="M 140.453125 120.800781 C 140.894531 122.171875 143.042969 120.742188 144.558594 118.070312 C 145.382812 116.621094 146.253906 114.238281 145.074219 114.035156 C 143.152344 114.171875 139.871094 118.980469 140.453125 120.800781 " fill-opacity="1" fill-rule="nonzero"/><path fill="#312f30" d="M 181.300781 257.414062 C 181.625 257.226562 180.238281 256.558594 179.808594 256.355469 C 178.140625 255.582031 175.609375 254.71875 174.429688 254.667969 C 174.242188 254.671875 174.046875 254.671875 173.988281 254.769531 C 173.570312 255.460938 180.40625 257.933594 181.300781 257.414062 " fill-opacity="1" fill-rule="nonzero"/><path fill="#312f30" d="M 163.265625 136.003906 C 160.3125 136.664062 158.851562 141.203125 160.863281 143.476562 C 162.820312 145.691406 166.242188 143.640625 166.5 140.101562 C 166.675781 137.6875 165.132812 135.734375 163.265625 136.003906 " fill-opacity="1" fill-rule="nonzero"/><path fill="#312f30" d="M 157.808594 128.519531 C 155.175781 129.046875 153.402344 133.371094 154.890625 135.640625 C 156.359375 137.878906 159.558594 136.027344 160.160156 132.597656 C 160.566406 130.273438 159.445312 128.332031 157.808594 128.519531 " fill-opacity="1" fill-rule="nonzero"/><path fill="#312f30" d="M 186.535156 249.449219 C 189.121094 249.992188 190.148438 248.6875 189.175781 247.242188 C 188.238281 245.855469 185.757812 244.789062 183.972656 245.007812 C 183.632812 245.066406 183.3125 245.121094 182.984375 245.347656 C 181.410156 246.433594 183.46875 248.808594 186.535156 249.449219 " fill-opacity="1" fill-rule="nonzero"/><path fill="#312f30" d="M 129.875 118.953125 C 129.988281 119.640625 131.363281 118.511719 133 116.378906 C 133.027344 116.34375 135.777344 112.753906 135.257812 112.175781 C 134.171875 111.878906 129.644531 117.578125 129.875 118.953125 " fill-opacity="1" fill-rule="nonzero"/><path fill="#312f30" d="M 187.089844 253.984375 C 188.550781 253.964844 188.820312 253.214844 187.730469 252.207031 C 186.863281 251.40625 184.816406 250.257812 182.714844 250.378906 C 182.460938 250.40625 182.003906 250.484375 181.765625 250.71875 C 180.722656 251.761719 184.40625 254.019531 187.089844 253.984375 " fill-opacity="1" fill-rule="nonzero"/><path fill="#312f30" d="M 154.160156 121.21875 C 151.871094 121.445312 149.660156 126.039062 150.875 128.039062 C 151.871094 129.6875 154.628906 128.296875 155.523438 125.074219 C 155.957031 123.503906 155.957031 121.179688 154.160156 121.21875 " fill-opacity="1" fill-rule="nonzero"/><path fill="#312f30" d="M 170.40625 143.601562 C 167.328125 144.152344 166.074219 148.871094 168.40625 151.128906 C 170.527344 153.183594 174.40625 151.378906 174.300781 147.527344 C 174.25 145.765625 173.175781 143.261719 170.40625 143.601562 " fill-opacity="1" fill-rule="nonzero"/><path fill="#312f30" d="M 196.007812 233.75 C 195.574219 232.515625 193.808594 230.699219 190.929688 231.089844 C 190.726562 231.128906 190.414062 231.203125 190.105469 231.332031 C 187.6875 232.355469 188.160156 235.40625 190.933594 236.6875 C 193.867188 238.046875 196.90625 236.285156 196.007812 233.75 " fill-opacity="1" fill-rule="nonzero"/><path fill="#312f30" d="M 124.78125 120.691406 C 125.949219 118.992188 127.382812 116.828125 127.574219 116.1875 C 127.566406 116.167969 127.554688 116.140625 127.546875 116.121094 C 126.863281 116.355469 122.75 122.558594 122.914062 123.109375 C 122.988281 123.082031 123.195312 123.011719 124.78125 120.691406 " fill-opacity="1" fill-rule="nonzero"/><path fill="#312f30" d="M 130.5625 114.519531 C 130.589844 114.484375 133.398438 111.09375 133.402344 110.453125 C 133.394531 110.441406 133.382812 110.429688 133.375 110.421875 C 132.578125 110.382812 127.777344 116.335938 128.183594 116.855469 C 128.539062 116.882812 129.824219 115.402344 130.5625 114.519531 " fill-opacity="1" fill-rule="nonzero"/><path fill="#312f30" d="M 178.316406 257.421875 C 178.132812 257.410156 178.132812 257.410156 178.082031 257.457031 C 178.515625 257.886719 184.671875 259.410156 185.242188 259.230469 C 185.167969 259.1875 185.039062 259.117188 183.300781 258.632812 C 180.796875 257.933594 179.117188 257.527344 178.316406 257.421875 " fill-opacity="1" fill-rule="nonzero"/><path fill="#312f30" d="M 192.910156 177.003906 C 189.539062 177.789062 188.667969 182.347656 191.457031 184.625 C 194.453125 187.074219 198.558594 184.648438 198.011719 180.753906 C 197.75 178.878906 195.996094 176.476562 192.910156 177.003906 " fill-opacity="1" fill-rule="nonzero"/><path fill="#312f30" d="M 198.511719 229.09375 C 198.511719 229.09375 198.515625 229.09375 198.515625 229.09375 C 198.515625 229.09375 198.515625 229.09375 198.519531 229.09375 C 198.519531 229.09375 198.523438 229.089844 198.523438 229.089844 C 198.523438 229.089844 198.523438 229.089844 198.527344 229.089844 C 201.679688 228.300781 201.183594 225.761719 201.117188 225.472656 C 200.789062 224.066406 199.199219 222.148438 196.160156 222.628906 C 194.964844 222.875 194.324219 223.511719 194.046875 223.867188 C 192.304688 226.117188 194.722656 229.675781 198.507812 229.09375 C 198.507812 229.09375 198.507812 229.09375 198.511719 229.09375 " fill-opacity="1" fill-rule="nonzero"/><path fill="#312f30" d="M 152.425781 114.085938 C 150.574219 114.214844 148.027344 118.363281 148.644531 120.25 C 149.15625 121.824219 151.515625 120.707031 152.800781 117.699219 C 153.390625 116.324219 153.804688 114.125 152.425781 114.085938 " fill-opacity="1" fill-rule="nonzero"/><path fill="#312f30" d="M 137.257812 112.066406 C 137.234375 112.855469 138.773438 111.785156 140.546875 109.773438 C 141.460938 108.738281 143.199219 106.492188 142.753906 106.160156 C 141.613281 106.042969 137.300781 110.679688 137.257812 112.066406 " fill-opacity="1" fill-rule="nonzero"/><path fill="#312f30" d="M 188.601562 257.191406 C 189.132812 257.03125 188.8125 256.550781 187.789062 255.96875 C 186.925781 255.476562 184.824219 254.5625 183.0625 254.601562 C 183.0625 254.601562 183.058594 254.601562 183.058594 254.601562 C 183.054688 254.601562 183.054688 254.601562 183.054688 254.601562 C 183.054688 254.601562 183.054688 254.601562 183.050781 254.601562 C 182.84375 254.625 182.492188 254.660156 182.375 254.839844 C 181.785156 255.730469 186.964844 257.691406 188.601562 257.191406 " fill-opacity="1" fill-rule="nonzero"/><path fill="#312f30" d="M 179.003906 151.144531 C 179 151.144531 179 151.144531 179 151.144531 C 179 151.148438 178.996094 151.148438 178.996094 151.148438 C 178.992188 151.148438 178.992188 151.148438 178.992188 151.148438 C 178.992188 151.148438 178.992188 151.148438 178.988281 151.148438 C 178.984375 151.148438 178.984375 151.148438 178.984375 151.148438 C 175.214844 152.167969 175.242188 156.972656 177.535156 158.726562 C 180.136719 160.722656 183.691406 158.402344 183.386719 154.90625 C 183.242188 153.226562 181.921875 150.714844 179.003906 151.144531 " fill-opacity="1" fill-rule="nonzero"/><path fill="#312f30" d="M 174.171875 256.710938 L 174.410156 256.78125 C 174.234375 256.726562 174.046875 256.671875 173.875 256.617188 L 174.171875 256.710938 " fill-opacity="1" fill-rule="nonzero"/><path fill="#312f30" d="M 202.660156 199.234375 C 202.214844 196.851562 199.859375 195.277344 197.515625 195.796875 C 193.714844 196.863281 193.550781 201.410156 196.402344 203.257812 C 199.460938 205.242188 203.320312 202.757812 202.660156 199.234375 " fill-opacity="1" fill-rule="nonzero"/><path fill="#312f30" d="M 141.953125 112.957031 C 142.144531 113.902344 143.957031 112.664062 145.609375 110.460938 C 146.394531 109.417969 147.757812 107.1875 146.96875 106.972656 C 145.71875 106.863281 141.621094 111.324219 141.953125 112.957031 " fill-opacity="1" fill-rule="nonzero"/><path fill="#312f30" d="M 207.046875 216.234375 C 206.839844 214.433594 204.804688 212.738281 202.21875 213.183594 C 199.234375 214.011719 198.378906 217.304688 200.671875 219.152344 C 203.574219 221.488281 207.390625 219.214844 207.046875 216.234375 " fill-opacity="1" fill-rule="nonzero"/><path fill="#312f30" d="M 190.976562 259.378906 C 191.226562 259.238281 190.105469 258.832031 189.753906 258.710938 C 188.324219 258.214844 186.050781 257.671875 185.074219 257.683594 C 184.929688 257.691406 184.691406 257.703125 184.691406 257.816406 C 184.6875 258.386719 190.269531 259.769531 190.976562 259.378906 " fill-opacity="1" fill-rule="nonzero"/><path fill="#312f30" d="M 188.851562 158.566406 C 188.847656 158.570312 188.847656 158.570312 188.847656 158.570312 C 188.847656 158.570312 188.847656 158.570312 188.84375 158.570312 C 188.84375 158.570312 188.839844 158.570312 188.839844 158.570312 C 188.839844 158.570312 188.839844 158.570312 188.835938 158.570312 C 188.835938 158.570312 188.832031 158.570312 188.832031 158.570312 C 188.832031 158.570312 188.832031 158.574219 188.832031 158.574219 C 185.542969 159.53125 184.855469 164.046875 187.703125 166.007812 C 190.683594 168.0625 193.945312 165.230469 193.480469 162.023438 C 193.226562 160.304688 191.480469 158.148438 188.851562 158.566406 " fill-opacity="1" fill-rule="nonzero"/><path fill="#312f30" d="M 148.464844 112.980469 C 148.785156 114.074219 150.699219 112.792969 152.058594 110.582031 C 152.6875 109.554688 153.65625 107.394531 152.625 107.269531 C 150.9375 107.476562 148.023438 111.476562 148.464844 112.980469 " fill-opacity="1" fill-rule="nonzero"/><path fill="#312f30" d="M 134.769531 110.589844 C 134.773438 110.589844 134.773438 110.589844 134.773438 110.589844 C 135.175781 110.761719 137.039062 108.878906 137.601562 108.300781 C 137.71875 108.183594 140.386719 105.417969 140.253906 104.9375 C 140.242188 104.929688 140.226562 104.917969 140.210938 104.917969 C 139.660156 104.824219 134.390625 109.640625 134.769531 110.589844 " fill-opacity="1" fill-rule="nonzero"/><path fill="#312f30" d="M 201.441406 245.113281 C 201.007812 244.175781 199.417969 242.992188 197.234375 243.292969 C 196.929688 243.351562 196.621094 243.453125 196.386719 243.578125 C 194.761719 244.457031 195.472656 246.425781 197.699219 247.214844 C 200.070312 248.054688 202.242188 246.835938 201.441406 245.113281 " fill-opacity="1" fill-rule="nonzero"/><path fill="#312f30" d="M 167.902344 133.417969 C 169.628906 135.292969 172.570312 133.359375 172.601562 130.328125 C 172.613281 128.867188 171.757812 126.910156 169.808594 127.132812 C 167.414062 127.582031 166.203125 131.574219 167.902344 133.417969 " fill-opacity="1" fill-rule="nonzero"/><path fill="#312f30" d="M 196.128906 252.449219 C 198.164062 252.820312 199.386719 251.945312 198.554688 250.71875 C 197.828125 249.648438 195.859375 248.902344 194.339844 249.128906 C 194.09375 249.175781 193.683594 249.253906 193.371094 249.503906 C 192.277344 250.378906 193.820312 252.03125 196.128906 252.449219 " fill-opacity="1" fill-rule="nonzero"/><path fill="#312f30" d="M 164.453125 120.269531 C 162.046875 120.800781 160.910156 124.820312 162.246094 126.355469 C 163.480469 127.777344 166.078125 126.359375 166.457031 123.457031 C 166.679688 121.753906 165.980469 120.050781 164.453125 120.269531 " fill-opacity="1" fill-rule="nonzero"/><path fill="#312f30" d="M 205.601562 238.328125 C 205.261719 237.324219 203.882812 235.976562 201.476562 236.367188 C 201.363281 236.394531 201.113281 236.460938 201.109375 236.460938 C 198.660156 237.207031 198.9375 239.699219 200.96875 240.757812 C 203.445312 242.050781 206.34375 240.527344 205.601562 238.328125 " fill-opacity="1" fill-rule="nonzero"/><path fill="#312f30" d="M 160.945312 113.554688 C 159.097656 113.792969 157.28125 117.570312 158.246094 119.167969 C 159.050781 120.503906 161.308594 119.351562 162.054688 116.71875 C 162.425781 115.402344 162.4375 113.476562 160.945312 113.554688 " fill-opacity="1" fill-rule="nonzero"/><path fill="#312f30" d="M 176.855469 134.164062 C 173.777344 134.972656 173.613281 139.058594 175.386719 140.589844 C 177.222656 142.179688 180.378906 140.589844 180.230469 137.4375 C 180.132812 135.289062 178.617188 133.820312 176.855469 134.164062 " fill-opacity="1" fill-rule="nonzero"/><path fill="#312f30" d="M 196.46875 256.332031 C 197.625 256.257812 197.855469 255.71875 197.027344 255.019531 C 196.15625 254.289062 194.402344 253.636719 192.972656 253.8125 C 192.75 253.847656 192.382812 253.90625 192.175781 254.101562 C 191.324219 254.902344 194.332031 256.464844 196.46875 256.332031 " fill-opacity="1" fill-rule="nonzero"/><path fill="#312f30" d="M 197.667969 258.894531 C 198.082031 258.769531 197.859375 258.46875 197.089844 258.109375 C 196.269531 257.730469 194.554688 257.195312 193.199219 257.28125 C 192.988281 257.304688 192.722656 257.355469 192.640625 257.480469 C 192.238281 258.097656 196.417969 259.273438 197.667969 258.894531 " fill-opacity="1" fill-rule="nonzero"/><path fill="#312f30" d="M 150.207031 105.886719 C 150.355469 106.558594 151.863281 105.558594 153.308594 103.828125 C 154.445312 102.472656 155.277344 100.984375 154.710938 100.933594 C 153.375 101.050781 149.96875 104.804688 150.207031 105.886719 " fill-opacity="1" fill-rule="nonzero"/><g clip-path="url(#57cebf276f)"><path fill="#312f30" d="M 188.875 259.65625 C 188.714844 259.652344 188.714844 259.652344 188.679688 259.6875 C 189.085938 259.945312 194.375 260.648438 194.761719 260.496094 C 194.625 260.460938 194.445312 260.433594 193.035156 260.21875 C 190.816406 259.878906 189.589844 259.691406 188.875 259.65625 " fill-opacity="1" fill-rule="nonzero"/></g><path fill="#312f30" d="M 159.613281 109.996094 C 160.257812 108.554688 160.324219 106.996094 159.382812 107.066406 C 157.714844 107.375 155.632812 110.867188 156.289062 112.257812 C 156.820312 113.382812 158.652344 112.136719 159.613281 109.996094 " fill-opacity="1" fill-rule="nonzero"/><path fill="#312f30" d="M 142.363281 104.40625 C 142.28125 104.867188 143.519531 104.0625 145.242188 102.539062 C 145.269531 102.511719 148.113281 99.96875 147.910156 99.632812 C 147.144531 99.492188 142.535156 103.464844 142.363281 104.40625 " fill-opacity="1" fill-rule="nonzero"/><path fill="#312f30" d="M 204.246094 184.703125 C 200.660156 185.785156 200.804688 189.941406 202.921875 191.648438 C 205.398438 193.644531 209.476562 191.8125 208.949219 188.082031 C 208.609375 185.664062 206.5 184.148438 204.246094 184.703125 " fill-opacity="1" fill-rule="nonzero"/><path fill="#312f30" d="M 150.621094 100.492188 C 149.519531 100.472656 145.328125 104.46875 145.40625 105.464844 C 145.445312 105.980469 146.679688 105.328125 148.605469 103.371094 C 148.710938 103.261719 151.160156 100.761719 150.621094 100.492188 " fill-opacity="1" fill-rule="nonzero"/><path fill="#312f30" d="M 208.832031 203.015625 C 205.609375 203.835938 205.226562 207.65625 207.507812 209.273438 C 210.054688 211.082031 213.742188 208.929688 213.308594 205.882812 C 213.105469 204.46875 211.710938 202.4375 208.832031 203.015625 " fill-opacity="1" fill-rule="nonzero"/><path fill="#312f30" d="M 133.488281 108.355469 C 133.496094 108.339844 133.496094 108.316406 133.496094 108.296875 C 132.980469 108.53125 128.808594 113.476562 128.800781 113.871094 C 128.917969 113.796875 129.226562 113.464844 130.59375 111.871094 C 132.832031 109.253906 133.3125 108.652344 133.488281 108.355469 " fill-opacity="1" fill-rule="nonzero"/><path fill="#312f30" d="M 199.59375 166.039062 C 195.980469 167.140625 196.28125 171.460938 198.609375 173.011719 C 201.300781 174.808594 204.65625 172.523438 204.132812 169.25 C 203.769531 166.996094 201.691406 165.527344 199.59375 166.039062 " fill-opacity="1" fill-rule="nonzero"/><path fill="#312f30" d="M 185.386719 141.164062 C 182.371094 142.03125 182.113281 146.039062 184.316406 147.640625 C 186.617188 149.3125 189.632812 147.179688 189.199219 144.175781 C 189.003906 142.800781 187.792969 140.765625 185.386719 141.164062 " fill-opacity="1" fill-rule="nonzero"/><path fill="#312f30" d="M 210.851562 230.550781 C 210.574219 229.183594 209.058594 227.953125 206.800781 228.367188 C 204.019531 229.015625 203.722656 231.785156 205.628906 233.101562 C 207.9375 234.699219 211.351562 233.027344 210.851562 230.550781 " fill-opacity="1" fill-rule="nonzero"/><path fill="#312f30" d="M 136.523438 106.4375 C 136.550781 106.414062 139.304688 103.753906 139.484375 103.289062 C 139.484375 103.289062 139.484375 103.289062 139.476562 103.261719 C 138.886719 103.238281 134.195312 107.824219 134.304688 108.320312 C 134.511719 108.339844 135.785156 107.148438 136.523438 106.4375 " fill-opacity="1" fill-rule="nonzero"/><path fill="#312f30" d="M 194.382812 154.476562 C 196.976562 156.175781 199.667969 153.730469 199.183594 151.019531 C 198.929688 149.609375 197.476562 147.722656 195.164062 148.164062 C 192.648438 148.804688 191.75 152.75 194.382812 154.476562 " fill-opacity="1" fill-rule="nonzero"/><path fill="#312f30" d="M 216.863281 221.660156 C 216.675781 220.234375 215.136719 218.964844 212.976562 219.398438 C 210.644531 219.988281 209.449219 222.816406 211.546875 224.386719 C 213.953125 226.191406 217.183594 224.09375 216.863281 221.660156 " fill-opacity="1" fill-rule="nonzero"/><g clip-path="url(#470d08f260)"><path fill="#312f30" d="M 195.15625 259.574219 C 194.925781 259.597656 194.859375 259.617188 194.839844 259.675781 C 195.054688 260.101562 199.320312 260.566406 199.867188 260.359375 C 199.871094 260.347656 199.871094 260.332031 199.875 260.320312 C 199.828125 260.289062 199.710938 260.203125 198.667969 259.996094 C 198.28125 259.917969 196.285156 259.535156 195.15625 259.574219 " fill-opacity="1" fill-rule="nonzero"/></g><path fill="#312f30" d="M 156.265625 105.46875 C 156.414062 106.335938 157.871094 105.5625 159.15625 103.582031 C 159.972656 102.320312 160.433594 100.976562 159.75 101 C 158.511719 101.1875 156.070312 104.320312 156.265625 105.46875 " fill-opacity="1" fill-rule="nonzero"/><path fill="#312f30" d="M 143.546875 101.191406 C 144.609375 100.332031 146.402344 98.839844 146.480469 98.507812 C 146.15625 98.214844 141.28125 102.160156 141.210938 102.773438 C 141.253906 102.816406 141.382812 102.945312 143.546875 101.191406 " fill-opacity="1" fill-rule="nonzero"/><path fill="#312f30" d="M 174.382812 123.753906 C 175.703125 125.023438 178.015625 123.761719 177.949219 121.253906 C 177.921875 120.273438 177.402344 118.488281 175.636719 118.738281 C 173.613281 119.167969 173.0625 122.480469 174.382812 123.753906 " fill-opacity="1" fill-rule="nonzero"/><path fill="#312f30" d="M 206.777344 247.222656 C 206.648438 247.253906 206.472656 247.296875 206.347656 247.339844 C 204.761719 247.910156 205.113281 249.375 206.523438 250.011719 C 208.136719 250.742188 210.429688 249.976562 209.902344 248.53125 C 209.652344 247.839844 208.613281 246.921875 206.777344 247.222656 " fill-opacity="1" fill-rule="nonzero"/><path fill="#312f30" d="M 172.035156 114.984375 C 172.179688 113.597656 171.609375 112.28125 170.402344 112.480469 C 168.542969 112.933594 167.75 116.039062 168.808594 117.253906 C 169.800781 118.390625 171.800781 117.289062 172.035156 114.984375 " fill-opacity="1" fill-rule="nonzero"/><path fill="#312f30" d="M 204.683594 254.671875 C 206.1875 254.949219 207.523438 254.386719 206.875 253.40625 C 206.351562 252.609375 204.980469 252.152344 203.757812 252.367188 C 203.5625 252.410156 203.230469 252.480469 202.976562 252.660156 C 202.128906 253.261719 203.070312 254.371094 204.683594 254.671875 " fill-opacity="1" fill-rule="nonzero"/><path fill="#312f30" d="M 214.210938 242.328125 C 214.023438 241.550781 213.039062 240.53125 211.101562 240.894531 C 208.8125 241.503906 208.929688 243.398438 210.296875 244.195312 C 212.105469 245.25 214.628906 244.042969 214.210938 242.328125 " fill-opacity="1" fill-rule="nonzero"/><path fill="#312f30" d="M 210.914062 173.421875 C 207.773438 174.296875 207.921875 178.179688 209.886719 179.644531 C 212.113281 181.304688 215.679688 179.4375 215.050781 176.167969 C 214.820312 174.949219 213.652344 172.808594 210.914062 173.421875 " fill-opacity="1" fill-rule="nonzero"/><path fill="#312f30" d="M 158.5625 95.207031 C 157.613281 95.257812 153.929688 98.394531 153.925781 99.152344 C 153.925781 99.535156 154.921875 99.03125 156.59375 97.53125 C 156.617188 97.511719 159 95.367188 158.5625 95.207031 " fill-opacity="1" fill-rule="nonzero"/><path fill="#312f30" d="M 150.769531 98.574219 C 150.738281 98.890625 151.804688 98.269531 153.417969 97.027344 C 153.675781 96.828125 155.941406 95.074219 155.972656 94.722656 C 155.964844 94.714844 155.953125 94.707031 155.949219 94.699219 C 155.234375 94.652344 150.832031 97.949219 150.769531 98.574219 " fill-opacity="1" fill-rule="nonzero"/><path fill="#312f30" d="M 214.464844 198.152344 C 216.605469 199.722656 220.160156 197.988281 219.71875 194.859375 C 219.546875 193.644531 218.480469 191.519531 215.667969 192.148438 C 212.25 193.269531 212.769531 196.90625 214.464844 198.152344 " fill-opacity="1" fill-rule="nonzero"/><path fill="#312f30" d="M 181.671875 130.277344 C 183.402344 131.707031 185.761719 130.003906 185.441406 127.558594 C 185.296875 126.457031 184.398438 124.816406 182.59375 125.117188 C 180.554688 125.59375 179.96875 128.871094 181.671875 130.277344 " fill-opacity="1" fill-rule="nonzero"/><path fill="#312f30" d="M 223.320312 211.714844 C 223.101562 210.148438 221.382812 209.128906 219.710938 209.574219 C 217.230469 210.382812 216.433594 213.222656 218.289062 214.640625 C 220.554688 216.375 223.65625 214.128906 223.320312 211.714844 " fill-opacity="1" fill-rule="nonzero"/><path fill="#312f30" d="M 204.984375 257.863281 C 205.703125 257.742188 205.800781 257.367188 205.222656 256.953125 C 204.746094 256.613281 203.519531 256.128906 202.246094 256.285156 C 201.828125 256.351562 201.65625 256.476562 201.582031 256.574219 C 201.085938 257.21875 203.46875 258.121094 204.984375 257.863281 " fill-opacity="1" fill-rule="nonzero"/><path fill="#312f30" d="M 165.035156 110.765625 C 165.691406 111.894531 167.382812 110.777344 167.910156 108.871094 C 168.265625 107.605469 167.988281 106.28125 167.035156 106.410156 C 165.582031 106.746094 164.3125 109.515625 165.035156 110.765625 " fill-opacity="1" fill-rule="nonzero"/><path fill="#312f30" d="M 216.550781 233.425781 C 214.640625 234 213.894531 235.886719 215.148438 236.972656 C 216.917969 238.5 219.742188 237 219.613281 235.117188 C 219.53125 233.910156 218.015625 233.074219 216.550781 233.425781 " fill-opacity="1" fill-rule="nonzero"/><path fill="#312f30" d="M 192.449219 137.171875 C 192.449219 137.171875 192.453125 137.171875 192.453125 137.171875 C 192.457031 137.171875 192.457031 137.171875 192.457031 137.171875 C 192.457031 137.171875 192.457031 137.171875 192.460938 137.171875 C 194.085938 136.640625 194.453125 134.996094 194.300781 134.023438 C 194.050781 132.410156 192.476562 131.210938 191.0625 131.554688 C 190.773438 131.644531 190.179688 131.835938 189.683594 132.609375 C 188.308594 134.765625 190.039062 137.621094 192.449219 137.171875 " fill-opacity="1" fill-rule="nonzero"/><path fill="#312f30" d="M 205.027344 160.902344 C 207.527344 162.792969 210.304688 160.496094 209.8125 157.816406 C 209.519531 156.21875 207.9375 154.75 205.894531 155.167969 C 203.421875 155.988281 202.921875 159.3125 205.027344 160.902344 " fill-opacity="1" fill-rule="nonzero"/><path fill="#312f30" d="M 149.09375 97.542969 C 149.320312 97.613281 150.882812 96.566406 151.546875 96.109375 C 151.574219 96.089844 154.3125 94.207031 154.390625 93.914062 C 153.859375 93.785156 149.058594 97.070312 149.09375 97.542969 " fill-opacity="1" fill-rule="nonzero"/><path fill="#312f30" d="M 165.628906 100.640625 C 164.535156 100.882812 162.859375 103.425781 163.289062 104.5625 C 163.671875 105.566406 165.171875 104.269531 165.824219 102.691406 C 166.246094 101.671875 166.253906 100.578125 165.628906 100.640625 " fill-opacity="1" fill-rule="nonzero"/><path fill="#312f30" d="M 162.074219 95.375 C 161.316406 95.394531 158.277344 98.265625 158.296875 99.195312 C 158.304688 99.789062 159.664062 98.789062 160.785156 97.558594 C 161.445312 96.835938 162.503906 95.449219 162.074219 95.375 " fill-opacity="1" fill-rule="nonzero"/><path fill="#312f30" d="M 205.226562 259.3125 C 204.480469 259.070312 203.097656 258.867188 202.359375 258.957031 C 202.222656 258.976562 201.996094 259.011719 201.960938 259.125 C 201.804688 259.625 205.109375 260.007812 205.714844 259.730469 C 205.960938 259.621094 205.621094 259.441406 205.226562 259.3125 " fill-opacity="1" fill-rule="nonzero"/><path fill="#312f30" d="M 140.335938 101.339844 C 140.34375 101.328125 140.351562 101.3125 140.359375 101.300781 C 140.042969 101.441406 136.136719 105.027344 135.933594 105.46875 C 136.003906 105.414062 136.003906 105.414062 137.617188 103.910156 C 139.679688 101.988281 140.171875 101.527344 140.335938 101.339844 " fill-opacity="1" fill-rule="nonzero"/><path fill="#312f30" d="M 143.574219 99.375 C 146.113281 97.4375 146.304688 97.210938 146.441406 97.046875 C 146.171875 96.902344 141.808594 100.25 141.773438 100.628906 C 141.816406 100.632812 141.917969 100.640625 143.574219 99.375 " fill-opacity="1" fill-rule="nonzero"/><path fill="#312f30" d="M 159.585938 93.121094 C 159.691406 93.253906 160.363281 92.882812 161.976562 91.800781 C 162.316406 91.574219 164.027344 90.417969 164.105469 90.203125 C 164.101562 90.199219 164.09375 90.191406 164.089844 90.1875 C 163.769531 90.148438 159.648438 92.570312 159.585938 93.121094 " fill-opacity="1" fill-rule="nonzero"/><path fill="#312f30" d="M 225.6875 226.808594 C 225.691406 226.78125 225.5625 224.324219 222.851562 225.058594 C 219.730469 226.015625 221.082031 228.519531 221.375 228.820312 C 222.386719 229.855469 225.546875 229.304688 225.6875 226.808594 " fill-opacity="1" fill-rule="nonzero"/><path fill="#312f30" d="M 166.148438 95.34375 C 165.320312 95.507812 163.445312 97.851562 163.542969 98.597656 C 163.621094 99.164062 164.691406 98.546875 165.589844 97.226562 C 165.804688 96.902344 166.855469 95.304688 166.148438 95.34375 " fill-opacity="1" fill-rule="nonzero"/><g clip-path="url(#e8e50797a3)"><path fill="#312f30" d="M 206.753906 260.398438 C 205.363281 260.339844 204.738281 260.332031 204.28125 260.371094 C 204.046875 260.394531 204.035156 260.410156 204.023438 260.4375 C 204.332031 260.613281 207.246094 260.570312 207.667969 260.464844 C 207.640625 260.445312 207.632812 260.4375 206.753906 260.398438 " fill-opacity="1" fill-rule="nonzero"/></g><path fill="#312f30" d="M 225.480469 203.898438 C 225.898438 204.210938 227.042969 204.824219 228.675781 203.75 C 229.210938 203.394531 230.074219 202.570312 229.851562 201.011719 C 229.5625 198.96875 227.921875 198.691406 226.609375 199.074219 C 223.957031 200.007812 224.230469 202.957031 225.480469 203.898438 " fill-opacity="1" fill-rule="nonzero"/><path fill="#312f30" d="M 221.375 186.152344 C 222.675781 187.234375 226.300781 186.617188 225.9375 183.121094 C 225.933594 183.089844 225.46875 179.949219 222.421875 180.730469 C 219.171875 181.710938 220.285156 185.246094 221.375 186.152344 " fill-opacity="1" fill-rule="nonzero"/><path fill="#312f30" d="M 216.570312 167.40625 C 216.820312 167.578125 218.148438 168.378906 219.65625 167.328125 C 220.316406 166.871094 221.039062 166.011719 220.71875 164.523438 C 220.304688 162.597656 218.925781 161.722656 217.125 162.238281 C 214.480469 163.191406 215.078125 166.382812 216.570312 167.40625 " fill-opacity="1" fill-rule="nonzero"/><path fill="#312f30" d="M 200.460938 143.050781 C 201.96875 143.933594 204.667969 143.117188 204.085938 140.402344 C 203.78125 138.996094 202.59375 137.765625 200.90625 138.132812 C 198.246094 138.878906 198.941406 142.160156 200.460938 143.050781 " fill-opacity="1" fill-rule="nonzero"/><path fill="#312f30" d="M 153.671875 92.992188 C 153.671875 92.984375 153.664062 92.980469 153.660156 92.972656 C 153.222656 92.984375 149.472656 95.28125 148.949219 95.960938 C 149.179688 95.933594 149.714844 95.628906 151.082031 94.761719 C 153.023438 93.53125 153.605469 93.132812 153.671875 92.992188 " fill-opacity="1" fill-rule="nonzero"/><path fill="#312f30" d="M 211.828125 254.78125 C 211.683594 254.816406 211.4375 254.875 211.261719 254.996094 C 210.820312 255.308594 210.972656 255.949219 212.082031 256.203125 C 213.027344 256.421875 214.324219 256.070312 213.886719 255.359375 C 213.617188 254.921875 212.878906 254.574219 211.828125 254.78125 " fill-opacity="1" fill-rule="nonzero"/><path fill="#312f30" d="M 162.394531 93.433594 C 162.75 93.304688 163.234375 93.058594 164.378906 92.140625 C 165.3125 91.394531 166.382812 90.488281 166.164062 90.4375 C 166.164062 90.4375 166.160156 90.4375 166.160156 90.4375 C 165.691406 90.460938 161.996094 93.046875 162.394531 93.433594 " fill-opacity="1" fill-rule="nonzero"/><g clip-path="url(#a1531397b4)"><path fill="#312f30" d="M 157.820312 92.550781 C 158.214844 92.441406 158.847656 92.113281 160.238281 91.296875 C 162.585938 89.917969 162.617188 89.835938 162.644531 89.761719 C 162.644531 89.761719 162.644531 89.761719 162.640625 89.761719 C 162.296875 89.710938 158.09375 92.003906 157.820312 92.550781 " fill-opacity="1" fill-rule="nonzero"/></g><path fill="#312f30" d="M 215 250.382812 C 214.925781 250.398438 214.855469 250.417969 214.785156 250.441406 C 213.84375 250.730469 213.355469 251.691406 214.546875 252.277344 C 215.597656 252.792969 217.371094 252.171875 217.050781 251.164062 C 216.988281 250.976562 216.609375 250.066406 215 250.382812 " fill-opacity="1" fill-rule="nonzero"/><path fill="#312f30" d="M 174.410156 108.71875 C 174.929688 109.390625 176.492188 109.179688 176.671875 107.058594 C 176.671875 107.039062 176.664062 105.164062 175.421875 105.339844 C 174.007812 105.644531 173.820312 107.953125 174.410156 108.71875 " fill-opacity="1" fill-rule="nonzero"/><path fill="#312f30" d="M 179.894531 114.574219 C 179.902344 114.582031 180.699219 115.242188 181.445312 114.714844 C 181.714844 114.527344 182.425781 114.023438 182.347656 112.84375 C 182.34375 112.753906 182.183594 110.65625 180.5625 110.933594 C 178.976562 111.308594 178.9375 113.761719 179.894531 114.574219 " fill-opacity="1" fill-rule="nonzero"/><path fill="#312f30" d="M 219.4375 244.785156 C 217.859375 245.230469 217.789062 246.46875 218.582031 247.042969 C 219.46875 247.683594 221.652344 247.101562 221.472656 245.707031 C 221.359375 244.855469 220.582031 244.5 219.4375 244.785156 " fill-opacity="1" fill-rule="nonzero"/><path fill="#312f30" d="M 211.210938 149.203125 C 212.425781 149.976562 215.125 149.460938 214.660156 146.695312 C 214.585938 146.238281 213.726562 144.066406 211.503906 144.710938 C 208.9375 145.59375 210.148438 148.523438 211.210938 149.203125 " fill-opacity="1" fill-rule="nonzero"/><path fill="#312f30" d="M 229.730469 215.667969 C 227.132812 216.542969 227.796875 218.785156 228.207031 219.3125 C 229.175781 220.546875 232.15625 219.789062 232.3125 217.320312 C 232.335938 216.9375 231.964844 215.011719 229.730469 215.667969 " fill-opacity="1" fill-rule="nonzero"/><path fill="#312f30" d="M 145.421875 97.054688 C 147.484375 95.535156 147.484375 95.535156 147.613281 95.421875 C 147.625 95.410156 147.640625 95.394531 147.648438 95.378906 C 147.316406 95.519531 144.351562 97.734375 144.117188 98.015625 C 144.582031 97.730469 144.988281 97.375 145.421875 97.054688 " fill-opacity="1" fill-rule="nonzero"/><g clip-path="url(#c0b6ff8e53)"><path fill="#312f30" d="M 161.714844 89.230469 C 161.558594 89.144531 157.785156 90.996094 157.339844 91.488281 C 157.460938 91.523438 158.039062 91.238281 159.375 90.539062 C 161.246094 89.5625 161.660156 89.332031 161.714844 89.230469 " fill-opacity="1" fill-rule="nonzero"/></g><path fill="#312f30" d="M 211.757812 258.703125 C 212.382812 258.617188 212.503906 258.453125 212.144531 258.191406 C 212.140625 258.1875 211.355469 257.699219 210.234375 257.898438 C 210.097656 257.925781 209.820312 257.980469 209.730469 258.101562 C 209.519531 258.386719 210.660156 258.859375 211.757812 258.703125 " fill-opacity="1" fill-rule="nonzero"/><path fill="#312f30" d="M 172.796875 101.589844 C 172.933594 100.835938 172.933594 99.953125 172.164062 100.046875 C 170.992188 100.269531 170.527344 102.511719 170.953125 103.0625 C 171.351562 103.582031 172.507812 103.207031 172.796875 101.589844 " fill-opacity="1" fill-rule="nonzero"/><path fill="#312f30" d="M 226.972656 239.042969 C 226.953125 238.480469 226.679688 237.59375 225.082031 237.984375 C 222.746094 238.703125 223.703125 240.328125 223.917969 240.523438 C 224.695312 241.230469 227.023438 240.578125 226.972656 239.042969 " fill-opacity="1" fill-rule="nonzero"/><path fill="#312f30" d="M 167.636719 91.933594 C 167.683594 91.886719 167.742188 91.828125 167.789062 91.777344 C 168.863281 90.660156 168.796875 90.535156 168.65625 90.539062 C 168.101562 90.625 165.960938 92.613281 165.929688 93.070312 C 165.914062 93.273438 166.324219 93.273438 167.636719 91.933594 " fill-opacity="1" fill-rule="nonzero"/><path fill="#312f30" d="M 187.09375 120.472656 C 188.101562 121.140625 190.019531 120.507812 189.601562 118.492188 C 189.386719 117.441406 188.703125 116.429688 187.4375 116.738281 C 185.511719 117.316406 186.175781 119.863281 187.09375 120.472656 " fill-opacity="1" fill-rule="nonzero"/><path fill="#312f30" d="M 195.746094 126.28125 C 196.953125 126.992188 198.789062 126.113281 198.238281 124.25 C 198.011719 123.496094 197.410156 122.28125 195.886719 122.628906 C 193.917969 123.175781 194.757812 125.699219 195.746094 126.28125 " fill-opacity="1" fill-rule="nonzero"/><path fill="#312f30" d="M 228.003906 173.433594 C 229.085938 174.425781 231.859375 174.097656 231.617188 170.976562 C 231.550781 170.09375 230.484375 169.375 230.472656 169.367188 C 229.792969 168.941406 229.148438 169.117188 228.800781 169.214844 C 226.414062 170 227.089844 172.59375 228.003906 173.433594 " fill-opacity="1" fill-rule="nonzero"/><path fill="#312f30" d="M 210.265625 259.671875 C 210.171875 259.691406 209.972656 259.722656 209.976562 259.773438 C 209.984375 259.847656 210.441406 259.925781 211.160156 259.933594 C 211.515625 259.933594 212.347656 259.886719 212.390625 259.792969 C 212.367188 259.769531 212.328125 259.75 212.046875 259.707031 C 212.039062 259.703125 211.035156 259.558594 210.265625 259.671875 " fill-opacity="1" fill-rule="nonzero"/><path fill="#312f30" d="M 169.414062 97.535156 C 169.460938 97.671875 169.621094 97.957031 170.058594 97.632812 C 170.300781 97.453125 170.65625 97.128906 170.953125 96.390625 C 171.164062 95.863281 171.441406 94.984375 170.894531 95.023438 C 170.164062 95.140625 169.207031 96.949219 169.414062 97.535156 " fill-opacity="1" fill-rule="nonzero"/><path fill="#312f30" d="M 232.71875 192.101562 C 233.316406 192.519531 234.503906 192.542969 234.921875 192.25 C 235.308594 191.976562 236.496094 191.148438 236.253906 189.632812 C 236.058594 188.410156 235.160156 187.40625 233.59375 187.90625 C 231.117188 188.820312 231.832031 191.480469 232.71875 192.101562 " fill-opacity="1" fill-rule="nonzero"/><path fill="#312f30" d="M 151.777344 93.195312 C 151.796875 93.183594 153.75 92.042969 153.96875 91.835938 C 153.964844 91.832031 153.96875 91.824219 153.96875 91.816406 C 153.648438 91.871094 150.695312 93.585938 150.304688 93.996094 C 150.304688 94 150.304688 94.007812 150.308594 94.011719 C 150.429688 93.980469 150.789062 93.773438 151.777344 93.195312 " fill-opacity="1" fill-rule="nonzero"/><path fill="#312f30" d="M 236.933594 205.519531 C 235.089844 206.128906 234.921875 208.035156 235.792969 208.910156 C 236.757812 209.882812 239.0625 208.84375 239.03125 207.054688 C 239.023438 206.699219 238.894531 204.960938 236.933594 205.519531 " fill-opacity="1" fill-rule="nonzero"/><path fill="#312f30" d="M 233.242188 231.1875 C 233.246094 230.730469 233.089844 229.703125 231.558594 230.109375 C 229.773438 230.648438 229.820312 232.171875 230.316406 232.699219 C 231.074219 233.5 233.230469 232.621094 233.242188 231.1875 " fill-opacity="1" fill-rule="nonzero"/><path fill="#312f30" d="M 222.660156 155.078125 C 223.917969 155.878906 226.085938 154.898438 225.539062 152.921875 C 225.398438 152.410156 224.792969 150.78125 222.9375 151.300781 C 220.839844 152 221.625 154.421875 222.660156 155.078125 " fill-opacity="1" fill-rule="nonzero"/><path fill="#312f30" d="M 205.554688 131.9375 C 206.457031 132.511719 208.425781 132.148438 207.949219 130.144531 C 207.945312 130.121094 207.386719 128.125 205.609375 128.644531 C 203.660156 129.316406 204.855469 131.492188 205.554688 131.9375 " fill-opacity="1" fill-rule="nonzero"/><path fill="#312f30" d="M 171.148438 91.597656 C 171.234375 91.484375 171.960938 90.476562 171.605469 90.476562 C 171.082031 90.585938 169.980469 92.09375 170 92.429688 C 170 92.433594 170.15625 92.953125 171.148438 91.597656 " fill-opacity="1" fill-rule="nonzero"/><path fill="#312f30" d="M 218.355469 256.457031 C 218.300781 256.46875 218.246094 256.484375 218.191406 256.5 C 217.691406 256.671875 217.816406 256.929688 218.058594 257.050781 C 218.453125 257.25 219.425781 257.089844 219.289062 256.664062 C 219.285156 256.660156 219.078125 256.308594 218.355469 256.457031 " fill-opacity="1" fill-rule="nonzero"/><path fill="#312f30" d="M 238.519531 221.324219 C 237.566406 221.671875 236.898438 222.855469 237.515625 223.589844 C 238.144531 224.332031 239.839844 223.640625 239.960938 222.300781 C 240.054688 221.28125 239.304688 221.074219 238.519531 221.324219 " fill-opacity="1" fill-rule="nonzero"/><path fill="#312f30" d="M 216.457031 137.5 C 217.605469 138.074219 218.890625 137.167969 218.355469 135.769531 C 218.003906 134.859375 217.199219 134.429688 216.351562 134.703125 C 214.808594 135.285156 215.621094 137.085938 216.457031 137.5 " fill-opacity="1" fill-rule="nonzero"/><path fill="#312f30" d="M 221.640625 252.90625 C 220.902344 253.089844 220.785156 253.554688 221.027344 253.792969 C 221.449219 254.203125 222.617188 253.839844 222.585938 253.304688 C 222.574219 253.082031 222.363281 252.746094 221.640625 252.90625 " fill-opacity="1" fill-rule="nonzero"/><path fill="#312f30" d="M 239.738281 179.371094 C 240.457031 179.90625 242.15625 179.292969 241.90625 177.734375 C 241.78125 176.953125 241.378906 176.101562 240.164062 176.480469 C 238.582031 177.046875 239.0625 178.863281 239.738281 179.371094 " fill-opacity="1" fill-rule="nonzero"/><path fill="#312f30" d="M 244.039062 194.796875 C 242.519531 195.339844 242.871094 197.007812 243.386719 197.382812 C 243.394531 197.386719 244.050781 197.832031 244.863281 197.230469 C 245.046875 197.09375 245.601562 196.683594 245.511719 195.804688 C 245.460938 195.273438 245.199219 194.433594 244.039062 194.796875 " fill-opacity="1" fill-rule="nonzero"/><path fill="#312f30" d="M 226.199219 248.109375 C 225.066406 248.445312 225.511719 249.214844 225.515625 249.21875 C 225.808594 249.585938 227.058594 249.308594 227.125 248.5625 C 227.144531 248.347656 227.097656 247.867188 226.199219 248.109375 " fill-opacity="1" fill-rule="nonzero"/><path fill="#312f30" d="M 191.269531 111.167969 C 191.773438 111.457031 192.820312 111.167969 192.46875 110.070312 C 192.359375 109.722656 192.011719 108.929688 191.207031 109.148438 C 190.117188 109.5 190.789062 110.894531 191.269531 111.167969 " fill-opacity="1" fill-rule="nonzero"/><path fill="#312f30" d="M 217.449219 258.695312 C 217.355469 258.648438 217.082031 258.554688 216.605469 258.652344 C 216.527344 258.667969 216.367188 258.703125 216.339844 258.757812 C 216.265625 258.894531 216.996094 258.976562 217.410156 258.835938 C 217.539062 258.789062 217.550781 258.746094 217.449219 258.695312 " fill-opacity="1" fill-rule="nonzero"/><path fill="#312f30" d="M 184.195312 105.96875 C 184.554688 106.273438 185.550781 106.238281 185.40625 105.042969 C 185.40625 105.03125 185.210938 103.855469 184.335938 104.066406 C 183.476562 104.328125 183.78125 105.613281 184.195312 105.96875 " fill-opacity="1" fill-rule="nonzero"/><path fill="#312f30" d="M 176.457031 95.410156 C 176.5 95.132812 176.558594 94.496094 176.128906 94.554688 C 175.578125 94.671875 175.449219 95.800781 175.664062 96.050781 C 175.859375 96.28125 176.339844 96.136719 176.457031 95.410156 " fill-opacity="1" fill-rule="nonzero"/><path fill="#312f30" d="M 178.996094 100.941406 C 179.105469 101.035156 179.394531 101.214844 179.730469 100.910156 C 179.875 100.777344 180.035156 100.519531 179.996094 100.03125 C 179.980469 99.796875 179.871094 99.035156 179.277344 99.164062 C 178.503906 99.382812 178.65625 100.65625 178.996094 100.941406 " fill-opacity="1" fill-rule="nonzero"/><path fill="#312f30" d="M 234.417969 160.75 C 235.039062 161.121094 236.710938 160.832031 236.339844 159.117188 C 236.335938 159.101562 235.957031 157.640625 234.59375 158.058594 C 233.046875 158.613281 233.785156 160.371094 234.417969 160.75 " fill-opacity="1" fill-rule="nonzero"/><path fill="#312f30" d="M 199.890625 116.296875 C 200.484375 116.519531 200.640625 116.34375 200.84375 116.121094 C 200.941406 116.011719 201.148438 115.695312 200.921875 115.152344 C 200.671875 114.554688 200.128906 114.242188 199.597656 114.394531 C 199.570312 114.402344 199.539062 114.414062 199.511719 114.421875 C 198.808594 114.722656 199.0625 115.984375 199.890625 116.296875 " fill-opacity="1" fill-rule="nonzero"/><path fill="#312f30" d="M 231.996094 242 C 231.203125 242.242188 230.960938 242.894531 231.179688 243.21875 C 231.390625 243.527344 232.019531 243.375 232.023438 243.371094 C 232.03125 243.367188 232.691406 243.015625 232.785156 242.570312 C 232.828125 242.355469 232.78125 241.792969 231.996094 242 " fill-opacity="1" fill-rule="nonzero"/><path fill="#312f30" d="M 238.566406 234.816406 C 237.761719 235.101562 237.816406 235.789062 237.921875 235.933594 C 238.148438 236.234375 239.058594 235.953125 239.195312 235.308594 C 239.222656 235.183594 239.316406 234.574219 238.566406 234.816406 " fill-opacity="1" fill-rule="nonzero"/><g clip-path="url(#342692dfd4)"><path fill="#312f30" d="M 245.859375 211.699219 C 245.042969 211.992188 244.871094 212.972656 245.238281 213.375 C 245.640625 213.824219 246.800781 213.25 246.835938 212.394531 C 246.851562 212.011719 246.746094 211.410156 245.859375 211.699219 " fill-opacity="1" fill-rule="nonzero"/></g><path fill="#312f30" d="M 227.898438 142.828125 C 228.484375 143.121094 229.546875 142.65625 229.160156 141.664062 C 229.011719 141.277344 228.644531 140.667969 227.867188 140.910156 C 226.726562 141.320312 227.394531 142.574219 227.898438 142.828125 " fill-opacity="1" fill-rule="nonzero"/><path fill="#312f30" d="M 209.644531 121.261719 C 209.683594 121.277344 210.058594 121.417969 210.3125 121.175781 C 210.515625 120.976562 210.566406 120.742188 210.457031 120.480469 C 210.453125 120.472656 210.121094 119.679688 209.441406 119.863281 C 209.40625 119.875 209.375 119.886719 209.34375 119.902344 C 208.707031 120.203125 209.167969 121.074219 209.644531 121.261719 " fill-opacity="1" fill-rule="nonzero"/><g fill="#312f30" fill-opacity="1"><g transform="translate(140.29707, 288.634287)"><g><path d="M 5.625 -14.0625 L 0.09375 -14.0625 L 0.09375 -16.6875 L 14.265625 -16.6875 L 14.265625 -14.0625 L 8.734375 -14.0625 L 8.734375 0 L 5.625 0 Z M 5.625 -14.0625 "/></g></g></g><g fill="#312f30" fill-opacity="1"><g transform="translate(154.643186, 288.634287)"><g><path d="M 10.03125 0.234375 C 8.332031 0.234375 6.800781 -0.132812 5.4375 -0.875 C 4.070312 -1.613281 3 -2.632812 2.21875 -3.9375 C 1.4375 -5.25 1.046875 -6.71875 1.046875 -8.34375 C 1.046875 -9.96875 1.4375 -11.4375 2.21875 -12.75 C 3 -14.0625 4.070312 -15.082031 5.4375 -15.8125 C 6.800781 -16.550781 8.332031 -16.921875 10.03125 -16.921875 C 11.738281 -16.921875 13.273438 -16.550781 14.640625 -15.8125 C 16.003906 -15.082031 17.078125 -14.0625 17.859375 -12.75 C 18.640625 -11.445312 19.03125 -9.976562 19.03125 -8.34375 C 19.03125 -6.707031 18.640625 -5.238281 17.859375 -3.9375 C 17.078125 -2.632812 16.003906 -1.613281 14.640625 -0.875 C 13.273438 -0.132812 11.738281 0.234375 10.03125 0.234375 Z M 10.03125 -2.484375 C 11.144531 -2.484375 12.144531 -2.734375 13.03125 -3.234375 C 13.925781 -3.734375 14.628906 -4.429688 15.140625 -5.328125 C 15.648438 -6.222656 15.90625 -7.226562 15.90625 -8.34375 C 15.90625 -9.457031 15.648438 -10.460938 15.140625 -11.359375 C 14.628906 -12.253906 13.925781 -12.953125 13.03125 -13.453125 C 12.144531 -13.953125 11.144531 -14.203125 10.03125 -14.203125 C 8.925781 -14.203125 7.925781 -13.953125 7.03125 -13.453125 C 6.144531 -12.953125 5.445312 -12.253906 4.9375 -11.359375 C 4.425781 -10.460938 4.171875 -9.457031 4.171875 -8.34375 C 4.171875 -7.226562 4.425781 -6.222656 4.9375 -5.328125 C 5.445312 -4.429688 6.144531 -3.734375 7.03125 -3.234375 C 7.925781 -2.734375 8.925781 -2.484375 10.03125 -2.484375 Z M 10.03125 -2.484375 "/></g></g></g><g fill="#312f30" fill-opacity="1"><g transform="translate(174.708683, 288.634287)"><g><path d="M 9.109375 -16.6875 C 10.554688 -16.6875 11.816406 -16.445312 12.890625 -15.96875 C 13.960938 -15.5 14.785156 -14.816406 15.359375 -13.921875 C 15.929688 -13.035156 16.21875 -11.976562 16.21875 -10.75 C 16.21875 -9.539062 15.929688 -8.488281 15.359375 -7.59375 C 14.785156 -6.695312 13.960938 -6.007812 12.890625 -5.53125 C 11.816406 -5.050781 10.554688 -4.8125 9.109375 -4.8125 L 5.34375 -4.8125 L 5.34375 0 L 2.234375 0 L 2.234375 -16.6875 Z M 8.96875 -7.4375 C 10.3125 -7.4375 11.332031 -7.722656 12.03125 -8.296875 C 12.738281 -8.867188 13.09375 -9.6875 13.09375 -10.75 C 13.09375 -11.8125 12.738281 -12.628906 12.03125 -13.203125 C 11.332031 -13.773438 10.3125 -14.0625 8.96875 -14.0625 L 5.34375 -14.0625 L 5.34375 -7.4375 Z M 8.96875 -7.4375 "/></g></g></g><g fill="#312f30" fill-opacity="1"><g transform="translate(192.009812, 288.634287)"><g/></g></g><g fill="#312f30" fill-opacity="1"><g transform="translate(198.587101, 288.634287)"><g><path d="M 9.421875 0.234375 C 7.117188 0.234375 5.320312 -0.410156 4.03125 -1.703125 C 2.738281 -2.992188 2.09375 -4.847656 2.09375 -7.265625 L 2.09375 -16.6875 L 5.203125 -16.6875 L 5.203125 -7.390625 C 5.203125 -4.117188 6.613281 -2.484375 9.4375 -2.484375 C 12.25 -2.484375 13.65625 -4.117188 13.65625 -7.390625 L 13.65625 -16.6875 L 16.71875 -16.6875 L 16.71875 -7.265625 C 16.71875 -4.847656 16.078125 -2.992188 14.796875 -1.703125 C 13.515625 -0.410156 11.722656 0.234375 9.421875 0.234375 Z M 9.421875 0.234375 "/></g></g></g><g fill="#312f30" fill-opacity="1"><g transform="translate(217.389575, 288.634287)"><g><path d="M 9.109375 -16.6875 C 10.554688 -16.6875 11.816406 -16.445312 12.890625 -15.96875 C 13.960938 -15.5 14.785156 -14.816406 15.359375 -13.921875 C 15.929688 -13.035156 16.21875 -11.976562 16.21875 -10.75 C 16.21875 -9.539062 15.929688 -8.488281 15.359375 -7.59375 C 14.785156 -6.695312 13.960938 -6.007812 12.890625 -5.53125 C 11.816406 -5.050781 10.554688 -4.8125 9.109375 -4.8125 L 5.34375 -4.8125 L 5.34375 0 L 2.234375 0 L 2.234375 -16.6875 Z M 8.96875 -7.4375 C 10.3125 -7.4375 11.332031 -7.722656 12.03125 -8.296875 C 12.738281 -8.867188 13.09375 -9.6875 13.09375 -10.75 C 13.09375 -11.8125 12.738281 -12.628906 12.03125 -13.203125 C 11.332031 -13.773438 10.3125 -14.0625 8.96875 -14.0625 L 5.34375 -14.0625 L 5.34375 -7.4375 Z M 8.96875 -7.4375 "/></g></g></g></svg>